<svg xmlns="http://www.w3.org/2000/svg" xmlns:xlink="http://www.w3.org/1999/xlink" preserveAspectRatio="xMidYMid meet" width="680" height="680" viewBox="0 0 680 680" style="width:100%;height:100%"><defs><animate repeatCount="indefinite" dur="5s" begin="0s" xlink:href="#_R_G_L_19_G_D_0_P_0" fill="freeze" attributeName="opacity" from="1" to="1" keyTimes="0;0.0133333;0.0133333;0.0266666;0.0266667;0.6533333;0.6533333;0.6666666;0.6666667;1" values="1;1;0;0;1;1;0;0;1;1" keySplines="0 0 1 1;0 0 1 1;0 0 1 1;0 0 1 1;0 0 1 1;0 0 1 1;0 0 1 1;0 0 1 1;0 0 1 1" calcMode="spline"/><animate repeatCount="indefinite" dur="5s" begin="0s" xlink:href="#_R_G_L_19_G_D_0_P_0" fill="freeze" attributeName="opacity" from="1" to="1" keyTimes="0;0.0133333;0.0133333;0.0133333;0.0133333;0.0266666;0.0266666;0.0266666;0.0266667;0.6533333;0.6533333;0.6533333;0.6533333;0.6666666;0.6666666;0.6666666;0.6666667;1;1" values="1;1;1;1;0;0;0;0;1;1;1;1;0;0;0;0;1;1;1" keySplines="0 0 1 1;0 0 1 1;0 0 1 1;0 0 1 1;0 0 1 1;0 0 1 1;0 0 1 1;0 0 1 1;0 0 1 1;0 0 1 1;0 0 1 1;0 0 1 1;0 0 1 1;0 0 1 1;0 0 1 1;0 0 1 1;0 0 1 1;0 0 1 1" calcMode="spline"/><animateTransform repeatCount="indefinite" dur="5s" begin="0s" xlink:href="#_R_G_L_19_G" fill="freeze" attributeName="transform" from="4.375 -24" to="4.375 -24" type="translate" additive="sum" keyTimes="0;0.0266666;0.0266667;0.04;0.04;0.6666666;0.6666667;1" values="4.375 -24;4.375 -24;0.12 -24;0.12 -24;0.507 -24;0.507 -24;4.375 -24;4.375 -24" keySplines="0 0 1 1;0 0 1 1;0 0 1 1;0 0 1 1;0 0 1 1;0 0 1 1;0 0 1 1" calcMode="spline"/><animateTransform repeatCount="indefinite" dur="5s" begin="0s" xlink:href="#_R_G_L_19_G" fill="freeze" attributeName="transform" from="1 1" to="1 1" type="scale" additive="sum" keyTimes="0;0.0266666;0.0266667;0.04;0.04;0.6666666;0.6666667;1" values="1 1;1 1;-1 1;-1 1;-1 1;-1 1;1 1;1 1" keySplines="0 0 1 1;0 0 1 1;0 0 1 1;0 0 1 1;0 0 1 1;0 0 1 1;0 0 1 1" calcMode="spline"/><animateTransform repeatCount="indefinite" dur="5s" begin="0s" xlink:href="#_R_G_L_19_G" fill="freeze" attributeName="transform" from="-4.375 24" to="-4.375 24" type="translate" additive="sum" keyTimes="0;1" values="-4.375 24;-4.375 24" keySplines="0 0 1 1" calcMode="spline"/><animateTransform repeatCount="indefinite" dur="5s" begin="0s" xlink:href="#_R_G_L_18_G_N_20_T_0" fill="freeze" attributeName="transform" from="4.375 -24" to="4.375 -24" type="translate" additive="sum" keyTimes="0;0.0266666;0.0266667;0.04;0.04;0.6666666;0.6666667;1" values="4.375 -24;4.375 -24;0.12 -24;0.12 -24;0.507 -24;0.507 -24;4.375 -24;4.375 -24" keySplines="0 0 1 1;0 0 1 1;0 0 1 1;0 0 1 1;0 0 1 1;0 0 1 1;0 0 1 1" calcMode="spline"/><animateTransform repeatCount="indefinite" dur="5s" begin="0s" xlink:href="#_R_G_L_18_G_N_20_T_0" fill="freeze" attributeName="transform" from="1 1" to="1 1" type="scale" additive="sum" keyTimes="0;0.0266666;0.0266667;0.04;0.04;0.6666666;0.6666667;1" values="1 1;1 1;-1 1;-1 1;-1 1;-1 1;1 1;1 1" keySplines="0 0 1 1;0 0 1 1;0 0 1 1;0 0 1 1;0 0 1 1;0 0 1 1;0 0 1 1" calcMode="spline"/><animateTransform repeatCount="indefinite" dur="5s" begin="0s" xlink:href="#_R_G_L_18_G_N_20_T_0" fill="freeze" attributeName="transform" from="-4.375 24" to="-4.375 24" type="translate" additive="sum" keyTimes="0;1" values="-4.375 24;-4.375 24" keySplines="0 0 1 1" calcMode="spline"/><animate repeatCount="indefinite" dur="5s" begin="0s" xlink:href="#_R_G_L_18_G_N_20_N_21_N_11_N_15_N_4_T_0_M" fill="freeze" attributeName="opacity" from="0" to="0" keyTimes="0;0.0133333;0.0133337;0.0266667;0.0266667;1" values="0;0;1;1;0;0" keySplines="0 0 0 0;0 0 0 0;0 0 0 0;0 0 0 0;0 0 0 0" calcMode="spline"/><animateTransform repeatCount="indefinite" dur="5s" begin="0s" xlink:href="#_R_G_L_17_G_N_20_T_0" fill="freeze" attributeName="transform" from="4.375 -24" to="4.375 -24" type="translate" additive="sum" keyTimes="0;0.0266666;0.0266667;0.04;0.04;0.6666666;0.6666667;1" values="4.375 -24;4.375 -24;0.12 -24;0.12 -24;0.507 -24;0.507 -24;4.375 -24;4.375 -24" keySplines="0 0 1 1;0 0 1 1;0 0 1 1;0 0 1 1;0 0 1 1;0 0 1 1;0 0 1 1" calcMode="spline"/><animateTransform repeatCount="indefinite" dur="5s" begin="0s" xlink:href="#_R_G_L_17_G_N_20_T_0" fill="freeze" attributeName="transform" from="1 1" to="1 1" type="scale" additive="sum" keyTimes="0;0.0266666;0.0266667;0.04;0.04;0.6666666;0.6666667;1" values="1 1;1 1;-1 1;-1 1;-1 1;-1 1;1 1;1 1" keySplines="0 0 1 1;0 0 1 1;0 0 1 1;0 0 1 1;0 0 1 1;0 0 1 1;0 0 1 1" calcMode="spline"/><animateTransform repeatCount="indefinite" dur="5s" begin="0s" xlink:href="#_R_G_L_17_G_N_20_T_0" fill="freeze" attributeName="transform" from="-4.375 24" to="-4.375 24" type="translate" additive="sum" keyTimes="0;1" values="-4.375 24;-4.375 24" keySplines="0 0 1 1" calcMode="spline"/><animate repeatCount="indefinite" dur="5s" begin="0s" xlink:href="#_R_G_L_17_G_N_20_N_21_N_11_N_15_N_4_T_0_M" fill="freeze" attributeName="opacity" from="0" to="0" keyTimes="0;0.6533333;0.6533337;0.6666667;0.6666667;1" values="0;0;1;1;0;0" keySplines="0 0 0 0;0 0 0 0;0 0 0 0;0 0 0 0;0 0 0 0" calcMode="spline"/><animateTransform repeatCount="indefinite" dur="5s" begin="0s" xlink:href="#_R_G_L_16_G_D_2_P_0_G_0_T_0" fill="freeze" attributeName="transform" from="0 0" to="0 0" type="translate" additive="sum" keyTimes="0;0.0133333;0.0133333;0.0266666;0.0266667;0.04;0.04;0.2133333;0.2133333;0.2266666;0.2266667;0.4133333;0.4133333;0.4266666;0.4266667;0.6533333;0.6533333;0.6666666;0.6666667;1" values="0 0;0 0;1.064 0;1.064 0;-3 0;-3 0;-4 0;-4 0;-4 -1.5;-4 -1.5;-4 -2;-4 -2;2.5 0.5;2.5 0.5;3 1;3 1;2 0.5;2 0.5;0 0;0 0" keySplines="0 0 1 1;0 0 1 1;0 0 1 1;0 0 1 1;0 0 1 1;0 0 1 1;0 0 1 1;0 0 1 1;0 0 1 1;0 0 1 1;0 0 1 1;0 0 1 1;0 0 1 1;0 0 1 1;0 0 1 1;0 0 1 1;0 0 1 1;0 0 1 1;0 0 1 1" calcMode="spline"/><animate repeatCount="indefinite" dur="5s" begin="0s" xlink:href="#_R_G_L_16_G_D_2_P_0" fill="freeze" attributeName="d" attributeType="XML" from="M-1.69 -37.58 C-1.69,-37.58 -1.69,-39.45 -1.69,-39.45 C-1.69,-39.45 -10.42,-39.45 -10.42,-39.45 C-10.42,-39.45 -10.42,-37.58 -10.42,-37.58 C-10.42,-37.58 -1.69,-37.58 -1.69,-37.58z " to="M-1.69 -37.58 C-1.69,-37.58 -1.69,-39.45 -1.69,-39.45 C-1.69,-39.45 -10.42,-39.45 -10.42,-39.45 C-10.42,-39.45 -10.42,-37.58 -10.42,-37.58 C-10.42,-37.58 -1.69,-37.58 -1.69,-37.58z " keyTimes="0;0.0533333;0.66;0.66;0.71;1" values="M-1.69 -37.58 C-1.69,-37.58 -1.69,-39.45 -1.69,-39.45 C-1.69,-39.45 -10.42,-39.45 -10.42,-39.45 C-10.42,-39.45 -10.42,-37.58 -10.42,-37.58 C-10.42,-37.58 -1.69,-37.58 -1.69,-37.58z ;M-4.52 -37.58 C-4.52,-37.58 -4.52,-39.45 -4.52,-39.45 C-4.52,-39.45 -7.59,-39.45 -7.59,-39.45 C-7.59,-39.45 -7.59,-37.58 -7.59,-37.58 C-7.59,-37.58 -4.52,-37.58 -4.52,-37.58z ;M-4.52 -37.58 C-4.52,-37.58 -4.52,-39.45 -4.52,-39.45 C-4.52,-39.45 -7.59,-39.45 -7.59,-39.45 C-7.59,-39.45 -7.59,-37.58 -7.59,-37.58 C-7.59,-37.58 -4.52,-37.58 -4.52,-37.58z ;M-4.52 -37.58 C-4.52,-37.58 -4.52,-39.45 -4.52,-39.45 C-4.52,-39.45 -7.59,-39.45 -7.59,-39.45 C-7.59,-39.45 -7.59,-37.58 -7.59,-37.58 C-7.59,-37.58 -4.52,-37.58 -4.52,-37.58z ;M-1.69 -37.58 C-1.69,-37.58 -1.69,-39.45 -1.69,-39.45 C-1.69,-39.45 -10.42,-39.45 -10.42,-39.45 C-10.42,-39.45 -10.42,-37.58 -10.42,-37.58 C-10.42,-37.58 -1.69,-37.58 -1.69,-37.58z ;M-1.69 -37.58 C-1.69,-37.58 -1.69,-39.45 -1.69,-39.45 C-1.69,-39.45 -10.42,-39.45 -10.42,-39.45 C-10.42,-39.45 -10.42,-37.58 -10.42,-37.58 C-10.42,-37.58 -1.69,-37.58 -1.69,-37.58z " keySplines="0.333 0 0 1;0 0 1 1;0 0 1 1;0.333 0 0 1;0 0 0 0" calcMode="spline"/><animateTransform repeatCount="indefinite" dur="5s" begin="0s" xlink:href="#_R_G_L_16_G" fill="freeze" attributeName="transform" from="-6 -38.375" to="-6 -38.375" type="translate" additive="sum" keyTimes="0;0.0133333;0.0133333;0.0266666;0.0266667;0.04;0.04;0.6533333;0.6533333;0.6666666;0.6666667;1" values="-6 -38.375;-6 -38.375;0.19 -38.375;0.19 -38.375;-3.872 -38.375;-3.872 -38.375;-4.646 -38.375;-4.646 -38.375;0.19 -38.375;0.19 -38.375;-6 -38.375;-6 -38.375" keySplines="0 0 1 1;0 0 1 1;0 0 1 1;0 0 1 1;0 0 1 1;0 0 1 1;0 0 1 1;0 0 1 1;0 0 1 1;0 0 1 1;0 0 1 1" calcMode="spline"/><animateTransform repeatCount="indefinite" dur="5s" begin="0s" xlink:href="#_R_G_L_16_G" fill="freeze" attributeName="transform" from="6 38.375" to="6 38.375" type="translate" additive="sum" keyTimes="0;1" values="6 38.375;6 38.375" keySplines="0 0 1 1" calcMode="spline"/><animateTransform repeatCount="indefinite" dur="5s" begin="0s" xlink:href="#_R_G_L_16_G_N_20_T_0" fill="freeze" attributeName="transform" from="4.375 -24" to="4.375 -24" type="translate" additive="sum" keyTimes="0;0.0266666;0.0266667;0.04;0.04;0.6666666;0.6666667;1" values="4.375 -24;4.375 -24;0.12 -24;0.12 -24;0.507 -24;0.507 -24;4.375 -24;4.375 -24" keySplines="0 0 1 1;0 0 1 1;0 0 1 1;0 0 1 1;0 0 1 1;0 0 1 1;0 0 1 1" calcMode="spline"/><animateTransform repeatCount="indefinite" dur="5s" begin="0s" xlink:href="#_R_G_L_16_G_N_20_T_0" fill="freeze" attributeName="transform" from="1 1" to="1 1" type="scale" additive="sum" keyTimes="0;0.0266666;0.0266667;0.04;0.04;0.6666666;0.6666667;1" values="1 1;1 1;-1 1;-1 1;-1 1;-1 1;1 1;1 1" keySplines="0 0 1 1;0 0 1 1;0 0 1 1;0 0 1 1;0 0 1 1;0 0 1 1;0 0 1 1" calcMode="spline"/><animateTransform repeatCount="indefinite" dur="5s" begin="0s" xlink:href="#_R_G_L_16_G_N_20_T_0" fill="freeze" attributeName="transform" from="-4.375 24" to="-4.375 24" type="translate" additive="sum" keyTimes="0;1" values="-4.375 24;-4.375 24" keySplines="0 0 1 1" calcMode="spline"/><animateTransform repeatCount="indefinite" dur="5s" begin="0s" xlink:href="#_R_G_L_15_G" fill="freeze" attributeName="transform" from="-4.75 -29.375" to="-4.75 -29.375" type="translate" additive="sum" keyTimes="0;0.0133333;0.0133333;0.0266666;0.0266667;0.04;0.04;0.6533333;0.6533333;0.6666666;0.6666667;1" values="-4.75 -29.375;-4.75 -29.375;2.117 -29.375;2.117 -29.375;-3.783 -29.375;-3.783 -29.375;-4.847 -29.375;-4.847 -29.375;2.117 -29.375;2.117 -29.375;-4.75 -29.375;-4.75 -29.375" keySplines="0 0 1 1;0 0 1 1;0 0 1 1;0 0 1 1;0 0 1 1;0 0 1 1;0 0 1 1;0 0 1 1;0 0 1 1;0 0 1 1;0 0 1 1" calcMode="spline"/><animateTransform repeatCount="indefinite" dur="5s" begin="0s" xlink:href="#_R_G_L_15_G" fill="freeze" attributeName="transform" from="4.75 29.375" to="4.75 29.375" type="translate" additive="sum" keyTimes="0;1" values="4.75 29.375;4.75 29.375" keySplines="0 0 1 1" calcMode="spline"/><animateTransform repeatCount="indefinite" dur="5s" begin="0s" xlink:href="#_R_G_L_15_G_N_20_T_0" fill="freeze" attributeName="transform" from="4.375 -24" to="4.375 -24" type="translate" additive="sum" keyTimes="0;0.0266666;0.0266667;0.04;0.04;0.6666666;0.6666667;1" values="4.375 -24;4.375 -24;0.12 -24;0.12 -24;0.507 -24;0.507 -24;4.375 -24;4.375 -24" keySplines="0 0 1 1;0 0 1 1;0 0 1 1;0 0 1 1;0 0 1 1;0 0 1 1;0 0 1 1" calcMode="spline"/><animateTransform repeatCount="indefinite" dur="5s" begin="0s" xlink:href="#_R_G_L_15_G_N_20_T_0" fill="freeze" attributeName="transform" from="1 1" to="1 1" type="scale" additive="sum" keyTimes="0;0.0266666;0.0266667;0.04;0.04;0.6666666;0.6666667;1" values="1 1;1 1;-1 1;-1 1;-1 1;-1 1;1 1;1 1" keySplines="0 0 1 1;0 0 1 1;0 0 1 1;0 0 1 1;0 0 1 1;0 0 1 1;0 0 1 1" calcMode="spline"/><animateTransform repeatCount="indefinite" dur="5s" begin="0s" xlink:href="#_R_G_L_15_G_N_20_T_0" fill="freeze" attributeName="transform" from="-4.375 24" to="-4.375 24" type="translate" additive="sum" keyTimes="0;1" values="-4.375 24;-4.375 24" keySplines="0 0 1 1" calcMode="spline"/><animate attributeType="XML" attributeName="opacity" dur="5s" from="0" to="1" xlink:href="#time_group"/></defs><g id="_R_G"><g id="_R_G_L_20_G_N_11_N_15_N_4_T_0" transform=" translate(341, 380.067) scale(5.17, 5.17) translate(0, -7.75)"><g id="_R_G_L_20_G_N_11_N_15_T_0"><g id="_R_G_L_20_G_N_11_T_0" transform=" rotate(-10)"><g id="_R_G_L_20_G"><path id="_R_G_L_20_G_D_0_P_0" fill="#535353" fill-opacity="1" fill-rule="nonzero" d=" M-1.07 -35.71 C-1.07,-35.71 6.42,-35.71 6.42,-35.71 C6.42,-35.71 6.42,-13.88 6.42,-13.88 C6.42,-13.88 -1.07,-13.88 -1.07,-13.88 C-1.07,-13.88 -1.07,-35.71 -1.07,-35.71z "/></g></g></g></g><g id="_R_G_L_19_G_N_21_N_11_N_15_N_4_T_0" transform=" translate(341, 380.067) scale(5.17, 5.17) translate(0, -7.75)"><g id="_R_G_L_19_G_N_21_N_11_N_15_T_0"><g id="_R_G_L_19_G_N_21_N_11_T_0" transform=" rotate(-10)"><g id="_R_G_L_19_G_N_21_T_0"><g id="_R_G_L_19_G"><g id="_R_G_L_19_G_D_0_P_0_G_0_T_0"><g id="_R_G_L_19_G_D_0_P_0_G_0_T_0"><path id="_R_G_L_19_G_D_0_P_0" fill="#8e8e8e" fill-opacity="1" fill-rule="nonzero" d=" M9.23 -48.5 C9.23,-48.5 6.11,-51.62 6.11,-51.62 C6.11,-51.62 -7.93,-51.62 -7.93,-51.62 C-7.93,-51.62 -11.05,-48.5 -11.05,-48.5 C-11.05,-48.5 -11.05,-21.36 -11.05,-21.36 C-11.05,-21.36 1.58,-21.36 1.58,-21.36 C1.58,-21.36 9.23,-24.48 9.23,-24.48 C9.23,-24.48 9.23,-48.5 9.23,-48.5z  M13.59 -48.5 C13.59,-48.5 10.47,-51.62 10.47,-51.62 C10.47,-51.62 -3.56,-51.62 -3.56,-51.62 C-3.56,-51.62 -6.68,-48.5 -6.68,-48.5 C-6.68,-48.5 -6.68,-30.72 -6.68,-30.72 C-6.68,-30.72 5.95,-30.72 5.95,-30.72 C5.95,-30.72 13.59,-33.84 13.59,-33.84 C13.59,-33.84 13.59,-48.5 13.59,-48.5z "/></g></g><path id="_R_G_L_19_G_D_1_P_0" fill="#535353" fill-opacity="1" fill-rule="nonzero" d=" M-0.76 -53.18 C-0.76,-53.18 4.23,-53.18 4.23,-53.18 C4.23,-53.18 4.23,-51.62 4.23,-51.62 C4.23,-51.62 -0.76,-51.62 -0.76,-51.62 C-0.76,-51.62 -0.76,-53.18 -0.76,-53.18z "/><path id="_R_G_L_19_G_D_2_P_0" stroke="#535353" stroke-linecap="square" stroke-linejoin="square" fill="none" stroke-width="1.248" stroke-opacity="1" d=" M1.74 -52.55 C1.74,-52.55 1.74,-59.41 1.74,-59.41 "/><path id="_R_G_L_19_G_D_3_P_0" fill="#e1503c" fill-opacity="1" fill-rule="nonzero" d=" M0.18 -62.53 C0.18,-62.53 3.3,-62.53 3.3,-62.53 C3.3,-62.53 3.3,-59.41 3.3,-59.41 C3.3,-59.41 0.18,-59.41 0.18,-59.41 C0.18,-59.41 0.18,-62.53 0.18,-62.53z "/></g></g></g></g></g><g id="_R_G_L_18_G_N_20_N_21_N_11_N_15_N_4_T_0_M"><g id="_R_G_L_18_G_N_20_N_21_N_11_N_15_N_4_T_0" transform=" translate(341, 380.067) scale(5.17, 5.17) translate(0, -7.75)"><g id="_R_G_L_18_G_N_20_N_21_N_11_N_15_T_0"><g id="_R_G_L_18_G_N_20_N_21_N_11_T_0" transform=" rotate(-10)"><g id="_R_G_L_18_G_N_20_N_21_T_0"><g id="_R_G_L_18_G_N_20_T_0"><g id="_R_G_L_18_G" transform=" translate(2.125, -21.738) translate(-2.125, 21.75)"><path id="_R_G_L_18_G_D_0_P_0" fill="#8e8e8e" fill-opacity="1" fill-rule="nonzero" d=" M13.88 -48.5 C13.88,-48.5 10.76,-51.62 10.76,-51.62 C10.76,-51.62 8.61,-51.62 8.61,-51.62 C8.61,-51.62 4.91,-51.62 4.91,-51.62 C4.91,-51.62 2.76,-51.62 2.76,-51.62 C2.76,-51.62 0.72,-51.62 0.72,-51.62 C0.72,-51.62 -1.43,-51.62 -1.43,-51.62 C-1.43,-51.62 -5.13,-51.62 -5.13,-51.62 C-5.13,-51.62 -7.28,-51.62 -7.28,-51.62 C-7.28,-51.62 -10.4,-48.5 -10.4,-48.5 C-10.4,-48.5 -10.4,-33.84 -10.4,-33.84 C-10.4,-33.84 -8.25,-32.96 -8.25,-32.96 C-8.25,-32.96 -8.25,-24.48 -8.25,-24.48 C-8.25,-24.48 -3.02,-21.36 -3.02,-21.36 C-3.02,-21.36 -2.96,-21.36 -2.96,-21.36 C-2.96,-21.36 6.45,-21.36 6.45,-21.36 C6.45,-21.36 6.5,-21.36 6.5,-21.36 C6.5,-21.36 11.73,-24.48 11.73,-24.48 C11.73,-24.48 11.73,-32.96 11.73,-32.96 C11.73,-32.96 13.88,-33.84 13.88,-33.84 C13.88,-33.84 13.88,-48.5 13.88,-48.5z "/></g></g></g></g></g></g></g><g id="_R_G_L_17_G_N_20_N_21_N_11_N_15_N_4_T_0_M"><g id="_R_G_L_17_G_N_20_N_21_N_11_N_15_N_4_T_0" transform=" translate(341, 380.067) scale(5.17, 5.17) translate(0, -7.75)"><g id="_R_G_L_17_G_N_20_N_21_N_11_N_15_T_0"><g id="_R_G_L_17_G_N_20_N_21_N_11_T_0" transform=" rotate(-10)"><g id="_R_G_L_17_G_N_20_N_21_T_0"><g id="_R_G_L_17_G_N_20_T_0"><g id="_R_G_L_17_G" transform=" translate(2.125, -21.738) translate(-2.125, 21.75)"><path id="_R_G_L_17_G_D_0_P_0" fill="#8e8e8e" fill-opacity="1" fill-rule="nonzero" d=" M13.88 -48.5 C13.88,-48.5 10.76,-51.62 10.76,-51.62 C10.76,-51.62 8.61,-51.62 8.61,-51.62 C8.61,-51.62 4.91,-51.62 4.91,-51.62 C4.91,-51.62 2.76,-51.62 2.76,-51.62 C2.76,-51.62 0.72,-51.62 0.72,-51.62 C0.72,-51.62 -1.43,-51.62 -1.43,-51.62 C-1.43,-51.62 -5.13,-51.62 -5.13,-51.62 C-5.13,-51.62 -7.28,-51.62 -7.28,-51.62 C-7.28,-51.62 -10.4,-48.5 -10.4,-48.5 C-10.4,-48.5 -10.4,-33.84 -10.4,-33.84 C-10.4,-33.84 -8.25,-32.96 -8.25,-32.96 C-8.25,-32.96 -8.25,-24.48 -8.25,-24.48 C-8.25,-24.48 -3.02,-21.36 -3.02,-21.36 C-3.02,-21.36 -2.96,-21.36 -2.96,-21.36 C-2.96,-21.36 6.45,-21.36 6.45,-21.36 C6.45,-21.36 6.5,-21.36 6.5,-21.36 C6.5,-21.36 11.73,-24.48 11.73,-24.48 C11.73,-24.48 11.73,-32.96 11.73,-32.96 C11.73,-32.96 13.88,-33.84 13.88,-33.84 C13.88,-33.84 13.88,-48.5 13.88,-48.5z "/></g></g></g></g></g></g></g><g id="_R_G_L_16_G_N_20_N_21_N_11_N_15_N_4_T_0" transform=" translate(341, 380.067) scale(5.17, 5.17) translate(0, -7.75)"><g id="_R_G_L_16_G_N_20_N_21_N_11_N_15_T_0"><g id="_R_G_L_16_G_N_20_N_21_N_11_T_0" transform=" rotate(-10)"><g id="_R_G_L_16_G_N_20_N_21_T_0"><g id="_R_G_L_16_G_N_20_T_0"><g id="_R_G_L_16_G"><path id="_R_G_L_16_G_D_0_P_0" fill="#535353" fill-opacity="1" fill-rule="nonzero" d=" M-16.69 -44.44 C-16.69,-44.44 -17.91,-35.54 -17.91,-35.54 C-17.91,-35.54 -15.04,-32.59 -15.04,-32.59 C-15.04,-32.59 6.05,-32.59 6.05,-32.59 C6.05,-32.59 8.91,-35.54 8.91,-35.54 C8.91,-35.54 7.7,-44.44 7.7,-44.44 C7.7,-44.44 6.05,-44.44 6.05,-44.44 C6.05,-44.44 -13.83,-44.44 -13.83,-44.44 C-13.83,-44.44 -16.69,-44.44 -16.69,-44.44z "/><path id="_R_G_L_16_G_D_1_P_0" fill="#000000" fill-opacity="1" fill-rule="nonzero" d=" M-15.01 -42.88 C-15.01,-42.88 -16.04,-36.48 -16.04,-36.48 C-16.04,-36.48 -13.62,-34.15 -13.62,-34.15 C-13.62,-34.15 1.51,-34.15 1.51,-34.15 C1.51,-34.15 3.92,-36.48 3.92,-36.48 C3.92,-36.48 2.9,-42.88 2.9,-42.88 C2.9,-42.88 1.51,-42.88 1.51,-42.88 C1.51,-42.88 -12.6,-42.88 -12.6,-42.88 C-12.6,-42.88 -15.01,-42.88 -15.01,-42.88z "/><g id="_R_G_L_16_G_D_2_P_0_G_0_T_0"><path id="_R_G_L_16_G_D_2_P_0" fill="#eea71f" fill-opacity="1" fill-rule="nonzero" d=" M-1.69 -37.58 C-1.69,-37.58 -1.69,-39.45 -1.69,-39.45 C-1.69,-39.45 -10.42,-39.45 -10.42,-39.45 C-10.42,-39.45 -10.42,-37.58 -10.42,-37.58 C-10.42,-37.58 -1.69,-37.58 -1.69,-37.58z "/></g></g></g></g></g></g></g><g id="_R_G_L_15_G_N_20_N_21_N_11_N_15_N_4_T_0" transform=" translate(341, 380.067) scale(5.17, 5.17) translate(0, -7.75)"><g id="_R_G_L_15_G_N_20_N_21_N_11_N_15_T_0"><g id="_R_G_L_15_G_N_20_N_21_N_11_T_0" transform=" rotate(-10)"><g id="_R_G_L_15_G_N_20_N_21_T_0"><g id="_R_G_L_15_G_N_20_T_0"><g id="_R_G_L_15_G"><path id="_R_G_L_15_G_D_0_P_0" stroke="#000000" stroke-linecap="square" stroke-linejoin="square" fill="none" stroke-width="0.624" stroke-opacity="1" d=" M-8.24 -29.67 C-8.24,-29.67 -1.07,-29.67 -1.07,-29.67 "/></g></g></g></g></g></g><g id="_R_G_L_14_G_N_4_T_0" transform=" translate(341, 380.067) scale(5.17, 5.17) translate(0, -7.75)"><g id="_R_G_L_14_G"><path id="_R_G_L_14_G_D_0_P_0" fill="#535353" fill-opacity="1" fill-rule="nonzero" d=" M0.49 -4.37 C0.49,-4.37 5.81,-2.64 5.81,-2.64 C5.81,-2.64 9.09,1.88 9.09,1.88 C9.09,1.88 9.09,7.47 9.09,7.47 C9.09,7.47 5.81,12 5.81,12 C5.81,12 0.49,13.72 0.49,13.72 C0.49,13.72 -4.82,12 -4.82,12 C-4.82,12 -8.11,7.47 -8.11,7.47 C-8.11,7.47 -8.11,1.88 -8.11,1.88 C-8.11,1.88 -4.82,-2.64 -4.82,-2.64 C-4.82,-2.64 0.49,-4.37 0.49,-4.37z "/></g></g><g id="_R_G_L_13_G_N_13_N_11_N_15_N_4_T_0" transform=" translate(341, 380.067) scale(5.17, 5.17) translate(0, -7.75)"><g id="_R_G_L_13_G_N_13_N_11_N_15_T_0"><g id="_R_G_L_13_G_N_13_N_11_T_0" transform=" rotate(-10)"><g id="_R_G_L_13_G_N_13_T_0" transform=" translate(-18.722, -11.894) rotate(10) scale(-1, 1) translate(-19.82, 12.987)"><g id="_R_G_L_13_G" transform=" translate(19.673, 20.048) translate(-19.625, -20)"><path id="_R_G_L_13_G_D_0_P_0" fill="#8e8e8e" fill-opacity="1" fill-rule="nonzero" d=" M22.17 21.96 C22.17,21.96 16.77,21.96 16.77,21.96 C16.77,21.96 16.77,27.92 16.77,27.92 C16.77,27.92 23.77,27.92 23.77,27.92 C23.77,27.92 23.77,23.62 23.77,23.62 C23.77,23.62 22.17,21.96 22.17,21.96z  M23.77 27.92 C23.77,27.92 16.77,27.92 16.77,27.92 C16.77,27.92 16.77,33.17 16.77,33.17 C16.77,33.17 23.77,33.17 23.77,33.17 C23.77,33.17 23.77,27.92 23.77,27.92z  M16.77 21.96 C16.77,21.96 14.67,23.97 14.67,23.97 C14.67,23.97 14.67,30.02 14.67,30.02 C14.67,30.02 16.77,30.02 16.77,30.02 C16.77,30.02 16.77,21.96 16.77,21.96z "/><path id="_R_G_L_13_G_D_1_P_0" stroke="#000000" stroke-linecap="square" stroke-linejoin="square" fill="none" stroke-width="0.624" stroke-opacity="1" d=" M16.42 26.87 C16.42,26.87 16.42,30.02 16.42,30.02  M18.91 28.97 C18.91,28.97 18.91,33.17 18.91,33.17  M21.01 28.97 C21.01,28.97 21.01,33.17 21.01,33.17  M22.76 28.97 C22.76,28.97 22.76,33.17 22.76,33.17 "/><path id="_R_G_L_13_G_D_2_P_0" fill="#535353" fill-opacity="1" fill-rule="nonzero" d=" M17.93 17.77 C17.93,17.77 16.77,18.93 16.77,18.93 C16.77,18.93 16.77,22.14 16.77,22.14 C16.77,22.14 18.09,23.45 18.09,23.45 C18.09,23.45 21.06,23.45 21.06,23.45 C21.06,23.45 22.37,22.14 22.37,22.14 C22.37,22.14 22.37,18.93 22.37,18.93 C22.37,18.93 21.21,17.77 21.21,17.77 C21.21,17.77 17.93,17.77 17.93,17.77z "/></g></g></g></g></g><g id="_R_G_L_12_G_N_11_N_15_N_4_T_0" transform=" translate(341, 380.067) scale(5.17, 5.17) translate(0, -7.75)"><g id="_R_G_L_12_G_N_11_N_15_T_0"><g id="_R_G_L_12_G_N_11_T_0" transform=" rotate(-10)"><g id="_R_G_L_12_G" transform=" translate(-18.722, -11.894) rotate(10) scale(-1, 1) translate(-19.82, 12.987)"><path id="_R_G_L_12_G_D_0_P_0" fill="#8e8e8e" fill-opacity="1" fill-rule="nonzero" d=" M22.41 -15.16 C22.41,-15.16 22.41,5.92 22.41,5.92 C22.41,5.92 16.97,5.92 16.97,5.92 C16.97,5.92 16.97,-15.16 16.97,-15.16 C16.97,-15.16 22.41,-15.16 22.41,-15.16z "/></g></g></g></g><g id="_R_G_L_11_G_N_13_N_11_N_15_N_4_T_0" transform=" translate(341, 380.067) scale(5.17, 5.17) translate(0, -7.75)"><g id="_R_G_L_11_G_N_13_N_11_N_15_T_0"><g id="_R_G_L_11_G_N_13_N_11_T_0" transform=" rotate(-10)"><g id="_R_G_L_11_G_N_13_T_0" transform=" translate(-18.722, -11.894) rotate(10) scale(-1, 1) translate(-19.82, 12.987)"><g id="_R_G_L_11_G" transform=" translate(19.668, 5.128) scale(-0.19341999999999998, 0.19341999999999998) translate(-100.815, -26.51)"><path id="_R_G_L_11_G_D_0_P_0" fill="#8e8e8e" fill-opacity="1" fill-rule="nonzero" d=" M101 14.63 C101,14.63 86,14.5 86,14.5 C86,14.5 86,99.5 86,99.5 C86,99.5 115.5,99.5 115.5,99.5 C115.5,99.5 115.5,28 115.5,28 C115.5,28 101,28 101,28 C101,28 101,14.63 101,14.63z "/><path id="_R_G_L_11_G_D_1_P_0" stroke="#000000" stroke-linecap="square" stroke-linejoin="square" fill="none" stroke-width="3" stroke-opacity="1" d=" M115.16 28.23 C115.16,28.23 100.78,28.23 100.78,28.23 C100.78,28.23 100.78,14.48 100.78,14.48 C100.78,14.48 86.28,14.48 86.28,14.48 "/></g></g></g></g></g><g id="_R_G_L_10_G_N_15_N_4_T_0" transform=" translate(341, 380.067) scale(5.17, 5.17) translate(0, -7.75)"><g id="_R_G_L_10_G_N_15_T_0"><g id="_R_G_L_10_G" transform=" rotate(-10)"><path id="_R_G_L_10_G_D_0_P_0" fill="#535353" fill-opacity="1" fill-rule="nonzero" d=" M-17.8 -16.54 C-17.8,-16.54 -19.32,-15.02 -19.32,-15.02 C-19.32,-15.02 -19.32,-9.43 -19.32,-9.43 C-19.32,-9.43 -17.6,-7.71 -17.6,-7.71 C-17.6,-7.71 -11.98,-7.71 -11.98,-7.71 C-11.98,-7.71 -10.26,-9.43 -10.26,-9.43 C-10.26,-9.43 -10.26,-15.02 -10.26,-15.02 C-10.26,-15.02 -11.77,-16.54 -11.77,-16.54 C-11.77,-16.54 -17.8,-16.54 -17.8,-16.54z "/><path id="_R_G_L_10_G_D_1_P_0" fill="#8e8e8e" fill-opacity="1" fill-rule="nonzero" d=" M-2.31 -5.77 C-2.31,-5.77 13.59,-5.77 13.59,-5.77 C13.59,-5.77 13.59,3.59 13.59,3.59 C13.59,3.59 0.8,3.59 0.8,3.59 C0.8,3.59 -2.31,-5.77 -2.31,-5.77z "/><path id="_R_G_L_10_G_D_2_P_0" fill="#8e8e8e" fill-opacity="1" fill-rule="nonzero" d=" M-6.68 -5.77 C-6.68,-5.77 -14.17,-5.77 -14.17,-5.77 C-14.17,-5.77 -11.05,3.59 -11.05,3.59 C-11.05,3.59 -6.68,3.59 -6.68,3.59 C-6.68,3.59 -6.68,-5.77 -6.68,-5.77z "/><path id="_R_G_L_10_G_D_3_P_0" fill="#8e8e8e" fill-opacity="1" fill-rule="nonzero" d=" M-15.47 -18.99 C-15.47,-18.99 13.58,-18.99 13.58,-18.99 C13.58,-18.99 13.58,0.61 13.58,0.61 C13.58,0.61 -11.97,0.61 -11.97,0.61 C-11.97,0.61 -15.47,-9.19 -15.47,-9.19 C-15.47,-9.19 -15.47,-18.99 -15.47,-18.99z "/><path id="_R_G_L_10_G_D_4_P_0" fill="#ffffff" fill-opacity="1" fill-rule="nonzero" d=" M-4.19 -15.44 C-4.19,-15.44 -0.53,-13.68 -0.53,-13.68 C-0.53,-13.68 0.38,-9.72 0.38,-9.72 C0.38,-9.72 -2.16,-6.55 -2.16,-6.55 C-2.16,-6.55 -6.22,-6.55 -6.22,-6.55 C-6.22,-6.55 -8.75,-9.72 -8.75,-9.72 C-8.75,-9.72 -7.84,-13.68 -7.84,-13.68 C-7.84,-13.68 -4.19,-15.44 -4.19,-15.44z "/><path id="_R_G_L_10_G_D_5_P_0" fill="#000000" fill-opacity="1" fill-rule="nonzero" d=" M-6.74 -11.2 C-6.74,-11.2 -4.19,-13.25 -4.19,-13.25 C-4.19,-13.25 -3.58,-12.49 -3.58,-12.49 C-3.58,-12.49 -5.25,-11.14 -5.25,-11.14 C-5.25,-11.14 -4.88,-10.69 -4.88,-10.69 C-4.88,-10.69 -3.24,-12.01 -3.24,-12.01 C-3.24,-12.01 -2.63,-11.25 -2.63,-11.25 C-2.63,-11.25 -4.27,-9.93 -4.27,-9.93 C-4.27,-9.93 -3.92,-9.49 -3.92,-9.49 C-3.92,-9.49 -2.19,-10.9 -2.19,-10.9 C-2.19,-10.9 -1.58,-10.14 -1.58,-10.14 C-1.58,-10.14 -4.19,-8.03 -4.19,-8.03 C-4.19,-8.03 -6.74,-11.2 -6.74,-11.2z "/><path id="_R_G_L_10_G_D_6_P_0" stroke="#000000" stroke-linecap="square" stroke-linejoin="square" fill="none" stroke-width="0.624" stroke-opacity="1" d=" M3.43 -18.99 C3.43,-18.99 3.43,-8.84 3.43,-8.84  M3.43 -8.84 C3.43,-8.84 7.11,0.26 7.11,0.26  M3.43 -8.84 C3.43,-8.84 -14.14,-8.84 -14.14,-8.84 "/><path id="_R_G_L_10_G_D_7_P_0" fill="#535353" fill-opacity="1" fill-rule="nonzero" d=" M11.6 -16.54 C11.6,-16.54 10.08,-15.02 10.08,-15.02 C10.08,-15.02 10.08,-9.43 10.08,-9.43 C10.08,-9.43 11.8,-7.71 11.8,-7.71 C11.8,-7.71 17.43,-7.71 17.43,-7.71 C17.43,-7.71 19.15,-9.43 19.15,-9.43 C19.15,-9.43 19.15,-15.02 19.15,-15.02 C19.15,-15.02 17.63,-16.54 17.63,-16.54 C17.63,-16.54 11.6,-16.54 11.6,-16.54z "/></g></g></g><g id="_R_G_L_9_G" transform=" translate(303.632, 395.963) scale(-5.17, 5.17) translate(7.25, -11.5)"><path id="_R_G_L_9_G_D_0_P_0" fill="#8e8e8e" fill-opacity="1" fill-rule="nonzero" d=" M-11.19 9.3 C-11.19,9.3 -11.18,39.04 -11.18,39.04 C-11.18,39.04 -3.63,39.03 -3.63,39.03 C-3.63,39.03 -3.64,9.28 -3.64,9.28 C-3.64,9.28 -11.19,9.3 -11.19,9.3z "/></g><g id="_R_G_L_8_G_N_10_T_0" transform=" translate(303.632, 395.963) scale(-5.17, 5.17) translate(7.25, -11.5)"><g id="_R_G_L_8_G" transform=" translate(-7.751, 38.319) scale(-0.19341999999999998, 0.19341999999999998) translate(-102.142, -28.555)"><path id="_R_G_L_8_G_D_0_P_0" fill="#8e8e8e" fill-opacity="1" fill-rule="nonzero" d=" M101 14.63 C101,14.63 81,14.5 81,14.5 C81,14.5 80.98,132.75 80.98,132.75 C80.98,132.75 120.23,132.75 120.23,132.75 C120.23,132.75 120.25,28 120.25,28 C120.25,28 101,28 101,28 C101,28 101,14.63 101,14.63z "/><path id="_R_G_L_8_G_D_1_P_0" stroke="#000000" stroke-linecap="square" stroke-linejoin="square" fill="none" stroke-width="3" stroke-opacity="1" d=" M81.38 15.13 C81.38,15.13 100.63,15.13 100.63,15.13 C100.63,15.13 100.63,29.13 100.63,29.13 C100.63,29.13 119.88,29.13 119.88,29.13 "/></g></g><g id="_R_G_L_7_G_N_9_N_10_T_0" transform=" translate(303.632, 395.963) scale(-5.17, 5.17) translate(7.25, -11.5)"><g id="_R_G_L_7_G_N_9_T_0" transform=" translate(-7.751, 38.319) scale(-0.19341999999999998, 0.19341999999999998) translate(-102.142, -28.555)"><g id="_R_G_L_7_G" transform=" translate(113.756, 129.12) scale(5.16999, 5.17) translate(4.75, -57.125)"><path id="_R_G_L_7_G_D_0_P_0" fill="#8e8e8e" fill-opacity="1" fill-rule="nonzero" d=" M-16.17 57.32 C-16.17,57.32 -3.57,57.32 -3.57,57.32 C-3.57,57.32 -3.57,62.22 -3.57,62.22 C-3.57,62.22 -19.67,62.22 -19.67,62.22 C-19.67,62.22 -16.17,57.32 -16.17,57.32z "/></g></g></g><g id="_R_G_L_6_G_N_4_T_0" transform=" translate(341, 380.067) scale(5.17, 5.17) translate(0, -7.75)"><g id="_R_G_L_6_G" transform=" translate(8.439, 10.824) scale(-1, 1) translate(7.25, -11.5)"><path id="_R_G_L_6_G_D_0_P_0" fill="#8e8e8e" fill-opacity="1" fill-rule="nonzero" d=" M-11.19 9.3 C-11.19,9.3 -11.18,39.04 -11.18,39.04 C-11.18,39.04 -3.63,39.03 -3.63,39.03 C-3.63,39.03 -3.64,9.28 -3.64,9.28 C-3.64,9.28 -11.19,9.3 -11.19,9.3z "/></g></g><g id="_R_G_L_5_G_N_7_N_4_T_0" transform=" translate(341, 380.067) scale(5.17, 5.17) translate(0, -7.75)"><g id="_R_G_L_5_G_N_7_T_0" transform=" translate(8.439, 10.824) scale(-1, 1) translate(7.25, -11.5)"><g id="_R_G_L_5_G" transform=" translate(-7.751, 38.319) scale(-0.19341999999999998, 0.19341999999999998) translate(-102.142, -28.555)"><path id="_R_G_L_5_G_D_0_P_0" fill="#8e8e8e" fill-opacity="1" fill-rule="nonzero" d=" M101 14.63 C101,14.63 81,14.5 81,14.5 C81,14.5 80.98,132.75 80.98,132.75 C80.98,132.75 120.23,132.75 120.23,132.75 C120.23,132.75 120.25,28 120.25,28 C120.25,28 101,28 101,28 C101,28 101,14.63 101,14.63z "/><path id="_R_G_L_5_G_D_1_P_0" stroke="#000000" stroke-linecap="square" stroke-linejoin="square" fill="none" stroke-width="3" stroke-opacity="1" d=" M81.38 15.13 C81.38,15.13 100.63,15.13 100.63,15.13 C100.63,15.13 100.63,29.13 100.63,29.13 C100.63,29.13 119.88,29.13 119.88,29.13 "/></g></g></g><g id="_R_G_L_4_G_N_6_N_7_N_4_T_0" transform=" translate(341, 380.067) scale(5.17, 5.17) translate(0, -7.75)"><g id="_R_G_L_4_G_N_6_N_7_T_0" transform=" translate(8.439, 10.824) scale(-1, 1) translate(7.25, -11.5)"><g id="_R_G_L_4_G_N_6_T_0" transform=" translate(-7.751, 38.319) scale(-0.19341999999999998, 0.19341999999999998) translate(-102.142, -28.555)"><g id="_R_G_L_4_G" transform=" translate(113.756, 129.12) scale(5.16999, 5.17) translate(4.75, -57.125)"><path id="_R_G_L_4_G_D_0_P_0" fill="#8e8e8e" fill-opacity="1" fill-rule="nonzero" d=" M-16.17 57.32 C-16.17,57.32 -3.57,57.32 -3.57,57.32 C-3.57,57.32 -3.57,62.22 -3.57,62.22 C-3.57,62.22 -19.67,62.22 -19.67,62.22 C-19.67,62.22 -16.17,57.32 -16.17,57.32z "/></g></g></g></g><g id="_R_G_L_3_G" transform=" translate(341, 380.067) scale(5.17, 5.17) translate(0, -7.75)"><path id="_R_G_L_3_G_D_0_P_0" fill="#8e8e8e" fill-opacity="1" fill-rule="nonzero" d=" M-11.27 6.91 C-11.27,6.91 12.53,6.91 12.53,6.91 C12.53,6.91 12.53,14.61 12.53,14.61 C12.53,14.61 9.91,14.61 9.91,14.61 C9.91,14.61 4.48,19.52 4.48,19.52 C4.48,19.52 -3.39,19.52 -3.39,19.52 C-3.39,19.52 -6.72,14.79 -6.72,14.79 C-6.72,14.79 -11.27,14.79 -11.27,14.79 C-11.27,14.79 -11.27,6.91 -11.27,6.91z "/><path id="_R_G_L_3_G_D_1_P_0" stroke="#000000" stroke-linecap="square" stroke-linejoin="square" fill="none" stroke-width="0.624" stroke-opacity="1" d=" M-11.27 14.79 C-11.27,14.79 -6.72,14.79 -6.72,14.79 C-6.72,14.79 -3.39,19.52 -3.39,19.52 C-3.39,19.52 4.48,19.52 4.48,19.52 C4.48,19.52 4.48,14.79 4.48,14.79 C4.48,14.79 11.31,14.79 11.31,14.79 "/></g><g id="_R_G_L_2_G_N_2_N_11_N_15_N_4_T_0" transform=" translate(341, 380.067) scale(5.17, 5.17) translate(0, -7.75)"><g id="_R_G_L_2_G_N_2_N_11_N_15_T_0"><g id="_R_G_L_2_G_N_2_N_11_T_0" transform=" rotate(-10)"><g id="_R_G_L_2_G_N_2_T_0" transform=" translate(19.632, -12.202) rotate(10) translate(-19.82, 12.987)"><g id="_R_G_L_2_G" transform=" translate(19.673, 20.048) translate(-19.625, -20)"><path id="_R_G_L_2_G_D_0_P_0" fill="#8e8e8e" fill-opacity="1" fill-rule="nonzero" d=" M22.17 21.96 C22.17,21.96 16.77,21.96 16.77,21.96 C16.77,21.96 16.77,27.92 16.77,27.92 C16.77,27.92 23.77,27.92 23.77,27.92 C23.77,27.92 23.77,23.62 23.77,23.62 C23.77,23.62 22.17,21.96 22.17,21.96z  M23.77 27.92 C23.77,27.92 16.77,27.92 16.77,27.92 C16.77,27.92 16.77,33.17 16.77,33.17 C16.77,33.17 23.77,33.17 23.77,33.17 C23.77,33.17 23.77,27.92 23.77,27.92z  M16.77 21.96 C16.77,21.96 14.67,23.97 14.67,23.97 C14.67,23.97 14.67,30.02 14.67,30.02 C14.67,30.02 16.77,30.02 16.77,30.02 C16.77,30.02 16.77,21.96 16.77,21.96z "/><path id="_R_G_L_2_G_D_1_P_0" stroke="#000000" stroke-linecap="square" stroke-linejoin="square" fill="none" stroke-width="0.624" stroke-opacity="1" d=" M16.42 26.87 C16.42,26.87 16.42,30.02 16.42,30.02  M18.91 28.97 C18.91,28.97 18.91,33.17 18.91,33.17  M21.01 28.97 C21.01,28.97 21.01,33.17 21.01,33.17  M22.76 28.97 C22.76,28.97 22.76,33.17 22.76,33.17 "/><path id="_R_G_L_2_G_D_2_P_0" fill="#535353" fill-opacity="1" fill-rule="nonzero" d=" M17.93 17.77 C17.93,17.77 16.77,18.93 16.77,18.93 C16.77,18.93 16.77,22.14 16.77,22.14 C16.77,22.14 18.09,23.45 18.09,23.45 C18.09,23.45 21.06,23.45 21.06,23.45 C21.06,23.45 22.37,22.14 22.37,22.14 C22.37,22.14 22.37,18.93 22.37,18.93 C22.37,18.93 21.21,17.77 21.21,17.77 C21.21,17.77 17.93,17.77 17.93,17.77z "/></g></g></g></g></g><g id="_R_G_L_1_G_N_11_N_15_N_4_T_0" transform=" translate(341, 380.067) scale(5.17, 5.17) translate(0, -7.75)"><g id="_R_G_L_1_G_N_11_N_15_T_0"><g id="_R_G_L_1_G_N_11_T_0" transform=" rotate(-10)"><g id="_R_G_L_1_G" transform=" translate(19.632, -12.202) rotate(10) translate(-19.82, 12.987)"><path id="_R_G_L_1_G_D_0_P_0" fill="#8e8e8e" fill-opacity="1" fill-rule="nonzero" d=" M22.41 -15.16 C22.41,-15.16 22.41,5.92 22.41,5.92 C22.41,5.92 16.97,5.92 16.97,5.92 C16.97,5.92 16.97,-15.16 16.97,-15.16 C16.97,-15.16 22.41,-15.16 22.41,-15.16z "/></g></g></g></g><g id="_R_G_L_0_G_N_2_N_11_N_15_N_4_T_0" transform=" translate(341, 380.067) scale(5.17, 5.17) translate(0, -7.75)"><g id="_R_G_L_0_G_N_2_N_11_N_15_T_0"><g id="_R_G_L_0_G_N_2_N_11_T_0" transform=" rotate(-10)"><g id="_R_G_L_0_G_N_2_T_0" transform=" translate(19.632, -12.202) rotate(10) translate(-19.82, 12.987)"><g id="_R_G_L_0_G" transform=" translate(19.668, 5.128) scale(-0.19341999999999998, 0.19341999999999998) translate(-100.815, -26.51)"><path id="_R_G_L_0_G_D_0_P_0" fill="#8e8e8e" fill-opacity="1" fill-rule="nonzero" d=" M101 14.63 C101,14.63 86,14.5 86,14.5 C86,14.5 86,99.5 86,99.5 C86,99.5 115.5,99.5 115.5,99.5 C115.5,99.5 115.5,28 115.5,28 C115.5,28 101,28 101,28 C101,28 101,14.63 101,14.63z "/><path id="_R_G_L_0_G_D_1_P_0" stroke="#000000" stroke-linecap="square" stroke-linejoin="square" fill="none" stroke-width="3" stroke-opacity="1" d=" M115.16 28.23 C115.16,28.23 100.78,28.23 100.78,28.23 C100.78,28.23 100.78,14.48 100.78,14.48 C100.78,14.48 86.28,14.48 86.28,14.48 "/></g></g></g></g></g></g><g id="time_group"/></svg>