<svg xmlns="http://www.w3.org/2000/svg" xmlns:xlink="http://www.w3.org/1999/xlink" preserveAspectRatio="xMidYMid meet" width="680" height="680" viewBox="0 0 680 680" style="width:100%;height:100%"><defs><animateTransform repeatCount="indefinite" dur="1s" begin="0s" xlink:href="#_R_G_L_14_G" fill="freeze" attributeName="transform" from="138.3" to="138.3" type="rotate" additive="sum" keyTimes="0;0.5;1" values="138.3;132.3;138.3" keySplines="0.333 0 0.4 1;0.6 0 0.667 1" calcMode="spline"/><animateTransform repeatCount="indefinite" dur="1s" begin="0s" xlink:href="#_R_G_L_14_G" fill="freeze" attributeName="transform" from="17.125 12.5" to="17.125 12.5" type="translate" additive="sum" keyTimes="0;1" values="17.125 12.5;17.125 12.5" keySplines="0 0 1 1" calcMode="spline"/><animateTransform repeatCount="indefinite" dur="1s" begin="0s" xlink:href="#_R_G_L_13_G" fill="freeze" attributeName="transform" from="-20.202" to="-20.202" type="rotate" additive="sum" keyTimes="0;0.0666667;0.5666667;1" values="-20.202;-22;15;-20.202" keySplines="0.167 0.167 0.833 1;0.333 0 0.667 1;0.333 0 0.833 0.833" calcMode="spline"/><animateTransform repeatCount="indefinite" dur="1s" begin="0s" xlink:href="#_R_G_L_13_G" fill="freeze" attributeName="transform" from="-5.17 5.17" to="-5.17 5.17" type="scale" additive="sum" keyTimes="0;1" values="-5.17 5.17;-5.17 5.17" keySplines="0 0 1 1" calcMode="spline"/><animateTransform repeatCount="indefinite" dur="1s" begin="0s" xlink:href="#_R_G_L_13_G" fill="freeze" attributeName="transform" from="-19.625 -20" to="-19.625 -20" type="translate" additive="sum" keyTimes="0;1" values="-19.625 -20;-19.625 -20" keySplines="0 0 1 1" calcMode="spline"/><animateTransform repeatCount="indefinite" dur="1s" begin="0s" xlink:href="#_R_G_L_13_G_N_14_T_0" fill="freeze" attributeName="transform" from="59.9" to="59.9" type="rotate" additive="sum" keyTimes="0;0.5;1" values="59.9;28.9;59.9" keySplines="0.333 0 0.4 1;0.33 0 0.667 1" calcMode="spline"/><animateTransform repeatCount="indefinite" dur="1s" begin="0s" xlink:href="#_R_G_L_13_G_N_14_T_0" fill="freeze" attributeName="transform" from="-0.19341999999999998 0.19341999999999998" to="-0.19341999999999998 0.19341999999999998" type="scale" additive="sum" keyTimes="0;1" values="-0.19341999999999998 0.19341999999999998;-0.19341999999999998 0.19341999999999998" keySplines="0 0 1 1" calcMode="spline"/><animateTransform repeatCount="indefinite" dur="1s" begin="0s" xlink:href="#_R_G_L_13_G_N_14_T_0" fill="freeze" attributeName="transform" from="-101.5 -26.5" to="-101.5 -26.5" type="translate" additive="sum" keyTimes="0;1" values="-101.5 -26.5;-101.5 -26.5" keySplines="0 0 1 1" calcMode="spline"/><animateTransform repeatCount="indefinite" dur="1s" begin="0s" xlink:href="#_R_G_L_13_G_N_14_N_16_T_0" fill="freeze" attributeName="transform" from="138.3" to="138.3" type="rotate" additive="sum" keyTimes="0;0.5;1" values="138.3;132.3;138.3" keySplines="0.333 0 0.4 1;0.6 0 0.667 1" calcMode="spline"/><animateTransform repeatCount="indefinite" dur="1s" begin="0s" xlink:href="#_R_G_L_13_G_N_14_N_16_T_0" fill="freeze" attributeName="transform" from="17.125 12.5" to="17.125 12.5" type="translate" additive="sum" keyTimes="0;1" values="17.125 12.5;17.125 12.5" keySplines="0 0 1 1" calcMode="spline"/><animateTransform repeatCount="indefinite" dur="1s" begin="0s" xlink:href="#_R_G_L_12_G" fill="freeze" attributeName="transform" from="59.9" to="59.9" type="rotate" additive="sum" keyTimes="0;0.5;1" values="59.9;28.9;59.9" keySplines="0.333 0 0.4 1;0.33 0 0.667 1" calcMode="spline"/><animateTransform repeatCount="indefinite" dur="1s" begin="0s" xlink:href="#_R_G_L_12_G" fill="freeze" attributeName="transform" from="-0.19341999999999998 0.19341999999999998" to="-0.19341999999999998 0.19341999999999998" type="scale" additive="sum" keyTimes="0;1" values="-0.19341999999999998 0.19341999999999998;-0.19341999999999998 0.19341999999999998" keySplines="0 0 1 1" calcMode="spline"/><animateTransform repeatCount="indefinite" dur="1s" begin="0s" xlink:href="#_R_G_L_12_G" fill="freeze" attributeName="transform" from="-101.5 -26.5" to="-101.5 -26.5" type="translate" additive="sum" keyTimes="0;1" values="-101.5 -26.5;-101.5 -26.5" keySplines="0 0 1 1" calcMode="spline"/><animateTransform repeatCount="indefinite" dur="1s" begin="0s" xlink:href="#_R_G_L_12_G_N_16_T_0" fill="freeze" attributeName="transform" from="138.3" to="138.3" type="rotate" additive="sum" keyTimes="0;0.5;1" values="138.3;132.3;138.3" keySplines="0.333 0 0.4 1;0.6 0 0.667 1" calcMode="spline"/><animateTransform repeatCount="indefinite" dur="1s" begin="0s" xlink:href="#_R_G_L_12_G_N_16_T_0" fill="freeze" attributeName="transform" from="17.125 12.5" to="17.125 12.5" type="translate" additive="sum" keyTimes="0;1" values="17.125 12.5;17.125 12.5" keySplines="0 0 1 1" calcMode="spline"/><animateTransform repeatCount="indefinite" dur="1s" begin="0s" xlink:href="#_R_G_L_5_G" fill="freeze" attributeName="transform" from="-1.3" to="-1.3" type="rotate" additive="sum" keyTimes="0;0.5;1" values="-1.3;3.7;-1.3" keySplines="0.333 0 0.833 1;0.333 0 0.667 1" calcMode="spline"/><animateTransform repeatCount="indefinite" dur="1s" begin="0s" xlink:href="#_R_G_L_5_G" fill="freeze" attributeName="transform" from="-2.321 20.6" to="-2.321 20.6" type="translate" additive="sum" keyTimes="0;1" values="-2.321 20.6;-2.321 20.6" keySplines="0 0 1 1" calcMode="spline"/><animateTransform repeatCount="indefinite" dur="1s" begin="0s" xlink:href="#_R_G_L_4_G_N_7_T_0" fill="freeze" attributeName="transform" from="-1.3" to="-1.3" type="rotate" additive="sum" keyTimes="0;0.5;1" values="-1.3;3.7;-1.3" keySplines="0.333 0 0.833 1;0.333 0 0.667 1" calcMode="spline"/><animateTransform repeatCount="indefinite" dur="1s" begin="0s" xlink:href="#_R_G_L_4_G_N_7_T_0" fill="freeze" attributeName="transform" from="-2.321 20.6" to="-2.321 20.6" type="translate" additive="sum" keyTimes="0;1" values="-2.321 20.6;-2.321 20.6" keySplines="0 0 1 1" calcMode="spline"/><animateTransform repeatCount="indefinite" dur="1s" begin="0s" xlink:href="#_R_G_L_3_G_N_7_T_0" fill="freeze" attributeName="transform" from="-1.3" to="-1.3" type="rotate" additive="sum" keyTimes="0;0.5;1" values="-1.3;3.7;-1.3" keySplines="0.333 0 0.833 1;0.333 0 0.667 1" calcMode="spline"/><animateTransform repeatCount="indefinite" dur="1s" begin="0s" xlink:href="#_R_G_L_3_G_N_7_T_0" fill="freeze" attributeName="transform" from="-2.321 20.6" to="-2.321 20.6" type="translate" additive="sum" keyTimes="0;1" values="-2.321 20.6;-2.321 20.6" keySplines="0 0 1 1" calcMode="spline"/><animate attributeType="XML" attributeName="opacity" dur="1s" from="0" to="1" xlink:href="#time_group"/></defs><g id="_R_G"><g id="_R_G_L_15_G_N_8_T_0" transform=" translate(341, 365) rotate(5) scale(5.17, 5.17) translate(0, 0)"><g id="_R_G_L_15_G"><path id="_R_G_L_15_G_D_0_P_0" fill="#535353" fill-opacity="1" fill-rule="nonzero" d=" M-1.07 -35.71 C-1.07,-35.71 6.42,-35.71 6.42,-35.71 C6.42,-35.71 6.42,-13.88 6.42,-13.88 C6.42,-13.88 -1.07,-13.88 -1.07,-13.88 C-1.07,-13.88 -1.07,-35.71 -1.07,-35.71z "/></g></g><g id="_R_G_L_14_G_N_8_T_0" transform=" translate(341, 365) rotate(5) scale(5.17, 5.17) translate(0, 0)"><g id="_R_G_L_14_G" transform=" translate(-18.9, -10.597)"><path id="_R_G_L_14_G_D_0_P_0" fill="#000000" fill-opacity="1" fill-rule="nonzero" d=" M-21.61 -14.12 C-21.61,-14.12 -21.61,6.7 -21.61,6.7 C-21.61,6.7 -20.31,7.57 -20.31,7.57 C-20.31,7.57 -18.76,7.57 -18.76,7.57 C-18.76,7.57 -17.55,6.65 -17.55,6.65 C-17.55,6.65 -17.55,-14.17 -17.55,-14.17 C-17.55,-14.17 -21.61,-14.12 -21.61,-14.12z "/><path id="_R_G_L_14_G_D_1_P_0" fill="#8e8e8e" fill-opacity="1" fill-rule="nonzero" d=" M-16.89 -15.58 C-16.89,-15.58 -16.89,5.61 -16.89,5.61 C-16.89,5.61 -22.64,5.61 -22.64,5.61 C-22.64,5.61 -22.64,-15.58 -22.64,-15.58 C-22.64,-15.58 -16.89,-15.58 -16.89,-15.58z "/></g></g><g id="_R_G_L_13_G_N_14_N_16_N_8_T_0" transform=" translate(341, 365) rotate(5) scale(5.17, 5.17) translate(0, 0)"><g id="_R_G_L_13_G_N_14_N_16_T_0" transform=" translate(-18.9, -10.597)"><g id="_R_G_L_13_G_N_14_T_0" transform=" translate(-20.105, 4.992)"><g id="_R_G_L_13_G" transform=" translate(100.8, 103.4)"><path id="_R_G_L_13_G_D_0_P_0" fill="#8e8e8e" fill-opacity="1" fill-rule="nonzero" d=" M22.17 21.96 C22.17,21.96 16.77,21.96 16.77,21.96 C16.77,21.96 16.77,27.92 16.77,27.92 C16.77,27.92 23.77,27.92 23.77,27.92 C23.77,27.92 23.77,23.62 23.77,23.62 C23.77,23.62 22.17,21.96 22.17,21.96z  M23.77 27.92 C23.77,27.92 16.77,27.92 16.77,27.92 C16.77,27.92 16.77,33.17 16.77,33.17 C16.77,33.17 23.77,33.17 23.77,33.17 C23.77,33.17 23.77,27.92 23.77,27.92z  M16.77 21.96 C16.77,21.96 14.67,23.97 14.67,23.97 C14.67,23.97 14.67,30.02 14.67,30.02 C14.67,30.02 16.77,30.02 16.77,30.02 C16.77,30.02 16.77,21.96 16.77,21.96z "/><path id="_R_G_L_13_G_D_1_P_0" stroke="#000000" stroke-linecap="square" stroke-linejoin="square" fill="none" stroke-width="0.624" stroke-opacity="1" d=" M16.42 26.61 C16.42,26.61 16.42,29.76 16.42,29.76  M18.91 28.71 C18.91,28.71 18.91,32.91 18.91,32.91  M21.01 28.71 C21.01,28.71 21.01,32.91 21.01,32.91  M22.76 28.71 C22.76,28.71 22.76,32.91 22.76,32.91 "/><path id="_R_G_L_13_G_D_2_P_0" fill="#535353" fill-opacity="1" fill-rule="nonzero" d=" M17.93 17.77 C17.93,17.77 16.77,18.93 16.77,18.93 C16.77,18.93 16.77,22.14 16.77,22.14 C16.77,22.14 18.09,23.45 18.09,23.45 C18.09,23.45 21.06,23.45 21.06,23.45 C21.06,23.45 22.37,22.14 22.37,22.14 C22.37,22.14 22.37,18.93 22.37,18.93 C22.37,18.93 21.21,17.77 21.21,17.77 C21.21,17.77 17.93,17.77 17.93,17.77z "/></g></g></g></g><g id="_R_G_L_12_G_N_16_N_8_T_0" transform=" translate(341, 365) rotate(5) scale(5.17, 5.17) translate(0, 0)"><g id="_R_G_L_12_G_N_16_T_0" transform=" translate(-18.9, -10.597)"><g id="_R_G_L_12_G" transform=" translate(-20.105, 4.992)"><path id="_R_G_L_12_G_D_0_P_0" fill="#8e8e8e" fill-opacity="1" fill-rule="nonzero" d=" M101 14.63 C101,14.63 86.04,14.5 86.04,14.5 C86.04,14.5 86,14.5 86,14.5 C86,14.5 86,99.5 86,99.5 C86,99.5 115.5,99.5 115.5,99.5 C115.5,99.5 115.5,28 115.5,28 C115.5,28 101,28 101,28 C101,28 101,14.63 101,14.63z "/><path id="_R_G_L_12_G_D_1_P_0" stroke="#000000" stroke-linecap="square" stroke-linejoin="square" fill="none" stroke-width="3" stroke-opacity="1" d=" M86.34 14.75 C86.34,14.75 101.34,14.75 101.34,14.75 C101.34,14.75 101.34,27.75 101.34,27.75 C101.34,27.75 115.09,27.75 115.09,27.75 "/></g></g></g><g id="_R_G_L_11_G_N_12_N_11_T_0" transform=" translate(341, 390.85) scale(5.17, 5.17) translate(0, -5)"><g id="_R_G_L_11_G_N_12_T_0" transform=" translate(-5.604, 12.03) rotate(-17) translate(4.449, -15.087)"><g id="_R_G_L_11_G" transform=" translate(-8.537, 47.331) rotate(6) translate(-13.54, -47.582)"><path id="_R_G_L_11_G_D_0_P_0" fill="#000000" fill-opacity="1" fill-rule="nonzero" d=" M13.71 59.69 C13.71,59.69 3.93,58.18 3.93,58.18 C3.93,58.18 -1.83,50.7 -1.83,50.7 C-1.83,50.7 -0.2,41.64 -0.2,41.64 C-0.2,41.64 7.88,36.31 7.88,36.31 C7.88,36.31 17.66,37.82 17.66,37.82 C17.66,37.82 23.42,45.3 23.42,45.3 C23.42,45.3 21.79,54.36 21.79,54.36 C21.79,54.36 13.71,59.69 13.71,59.69z "/><path id="_R_G_L_11_G_D_1_P_0" fill="#535353" fill-opacity="1" fill-rule="nonzero" d=" M14.64 55.68 C14.64,55.68 9.09,54.68 9.09,54.68 C9.09,54.68 5.83,49.74 5.83,49.74 C5.83,49.74 6.75,43.77 6.75,43.77 C6.75,43.77 11.34,40.25 11.34,40.25 C11.34,40.25 16.89,41.25 16.89,41.25 C16.89,41.25 20.16,46.18 20.16,46.18 C20.16,46.18 19.23,52.16 19.23,52.16 C19.23,52.16 14.64,55.68 14.64,55.68z "/></g></g></g><g id="_R_G_L_10_G_N_11_T_0" transform=" translate(341, 390.85) scale(5.17, 5.17) translate(0, -5)"><g id="_R_G_L_10_G" transform=" translate(-5.604, 12.03) rotate(-17) translate(4.449, -15.087)"><path id="_R_G_L_10_G_D_0_P_0" fill="#8e8e8e" fill-opacity="1" fill-rule="nonzero" d=" M-9.98 11.57 C-9.98,11.57 -6.71,11.42 -6.71,11.42 C-6.71,11.42 -0.48,12.23 -0.48,12.23 C-0.48,12.23 -3.43,48.68 -3.43,48.68 C-3.43,48.68 -5.61,51.96 -5.61,51.96 C-5.61,51.96 -10.6,51.96 -10.6,51.96 C-10.6,51.96 -13.1,49.15 -13.1,49.15 C-13.1,49.15 -9.98,11.57 -9.98,11.57z "/><path id="_R_G_L_10_G_D_1_P_0" stroke="#000000" stroke-linecap="square" stroke-linejoin="square" fill="none" stroke-width="0.624" stroke-opacity="1" d=" M-7.51 20.02 C-7.51,20.02 -8.74,34.19 -8.74,34.19  M-7.51 51.33 C-7.51,51.33 -9.98,48.37 -9.98,48.37 C-9.98,48.37 -8.74,34.19 -8.74,34.19  M-8.74 34.19 C-8.74,34.19 -11.38,34.19 -11.38,34.19 "/></g></g><g id="_R_G_L_9_G" transform=" translate(341, 390.85) scale(5.17, 5.17) translate(0, -5)"><path id="_R_G_L_9_G_D_0_P_0" fill="#535353" fill-opacity="1" fill-rule="nonzero" d=" M0.49 -4.37 C0.49,-4.37 5.81,-2.64 5.81,-2.64 C5.81,-2.64 9.09,1.88 9.09,1.88 C9.09,1.88 9.17,15.69 9.17,15.69 C9.17,15.69 5.85,18.77 5.85,18.77 C5.85,18.77 -4.79,18.77 -4.79,18.77 C-4.79,18.77 -8.03,15.69 -8.03,15.69 C-8.03,15.69 -8.11,1.88 -8.11,1.88 C-8.11,1.88 -4.82,-2.64 -4.82,-2.64 C-4.82,-2.64 0.49,-4.37 0.49,-4.37z "/></g><g id="_R_G_L_8_G_N_11_T_0" transform=" translate(341, 390.85) scale(5.17, 5.17) translate(0, -5)"><g id="_R_G_L_8_G" transform=" translate(7.834, 14.932) rotate(-17) translate(-7.834, -15.861)"><path id="_R_G_L_8_G_D_0_P_0" fill="#8e8e8e" fill-opacity="1" fill-rule="nonzero" d=" M3.12 11.57 C3.12,11.57 6.52,11.43 6.52,11.43 C6.52,11.43 12.91,12.17 12.91,12.17 C12.91,12.17 9.67,48.68 9.67,48.68 C9.67,48.68 7.49,51.96 7.49,51.96 C7.49,51.96 2.5,51.96 2.5,51.96 C2.5,51.96 0,49.15 0,49.15 C0,49.15 3.12,11.57 3.12,11.57z "/><path id="_R_G_L_8_G_D_1_P_0" stroke="#000000" stroke-linecap="square" stroke-linejoin="square" fill="none" stroke-width="0.624" stroke-opacity="1" d=" M6.24 12.35 C6.24,12.35 5.46,21.35 5.46,21.35  M5.59 51.33 C5.59,51.33 3.12,48.37 3.12,48.37 C3.12,48.37 4.68,30.36 4.68,30.36 C4.68,30.36 5.46,21.35 5.46,21.35  M5.46 21.35 C5.46,21.35 2.5,21.35 2.5,21.35 "/></g></g><g id="_R_G_L_7_G_N_10_N_11_T_0" transform=" translate(341, 390.85) scale(5.17, 5.17) translate(0, -5)"><g id="_R_G_L_7_G_N_10_T_0" transform=" translate(7.834, 14.932) rotate(-17) translate(-7.834, -15.861)"><g id="_R_G_L_7_G" transform=" translate(9.631, 48.041) rotate(7) translate(-13.54, -47.582)"><path id="_R_G_L_7_G_D_0_P_0" fill="#000000" fill-opacity="1" fill-rule="nonzero" d=" M13.71 59.69 C13.71,59.69 3.93,58.18 3.93,58.18 C3.93,58.18 -1.83,50.7 -1.83,50.7 C-1.83,50.7 -0.2,41.64 -0.2,41.64 C-0.2,41.64 7.88,36.31 7.88,36.31 C7.88,36.31 17.66,37.82 17.66,37.82 C17.66,37.82 23.42,45.3 23.42,45.3 C23.42,45.3 21.79,54.36 21.79,54.36 C21.79,54.36 13.71,59.69 13.71,59.69z "/><path id="_R_G_L_7_G_D_1_P_0" fill="#535353" fill-opacity="1" fill-rule="nonzero" d=" M14.64 55.68 C14.64,55.68 9.09,54.68 9.09,54.68 C9.09,54.68 5.83,49.74 5.83,49.74 C5.83,49.74 6.75,43.77 6.75,43.77 C6.75,43.77 11.34,40.25 11.34,40.25 C11.34,40.25 16.89,41.25 16.89,41.25 C16.89,41.25 20.16,46.18 20.16,46.18 C20.16,46.18 19.23,52.16 19.23,52.16 C19.23,52.16 14.64,55.68 14.64,55.68z "/><path id="_R_G_L_7_G_D_2_P_0" stroke="#000000" stroke-linecap="square" stroke-linejoin="square" fill="none" stroke-width="0.624" stroke-opacity="1" d=" M14.62 53.26 C14.62,53.26 10.79,52.57 10.79,52.57 C10.79,52.57 8.53,49.17 8.53,49.17 C8.53,49.17 9.17,45.04 9.17,45.04 C9.17,45.04 12.34,42.62 12.34,42.62 C12.34,42.62 16.17,43.31 16.17,43.31 C16.17,43.31 18.42,46.71 18.42,46.71 C18.42,46.71 17.78,50.84 17.78,50.84 C17.78,50.84 14.62,53.26 14.62,53.26z "/></g></g></g><g id="_R_G_L_6_G" transform=" translate(341, 365) rotate(5) scale(5.17, 5.17) translate(0, 0)"><path id="_R_G_L_6_G_D_0_P_0" fill="#535353" fill-opacity="1" fill-rule="nonzero" d=" M-17.8 -16.54 C-17.8,-16.54 -19.32,-15.02 -19.32,-15.02 C-19.32,-15.02 -19.32,-9.43 -19.32,-9.43 C-19.32,-9.43 -17.6,-7.71 -17.6,-7.71 C-17.6,-7.71 -11.98,-7.71 -11.98,-7.71 C-11.98,-7.71 -10.26,-9.43 -10.26,-9.43 C-10.26,-9.43 -10.26,-15.02 -10.26,-15.02 C-10.26,-15.02 -11.77,-16.54 -11.77,-16.54 C-11.77,-16.54 -17.8,-16.54 -17.8,-16.54z "/><path id="_R_G_L_6_G_D_1_P_0" fill="#8e8e8e" fill-opacity="1" fill-rule="nonzero" d=" M-2.31 -2.68 C-2.31,-2.68 13.59,-2.68 13.59,-2.68 C13.59,-2.68 13.59,6.68 13.59,6.68 C13.59,6.68 0.8,6.68 0.8,6.68 C0.8,6.68 -2.31,-2.68 -2.31,-2.68z "/><path id="_R_G_L_6_G_D_2_P_0" fill="#8e8e8e" fill-opacity="1" fill-rule="nonzero" d=" M-6.68 -2.68 C-6.68,-2.68 -14.17,-2.68 -14.17,-2.68 C-14.17,-2.68 -11.05,6.68 -11.05,6.68 C-11.05,6.68 -6.68,6.68 -6.68,6.68 C-6.68,6.68 -6.68,-2.68 -6.68,-2.68z "/><path id="_R_G_L_6_G_D_3_P_0" fill="#8e8e8e" fill-opacity="1" fill-rule="nonzero" d=" M-15.47 -18.99 C-15.47,-18.99 13.58,-18.99 13.58,-18.99 C13.58,-18.99 13.58,3.66 13.58,3.66 C13.58,3.66 -12.02,3.7 -12.02,3.7 C-12.02,3.7 -15.47,-5.8 -15.47,-5.8 C-15.47,-5.8 -15.47,-18.99 -15.47,-18.99z "/><path id="_R_G_L_6_G_D_4_P_0" fill="#ffffff" fill-opacity="1" fill-rule="nonzero" d=" M-4.19 -15.44 C-4.19,-15.44 -0.53,-13.68 -0.53,-13.68 C-0.53,-13.68 0.38,-9.72 0.38,-9.72 C0.38,-9.72 -2.16,-6.55 -2.16,-6.55 C-2.16,-6.55 -6.22,-6.55 -6.22,-6.55 C-6.22,-6.55 -8.75,-9.72 -8.75,-9.72 C-8.75,-9.72 -7.84,-13.68 -7.84,-13.68 C-7.84,-13.68 -4.19,-15.44 -4.19,-15.44z "/><path id="_R_G_L_6_G_D_5_P_0" fill="#000000" fill-opacity="1" fill-rule="nonzero" d=" M-6.74 -11.2 C-6.74,-11.2 -4.19,-13.25 -4.19,-13.25 C-4.19,-13.25 -3.58,-12.49 -3.58,-12.49 C-3.58,-12.49 -5.25,-11.14 -5.25,-11.14 C-5.25,-11.14 -4.88,-10.69 -4.88,-10.69 C-4.88,-10.69 -3.24,-12.01 -3.24,-12.01 C-3.24,-12.01 -2.63,-11.25 -2.63,-11.25 C-2.63,-11.25 -4.27,-9.93 -4.27,-9.93 C-4.27,-9.93 -3.92,-9.49 -3.92,-9.49 C-3.92,-9.49 -2.19,-10.9 -2.19,-10.9 C-2.19,-10.9 -1.58,-10.14 -1.58,-10.14 C-1.58,-10.14 -4.19,-8.03 -4.19,-8.03 C-4.19,-8.03 -6.74,-11.2 -6.74,-11.2z "/><path id="_R_G_L_6_G_D_6_P_0" stroke="#000000" stroke-linecap="square" stroke-linejoin="square" fill="none" stroke-width="0.624" stroke-opacity="1" d=" M3.43 -18.99 C3.43,-18.99 3.48,-5.84 3.48,-5.84  M3.48 -5.84 C3.48,-5.84 7.11,2.39 7.11,2.39  M3.48 -5.84 C3.48,-5.84 -14.1,-5.84 -14.1,-5.84 "/><path id="_R_G_L_6_G_D_7_P_0" fill="#535353" fill-opacity="1" fill-rule="nonzero" d=" M11.6 -16.54 C11.6,-16.54 10.08,-15.02 10.08,-15.02 C10.08,-15.02 10.08,-9.43 10.08,-9.43 C10.08,-9.43 11.8,-7.71 11.8,-7.71 C11.8,-7.71 17.43,-7.71 17.43,-7.71 C17.43,-7.71 19.15,-9.43 19.15,-9.43 C19.15,-9.43 19.15,-15.02 19.15,-15.02 C19.15,-15.02 17.63,-16.54 17.63,-16.54 C17.63,-16.54 11.6,-16.54 11.6,-16.54z "/></g><g id="_R_G_L_5_G_N_17_N_8_T_0" transform=" translate(341, 365) rotate(5) scale(5.17, 5.17) translate(0, 0)"><g id="_R_G_L_5_G_N_17_T_0"><g id="_R_G_L_5_G" transform=" translate(2.321, -23.501)"><path id="_R_G_L_5_G_D_0_P_0" fill="#8e8e8e" fill-opacity="1" fill-rule="nonzero" d=" M-11.6 -41.02 C-11.6,-41.02 -5.36,-47.26 -5.36,-47.26 C-5.36,-47.26 6.49,-47.26 6.49,-47.26 C6.49,-47.26 12.73,-41.02 12.73,-41.02 C12.73,-41.02 12.73,-22.43 12.73,-22.43 C12.73,-22.43 -11.6,-22.43 -11.6,-22.43 C-11.6,-22.43 -11.6,-41.02 -11.6,-41.02z "/><path id="_R_G_L_5_G_D_1_P_0" fill="#000000" fill-opacity="1" fill-rule="nonzero" d=" M-11.62 -22.45 C-11.62,-22.45 -11.64,-20.05 -11.64,-20.05 C-11.64,-20.05 10.22,-20.05 10.22,-20.05 C10.22,-20.05 12.7,-22.45 12.7,-22.45 C12.7,-22.45 12.73,-22.43 12.73,-22.43 C12.73,-22.43 -11.6,-22.43 -11.6,-22.43 C-11.6,-22.43 -11.62,-22.45 -11.62,-22.45z "/><path id="_R_G_L_5_G_D_2_P_0" fill="#535353" fill-opacity="1" fill-rule="nonzero" d=" M-1.87 -48.83 C-1.87,-48.83 3.12,-48.83 3.12,-48.83 C3.12,-48.83 3.12,-47.26 3.12,-47.26 C3.12,-47.26 -1.87,-47.26 -1.87,-47.26 C-1.87,-47.26 -1.87,-48.83 -1.87,-48.83z "/><path id="_R_G_L_5_G_D_3_P_0" stroke="#535353" stroke-linecap="square" stroke-linejoin="square" fill="none" stroke-width="1.248" stroke-opacity="1" d=" M0.63 -48.2 C0.63,-48.2 0.63,-55.14 0.63,-55.14 "/><path id="_R_G_L_5_G_D_4_P_0" fill="#e1503c" fill-opacity="1" fill-rule="nonzero" d=" M-0.93 -58.29 C-0.93,-58.29 2.19,-58.29 2.19,-58.29 C2.19,-58.29 2.19,-55.14 2.19,-55.14 C2.19,-55.14 -0.93,-55.14 -0.93,-55.14 C-0.93,-55.14 -0.93,-58.29 -0.93,-58.29z "/><path id="_R_G_L_5_G_D_5_P_0" fill="#535353" fill-opacity="1" fill-rule="nonzero" d=" M-15.03 -39.58 C-15.03,-39.58 7.42,-39.58 7.42,-39.58 C7.42,-39.58 7.42,-27.42 7.42,-27.42 C7.42,-27.42 -15.03,-27.42 -15.03,-27.42 C-15.03,-27.42 -15.03,-39.58 -15.03,-39.58z "/><path id="_R_G_L_5_G_D_6_P_0" fill="#000000" fill-opacity="1" fill-rule="nonzero" d=" M-13.47 -37.71 C-13.47,-37.71 2.75,-37.71 2.75,-37.71 C2.75,-37.71 2.75,-29.91 2.75,-29.91 C2.75,-29.91 -13.47,-29.91 -13.47,-29.91 C-13.47,-29.91 -13.47,-37.71 -13.47,-37.71z "/></g></g></g><g id="_R_G_L_4_G_N_7_N_17_N_8_T_0" transform=" translate(341, 365) rotate(5) scale(5.17, 5.17) translate(0, 0)"><g id="_R_G_L_4_G_N_7_N_17_T_0"><g id="_R_G_L_4_G_N_7_T_0" transform=" translate(2.321, -23.501)"><g id="_R_G_L_4_G"><path id="_R_G_L_4_G_D_0_P_0" fill="#eea71f" fill-opacity="1" fill-rule="nonzero" d=" M-9.73 -32.1 C-9.73,-32.1 -9.73,-35.53 -9.73,-35.53 C-9.73,-35.53 -8.48,-35.53 -8.48,-35.53 C-8.48,-35.53 -8.48,-32.1 -8.48,-32.1 C-8.48,-32.1 -9.73,-32.1 -9.73,-32.1z "/><path id="_R_G_L_4_G_D_1_P_0" fill="#eea71f" fill-opacity="1" fill-rule="nonzero" d=" M-2.87 -32.1 C-2.87,-32.1 -2.87,-35.53 -2.87,-35.53 C-2.87,-35.53 -1.62,-35.53 -1.62,-35.53 C-1.62,-35.53 -1.62,-32.1 -1.62,-32.1 C-1.62,-32.1 -2.87,-32.1 -2.87,-32.1z "/></g></g></g></g><g id="_R_G_L_3_G_N_7_N_17_N_8_T_0" transform=" translate(341, 365) rotate(5) scale(5.17, 5.17) translate(0, 0)"><g id="_R_G_L_3_G_N_7_N_17_T_0"><g id="_R_G_L_3_G_N_7_T_0" transform=" translate(2.321, -23.501)"><g id="_R_G_L_3_G"><path id="_R_G_L_3_G_D_0_P_0" fill="#8e8e8e" fill-opacity="1" fill-rule="nonzero" d=" M-13.78 -24.61 C-13.78,-24.61 6.58,-24.61 6.58,-24.61 C6.58,-24.61 8.35,-24.61 8.35,-24.61 C8.35,-24.61 10.54,-26.79 10.54,-26.79 C10.54,-26.79 12.73,-26.79 12.73,-26.79 C12.73,-26.79 12.73,-22.43 12.73,-22.43 C12.73,-22.43 10.86,-19.31 10.86,-19.31 C10.86,-19.31 -13.78,-19.31 -13.78,-19.31 C-13.78,-19.31 -13.78,-24.61 -13.78,-24.61z "/><path id="_R_G_L_3_G_D_1_P_0" stroke="#000000" stroke-linecap="square" stroke-linejoin="square" fill="none" stroke-width="0.624" stroke-opacity="1" d=" M-10.98 -24.77 C-10.98,-24.77 8.52,-24.77 8.52,-24.77 C8.52,-24.77 10.54,-26.79 10.54,-26.79 C10.54,-26.79 12.57,-26.79 12.57,-26.79 "/><path id="_R_G_L_3_G_D_2_P_0" fill="#000000" fill-opacity="1" fill-rule="nonzero" d=" M10.85 -24.61 C10.85,-24.61 11.79,-24.61 11.79,-24.61 C11.79,-24.61 11.79,-23.68 11.79,-23.68 C11.79,-23.68 10.85,-23.68 10.85,-23.68 C10.85,-23.68 10.85,-24.61 10.85,-24.61z "/></g></g></g></g><g id="_R_G_L_2_G_N_8_T_0" transform=" translate(341, 365) rotate(5) scale(5.17, 5.17) translate(0, 0)"><g id="_R_G_L_2_G" transform=" translate(15.464, -9.35) rotate(-48.7) scale(-1, 1) translate(17.125, 12.5)"><path id="_R_G_L_2_G_D_0_P_0" fill="#000000" fill-opacity="1" fill-rule="nonzero" d=" M-21.61 -14.12 C-21.61,-14.12 -21.61,6.7 -21.61,6.7 C-21.61,6.7 -20.31,7.57 -20.31,7.57 C-20.31,7.57 -18.76,7.57 -18.76,7.57 C-18.76,7.57 -17.55,6.65 -17.55,6.65 C-17.55,6.65 -17.55,-14.17 -17.55,-14.17 C-17.55,-14.17 -21.61,-14.12 -21.61,-14.12z "/><path id="_R_G_L_2_G_D_1_P_0" fill="#8e8e8e" fill-opacity="1" fill-rule="nonzero" d=" M-16.89 -15.58 C-16.89,-15.58 -16.89,5.61 -16.89,5.61 C-16.89,5.61 -22.64,5.61 -22.64,5.61 C-22.64,5.61 -22.64,-15.58 -22.64,-15.58 C-22.64,-15.58 -16.89,-15.58 -16.89,-15.58z "/></g></g><g id="_R_G_L_1_G_N_2_N_4_N_8_T_0" transform=" translate(341, 365) rotate(5) scale(5.17, 5.17) translate(0, 0)"><g id="_R_G_L_1_G_N_2_N_4_T_0" transform=" translate(15.464, -9.35) rotate(-48.7) scale(-1, 1) translate(17.125, 12.5)"><g id="_R_G_L_1_G_N_2_T_0" transform=" translate(-20.218, 5.065) rotate(-99.7) scale(0.19341999999999998, 0.19341999999999998) translate(-101.5, -26.5)"><g id="_R_G_L_1_G" transform=" translate(100.8, 103.4) rotate(22) scale(-5.17, 5.17) translate(-19.625, -20)"><path id="_R_G_L_1_G_D_0_P_0" fill="#8e8e8e" fill-opacity="1" fill-rule="nonzero" d=" M22.17 21.96 C22.17,21.96 16.77,21.96 16.77,21.96 C16.77,21.96 16.77,27.92 16.77,27.92 C16.77,27.92 23.77,27.92 23.77,27.92 C23.77,27.92 23.77,23.62 23.77,23.62 C23.77,23.62 22.17,21.96 22.17,21.96z  M23.77 27.92 C23.77,27.92 16.77,27.92 16.77,27.92 C16.77,27.92 16.77,33.17 16.77,33.17 C16.77,33.17 23.77,33.17 23.77,33.17 C23.77,33.17 23.77,27.92 23.77,27.92z  M16.77 21.96 C16.77,21.96 14.67,23.97 14.67,23.97 C14.67,23.97 14.67,30.02 14.67,30.02 C14.67,30.02 16.77,30.02 16.77,30.02 C16.77,30.02 16.77,21.96 16.77,21.96z "/><path id="_R_G_L_1_G_D_1_P_0" stroke="#000000" stroke-linecap="square" stroke-linejoin="square" fill="none" stroke-width="0.624" stroke-opacity="1" d=" M16.42 26.61 C16.42,26.61 16.42,29.76 16.42,29.76  M18.91 28.71 C18.91,28.71 18.91,32.91 18.91,32.91  M21.01 28.71 C21.01,28.71 21.01,32.91 21.01,32.91  M22.76 28.71 C22.76,28.71 22.76,32.91 22.76,32.91 "/><path id="_R_G_L_1_G_D_2_P_0" fill="#535353" fill-opacity="1" fill-rule="nonzero" d=" M17.93 17.77 C17.93,17.77 16.77,18.93 16.77,18.93 C16.77,18.93 16.77,22.14 16.77,22.14 C16.77,22.14 18.09,23.45 18.09,23.45 C18.09,23.45 21.06,23.45 21.06,23.45 C21.06,23.45 22.37,22.14 22.37,22.14 C22.37,22.14 22.37,18.93 22.37,18.93 C22.37,18.93 21.21,17.77 21.21,17.77 C21.21,17.77 17.93,17.77 17.93,17.77z "/></g></g></g></g><g id="_R_G_L_0_G_N_4_N_8_T_0" transform=" translate(341, 365) rotate(5) scale(5.17, 5.17) translate(0, 0)"><g id="_R_G_L_0_G_N_4_T_0" transform=" translate(15.464, -9.35) rotate(-48.7) scale(-1, 1) translate(17.125, 12.5)"><g id="_R_G_L_0_G" transform=" translate(-20.218, 5.065) rotate(-99.7) scale(0.19341999999999998, 0.19341999999999998) translate(-101.5, -26.5)"><path id="_R_G_L_0_G_D_0_P_0" fill="#8e8e8e" fill-opacity="1" fill-rule="nonzero" d=" M101 14.63 C101,14.63 86.04,14.5 86.04,14.5 C86.04,14.5 86,14.5 86,14.5 C86,14.5 86,99.5 86,99.5 C86,99.5 115.5,99.5 115.5,99.5 C115.5,99.5 115.5,28 115.5,28 C115.5,28 101,28 101,28 C101,28 101,14.63 101,14.63z "/><path id="_R_G_L_0_G_D_1_P_0" stroke="#000000" stroke-linecap="square" stroke-linejoin="square" fill="none" stroke-width="3" stroke-opacity="1" d=" M86.34 14.75 C86.34,14.75 101.34,14.75 101.34,14.75 C101.34,14.75 101.34,27.75 101.34,27.75 C101.34,27.75 115.09,27.75 115.09,27.75 "/></g></g></g></g><g id="time_group"/></svg>