<svg xmlns="http://www.w3.org/2000/svg" xmlns:xlink="http://www.w3.org/1999/xlink" preserveAspectRatio="xMidYMid meet" width="680" height="680" viewBox="0 0 680 680" style="width:100%;height:100%"><defs><animate repeatCount="indefinite" dur="3.6833333s" begin="0s" xlink:href="#_R_G_L_10_G_D_0_P_0" fill="freeze" attributeName="d" attributeType="XML" from="M-14.86 -0.76 C-14.86,-0.76 -14.86,-29.6 -14.86,-29.6 C-14.86,-29.6 -12.84,-31.47 -12.84,-31.47 C-12.84,-31.47 -11.12,-31.47 -11.12,-31.47 C-11.12,-31.47 -9.25,-29.6 -9.25,-29.6 C-9.25,-29.6 -9.25,3 -9.25,3 C-9.25,3 -9.03,4.93 -9.03,4.93 C-9.03,4.93 -15.13,4.67 -15.13,4.67 C-15.13,4.67 -14.86,-0.76 -14.86,-0.76z " to="M-14.86 -0.76 C-14.86,-0.76 -14.86,-29.6 -14.86,-29.6 C-14.86,-29.6 -12.84,-31.47 -12.84,-31.47 C-12.84,-31.47 -11.12,-31.47 -11.12,-31.47 C-11.12,-31.47 -9.25,-29.6 -9.25,-29.6 C-9.25,-29.6 -9.25,3 -9.25,3 C-9.25,3 -9.03,4.93 -9.03,4.93 C-9.03,4.93 -15.13,4.67 -15.13,4.67 C-15.13,4.67 -14.86,-0.76 -14.86,-0.76z " keyTimes="0;0.1266968;0.5067873;0.5972851;1" values="M-14.86 -0.76 C-14.86,-0.76 -14.86,-29.6 -14.86,-29.6 C-14.86,-29.6 -12.84,-31.47 -12.84,-31.47 C-12.84,-31.47 -11.12,-31.47 -11.12,-31.47 C-11.12,-31.47 -9.25,-29.6 -9.25,-29.6 C-9.25,-29.6 -9.25,3 -9.25,3 C-9.25,3 -9.03,4.93 -9.03,4.93 C-9.03,4.93 -15.13,4.67 -15.13,4.67 C-15.13,4.67 -14.86,-0.76 -14.86,-0.76z ;M-14.86 -0.76 C-14.86,-0.76 -14.86,-29.6 -14.86,-29.6 C-14.86,-29.6 -12.84,-31.47 -12.84,-31.47 C-12.84,-31.47 -11.12,-31.47 -11.12,-31.47 C-11.12,-31.47 -11.09,-29.6 -11.09,-29.6 C-11.09,-29.6 -11.09,3 -11.09,3 C-11.09,3 -10.87,4.94 -10.87,4.94 C-10.87,4.94 -15.13,4.67 -15.13,4.67 C-15.13,4.67 -14.86,-0.76 -14.86,-0.76z ;M-14.86 -0.76 C-14.86,-0.76 -14.86,-29.6 -14.86,-29.6 C-14.86,-29.6 -12.84,-31.47 -12.84,-31.47 C-12.84,-31.47 -11.12,-31.47 -11.12,-31.47 C-11.12,-31.47 -11.09,-29.6 -11.09,-29.6 C-11.09,-29.6 -11.09,3 -11.09,3 C-11.09,3 -10.87,4.94 -10.87,4.94 C-10.87,4.94 -15.13,4.67 -15.13,4.67 C-15.13,4.67 -14.86,-0.76 -14.86,-0.76z ;M-14.86 -0.76 C-14.86,-0.76 -14.86,-29.6 -14.86,-29.6 C-14.86,-29.6 -12.84,-31.47 -12.84,-31.47 C-12.84,-31.47 -11.12,-31.47 -11.12,-31.47 C-11.12,-31.47 -9.25,-29.6 -9.25,-29.6 C-9.25,-29.6 -9.25,3 -9.25,3 C-9.25,3 -9.03,4.93 -9.03,4.93 C-9.03,4.93 -15.13,4.67 -15.13,4.67 C-15.13,4.67 -14.86,-0.76 -14.86,-0.76z ;M-14.86 -0.76 C-14.86,-0.76 -14.86,-29.6 -14.86,-29.6 C-14.86,-29.6 -12.84,-31.47 -12.84,-31.47 C-12.84,-31.47 -11.12,-31.47 -11.12,-31.47 C-11.12,-31.47 -9.25,-29.6 -9.25,-29.6 C-9.25,-29.6 -9.25,3 -9.25,3 C-9.25,3 -9.03,4.93 -9.03,4.93 C-9.03,4.93 -15.13,4.67 -15.13,4.67 C-15.13,4.67 -14.86,-0.76 -14.86,-0.76z " keySplines="0.6 0 0.4 1;0.6 0 0.4 1;0.6 0 0.4 1;0 0 0 0" calcMode="spline"/><animate repeatCount="indefinite" dur="3.6833333s" begin="0s" xlink:href="#_R_G_L_10_G_D_1_P_0" fill="freeze" attributeName="d" attributeType="XML" from="M-13.39 -16.39 C-13.39,-16.39 -13.39,-3.13 -13.39,-3.13 " to="M-13.39 -16.39 C-13.39,-16.39 -13.39,-3.13 -13.39,-3.13 " keyTimes="0;0.1266968;0.5067873;0.5972851;1" values="M-13.39 -16.39 C-13.39,-16.39 -13.39,-3.13 -13.39,-3.13 ;M-12.52 -16.43 C-12.52,-16.43 -12.52,-3.18 -12.52,-3.18 ;M-12.52 -16.43 C-12.52,-16.43 -12.52,-3.18 -12.52,-3.18 ;M-13.39 -16.39 C-13.39,-16.39 -13.39,-3.13 -13.39,-3.13 ;M-13.39 -16.39 C-13.39,-16.39 -13.39,-3.13 -13.39,-3.13 " keySplines="0.6 0 0.4 1;0.6 0 0.4 1;0.6 0 0.4 1;0 0 0 0" calcMode="spline"/><animateMotion repeatCount="indefinite" dur="3.6833333s" begin="0s" xlink:href="#_R_G_L_10_G" fill="freeze" keyTimes="0;0.1266968;0.5067873;0.5972851;1" path="M-10.83 -0.19 C-11.54,-0.19 -14.38,-0.19 -15.09,-0.19 C-15.09,-0.19 -15.09,-0.19 -15.09,-0.19 C-14.38,-0.19 -11.54,-0.19 -10.83,-0.19 C-10.83,-0.19 -10.83,-0.19 -10.83,-0.19 " keyPoints="0;0.5;0.5;1;1" keySplines="0.6 0 0.4 1;0.6 0.6 0.4 0.4;0.6 0 0.4 1;0 0 0 0" calcMode="spline"/><animateTransform repeatCount="indefinite" dur="3.6833333s" begin="0s" xlink:href="#_R_G_L_10_G" fill="freeze" attributeName="transform" from="10.832 0" to="10.832 0" type="translate" additive="sum" keyTimes="0;1" values="10.832 0;10.832 0" keySplines="0 0 1 1" calcMode="spline"/><animate repeatCount="indefinite" dur="3.6833333s" begin="0s" xlink:href="#_R_G_L_9_G_D_0_P_0" fill="freeze" attributeName="d" attributeType="XML" from="M3.92 -15.14 C3.92,-15.14 3.92,0.76 3.92,0.76 " to="M3.92 -15.14 C3.92,-15.14 3.92,0.76 3.92,0.76 " keyTimes="0;0.1266968;0.5067873;0.5972851;1" values="M3.92 -15.14 C3.92,-15.14 3.92,0.76 3.92,0.76 ;M-0.04 -15.12 C-0.04,-15.12 -0.04,0.79 -0.04,0.79 ;M-0.04 -15.12 C-0.04,-15.12 -0.04,0.79 -0.04,0.79 ;M3.92 -15.14 C3.92,-15.14 3.92,0.76 3.92,0.76 ;M3.92 -15.14 C3.92,-15.14 3.92,0.76 3.92,0.76 " keySplines="0.6 0 0.4 1;0.6 0 0.4 1;0.6 0 0.4 1;0 0 0 0" calcMode="spline"/><animate repeatCount="indefinite" dur="3.6833333s" begin="0s" xlink:href="#_R_G_L_9_G_D_1_P_0" fill="freeze" attributeName="d" attributeType="XML" from="M-0.13 -12.96 C-0.13,-12.96 -0.13,-9.95 -0.13,-9.95 C-0.13,-9.95 -5.75,-8.47 -5.75,-8.47 C-5.75,-8.47 -5.75,0.61 -5.75,0.61 " to="M-0.13 -12.96 C-0.13,-12.96 -0.13,-9.95 -0.13,-9.95 C-0.13,-9.95 -5.75,-8.47 -5.75,-8.47 C-5.75,-8.47 -5.75,0.61 -5.75,0.61 " keyTimes="0;0.1266968;0.5067873;0.5972851;1" values="M-0.13 -12.96 C-0.13,-12.96 -0.13,-9.95 -0.13,-9.95 C-0.13,-9.95 -5.75,-8.47 -5.75,-8.47 C-5.75,-8.47 -5.75,0.61 -5.75,0.61 ;M0.64 -12.96 C0.64,-12.96 0.64,-9.95 0.64,-9.95 C0.64,-9.95 -0.33,-8.1 -0.33,-8.1 C-0.33,-8.1 -0.33,0.97 -0.33,0.97 ;M0.64 -12.96 C0.64,-12.96 0.64,-9.95 0.64,-9.95 C0.64,-9.95 -0.33,-8.1 -0.33,-8.1 C-0.33,-8.1 -0.33,0.97 -0.33,0.97 ;M-0.13 -12.96 C-0.13,-12.96 -0.13,-9.95 -0.13,-9.95 C-0.13,-9.95 -5.75,-8.47 -5.75,-8.47 C-5.75,-8.47 -5.75,0.61 -5.75,0.61 ;M-0.13 -12.96 C-0.13,-12.96 -0.13,-9.95 -0.13,-9.95 C-0.13,-9.95 -5.75,-8.47 -5.75,-8.47 C-5.75,-8.47 -5.75,0.61 -5.75,0.61 " keySplines="0.6 0 0.4 1;0.6 0 0.4 1;0.6 0 0.4 1;0 0 0 0" calcMode="spline"/><animateMotion repeatCount="indefinite" dur="3.6833333s" begin="0s" xlink:href="#_R_G_L_7_G_N_1_T_0" fill="freeze" keyTimes="0;0.1266968;0.5067873;0.5972851;1" path="M-4.06 -24.76 C-2.99,-24.76 1.32,-24.76 2.39,-24.76 C2.39,-24.76 2.39,-24.76 2.39,-24.76 C1.32,-24.76 -2.99,-24.76 -4.06,-24.76 C-4.06,-24.76 -4.06,-24.76 -4.06,-24.76 " keyPoints="0;0.5;0.5;1;1" keySplines="0.6 0 0.4 1;0.6 0.6 0.4 0.4;0.6 0 0.4 1;0 0 0 0" calcMode="spline"/><animateTransform repeatCount="indefinite" dur="3.6833333s" begin="0s" xlink:href="#_R_G_L_7_G_N_1_T_0" fill="freeze" attributeName="transform" from="0.19341999999999998 0.19341999999999998" to="0.19341999999999998 0.19341999999999998" type="scale" additive="sum" keyTimes="0;1" values="0.19341999999999998 0.19341999999999998;0.19341999999999998 0.19341999999999998" keySplines="0 0 1 1" calcMode="spline"/><animateTransform repeatCount="indefinite" dur="3.6833333s" begin="0s" xlink:href="#_R_G_L_7_G_N_1_T_0" fill="freeze" attributeName="transform" from="20 56" to="20 56" type="translate" additive="sum" keyTimes="0;1" values="20 56;20 56" keySplines="0 0 1 1" calcMode="spline"/><animate repeatCount="indefinite" dur="3.6833333s" begin="0s" xlink:href="#_R_G_L_6_G_D_0_P_0" fill="freeze" attributeName="d" attributeType="XML" from="M-11.09 -27.34 C-11.09,-27.34 -6.14,-27.34 -6.14,-27.34 C-6.14,-27.34 -1.03,-27.34 -1.03,-27.34 " to="M-11.09 -27.34 C-11.09,-27.34 -6.14,-27.34 -6.14,-27.34 C-6.14,-27.34 -1.03,-27.34 -1.03,-27.34 " keyTimes="0;0.0588235;0.0588235;0.5429864;0.5429864;1" values="M-11.09 -27.34 C-11.09,-27.34 -6.14,-27.34 -6.14,-27.34 C-6.14,-27.34 -1.03,-27.34 -1.03,-27.34 ;M-11.09 -27.34 C-11.09,-27.34 -6.14,-27.34 -6.14,-27.34 C-6.14,-27.34 -1.03,-27.34 -1.03,-27.34 ;M-11.13 -27.03 C-11.13,-27.03 -5.91,-30.56 -5.91,-30.56 C-5.91,-30.56 -1.08,-27.03 -1.08,-27.03 ;M-11.13 -27.03 C-11.13,-27.03 -5.91,-30.56 -5.91,-30.56 C-5.91,-30.56 -1.08,-27.03 -1.08,-27.03 ;M-11.09 -27.34 C-11.09,-27.34 -6.14,-27.34 -6.14,-27.34 C-6.14,-27.34 -1.03,-27.34 -1.03,-27.34 ;M-11.09 -27.34 C-11.09,-27.34 -6.14,-27.34 -6.14,-27.34 C-6.14,-27.34 -1.03,-27.34 -1.03,-27.34 " keySplines="0 0 1 1;0 0 1 1;0 0 1 1;0 0 1 1;0 0 1 1" calcMode="spline"/><animateMotion repeatCount="indefinite" dur="3.6833333s" begin="0s" xlink:href="#_R_G_L_6_G_N_9_N_1_T_0" fill="freeze" keyTimes="0;0.1266968;0.5067873;0.5972851;1" path="M-4.06 -24.76 C-2.99,-24.76 1.32,-24.76 2.39,-24.76 C2.39,-24.76 2.39,-24.76 2.39,-24.76 C1.32,-24.76 -2.99,-24.76 -4.06,-24.76 C-4.06,-24.76 -4.06,-24.76 -4.06,-24.76 " keyPoints="0;0.5;0.5;1;1" keySplines="0.6 0 0.4 1;0.6 0.6 0.4 0.4;0.6 0 0.4 1;0 0 0 0" calcMode="spline"/><animateTransform repeatCount="indefinite" dur="3.6833333s" begin="0s" xlink:href="#_R_G_L_6_G_N_9_N_1_T_0" fill="freeze" attributeName="transform" from="0.19341999999999998 0.19341999999999998" to="0.19341999999999998 0.19341999999999998" type="scale" additive="sum" keyTimes="0;1" values="0.19341999999999998 0.19341999999999998;0.19341999999999998 0.19341999999999998" keySplines="0 0 1 1" calcMode="spline"/><animateTransform repeatCount="indefinite" dur="3.6833333s" begin="0s" xlink:href="#_R_G_L_6_G_N_9_N_1_T_0" fill="freeze" attributeName="transform" from="20 56" to="20 56" type="translate" additive="sum" keyTimes="0;1" values="20 56;20 56" keySplines="0 0 1 1" calcMode="spline"/><animate repeatCount="indefinite" dur="3.6833333s" begin="0s" xlink:href="#_R_G_L_5_G_D_0_P_0" fill="freeze" attributeName="d" attributeType="XML" from="M8.45 -0.81 C8.45,-0.81 8.45,-29.64 8.45,-29.64 C8.45,-29.64 10.47,-31.52 10.47,-31.52 C10.47,-31.52 12.19,-31.52 12.19,-31.52 C12.19,-31.52 14.06,-29.64 14.06,-29.64 C14.06,-29.64 14.06,2.96 14.06,2.96 C14.06,2.96 0.15,8.66 0.15,8.66 C0.15,8.66 -1.98,3.47 -1.98,3.47 C-1.98,3.47 8.45,-0.81 8.45,-0.81z " to="M8.45 -0.81 C8.45,-0.81 8.45,-29.64 8.45,-29.64 C8.45,-29.64 10.47,-31.52 10.47,-31.52 C10.47,-31.52 12.19,-31.52 12.19,-31.52 C12.19,-31.52 14.06,-29.64 14.06,-29.64 C14.06,-29.64 14.06,2.96 14.06,2.96 C14.06,2.96 0.15,8.66 0.15,8.66 C0.15,8.66 -1.98,3.47 -1.98,3.47 C-1.98,3.47 8.45,-0.81 8.45,-0.81z " keyTimes="0;0.1266968;0.5067873;0.5972851;1" values="M8.45 -0.81 C8.45,-0.81 8.45,-29.64 8.45,-29.64 C8.45,-29.64 10.47,-31.52 10.47,-31.52 C10.47,-31.52 12.19,-31.52 12.19,-31.52 C12.19,-31.52 14.06,-29.64 14.06,-29.64 C14.06,-29.64 14.06,2.96 14.06,2.96 C14.06,2.96 0.15,8.66 0.15,8.66 C0.15,8.66 -1.98,3.47 -1.98,3.47 C-1.98,3.47 8.45,-0.81 8.45,-0.81z ;M10.43 -0.81 C10.43,-0.81 10.43,-29.65 10.43,-29.65 C10.43,-29.65 10.47,-31.52 10.47,-31.52 C10.47,-31.52 12.19,-31.52 12.19,-31.52 C12.19,-31.52 14.06,-29.64 14.06,-29.64 C14.06,-29.64 14.06,2.96 14.06,2.96 C14.06,2.96 0.15,8.66 0.15,8.66 C0.15,8.66 0.01,3.47 0.01,3.47 C0.01,3.47 10.43,-0.81 10.43,-0.81z ;M10.43 -0.81 C10.43,-0.81 10.43,-29.65 10.43,-29.65 C10.43,-29.65 10.47,-31.52 10.47,-31.52 C10.47,-31.52 12.19,-31.52 12.19,-31.52 C12.19,-31.52 14.06,-29.64 14.06,-29.64 C14.06,-29.64 14.06,2.96 14.06,2.96 C14.06,2.96 0.15,8.66 0.15,8.66 C0.15,8.66 0.01,3.47 0.01,3.47 C0.01,3.47 10.43,-0.81 10.43,-0.81z ;M8.45 -0.81 C8.45,-0.81 8.45,-29.64 8.45,-29.64 C8.45,-29.64 10.47,-31.52 10.47,-31.52 C10.47,-31.52 12.19,-31.52 12.19,-31.52 C12.19,-31.52 14.06,-29.64 14.06,-29.64 C14.06,-29.64 14.06,2.96 14.06,2.96 C14.06,2.96 0.15,8.66 0.15,8.66 C0.15,8.66 -1.98,3.47 -1.98,3.47 C-1.98,3.47 8.45,-0.81 8.45,-0.81z ;M8.45 -0.81 C8.45,-0.81 8.45,-29.64 8.45,-29.64 C8.45,-29.64 10.47,-31.52 10.47,-31.52 C10.47,-31.52 12.19,-31.52 12.19,-31.52 C12.19,-31.52 14.06,-29.64 14.06,-29.64 C14.06,-29.64 14.06,2.96 14.06,2.96 C14.06,2.96 0.15,8.66 0.15,8.66 C0.15,8.66 -1.98,3.47 -1.98,3.47 C-1.98,3.47 8.45,-0.81 8.45,-0.81z " keySplines="0.6 0 0.4 1;0.6 0 0.4 1;0.6 0 0.4 1;0 0 0 0" calcMode="spline"/><animate repeatCount="indefinite" dur="3.6833333s" begin="0s" xlink:href="#_R_G_L_5_G_D_1_P_0" fill="freeze" attributeName="d" attributeType="XML" from="M10 -29.49 C10,-29.49 10,-2.98 10,-2.98 " to="M10 -29.49 C10,-29.49 10,-2.98 10,-2.98 " keyTimes="0;0.1266968;0.5067873;0.5972851;1" values="M10 -29.49 C10,-29.49 10,-2.98 10,-2.98 ;M12.52 -29.48 C12.52,-29.48 12.52,-2.97 12.52,-2.97 ;M12.52 -29.48 C12.52,-29.48 12.52,-2.97 12.52,-2.97 ;M10 -29.49 C10,-29.49 10,-2.98 10,-2.98 ;M10 -29.49 C10,-29.49 10,-2.98 10,-2.98 " keySplines="0.6 0 0.4 1;0.6 0 0.4 1;0.6 0 0.4 1;0 0 0 0" calcMode="spline"/><animate repeatCount="indefinite" dur="3.6833333s" begin="0s" xlink:href="#_R_G_L_5_G_D_2_P_0" fill="freeze" attributeName="d" attributeType="XML" from="M11.56 -29.18 C11.56,-29.18 12.5,-29.18 12.5,-29.18 C12.5,-29.18 12.5,-28.24 12.5,-28.24 C12.5,-28.24 11.56,-28.24 11.56,-28.24 C11.56,-28.24 11.56,-29.18 11.56,-29.18z " to="M11.56 -29.18 C11.56,-29.18 12.5,-29.18 12.5,-29.18 C12.5,-29.18 12.5,-28.24 12.5,-28.24 C12.5,-28.24 11.56,-28.24 11.56,-28.24 C11.56,-28.24 11.56,-29.18 11.56,-29.18z " keyTimes="0;0.1266968;0.5067873;0.5972851;1" values="M11.56 -29.18 C11.56,-29.18 12.5,-29.18 12.5,-29.18 C12.5,-29.18 12.5,-28.24 12.5,-28.24 C12.5,-28.24 11.56,-28.24 11.56,-28.24 C11.56,-28.24 11.56,-29.18 11.56,-29.18z ;M13.06 -29.18 C13.06,-29.18 14,-29.18 14,-29.18 C14,-29.18 14,-28.24 14,-28.24 C14,-28.24 13.06,-28.24 13.06,-28.24 C13.06,-28.24 13.06,-29.18 13.06,-29.18z ;M13.06 -29.18 C13.06,-29.18 14,-29.18 14,-29.18 C14,-29.18 14,-28.24 14,-28.24 C14,-28.24 13.06,-28.24 13.06,-28.24 C13.06,-28.24 13.06,-29.18 13.06,-29.18z ;M11.56 -29.18 C11.56,-29.18 12.5,-29.18 12.5,-29.18 C12.5,-29.18 12.5,-28.24 12.5,-28.24 C12.5,-28.24 11.56,-28.24 11.56,-28.24 C11.56,-28.24 11.56,-29.18 11.56,-29.18z ;M11.56 -29.18 C11.56,-29.18 12.5,-29.18 12.5,-29.18 C12.5,-29.18 12.5,-28.24 12.5,-28.24 C12.5,-28.24 11.56,-28.24 11.56,-28.24 C11.56,-28.24 11.56,-29.18 11.56,-29.18z " keySplines="0.6 0 0.4 1;0.6 0 0.4 1;0.6 0 0.4 1;0 0 0 0" calcMode="spline"/><animateMotion repeatCount="indefinite" dur="3.6833333s" begin="0s" xlink:href="#_R_G_L_5_G" fill="freeze" keyTimes="0;0.1266968;0.5067873;0.5972851;1" path="M0 -0.19 C1.17,-0.19 5.83,-0.19 7,-0.19 C7,-0.19 7,-0.19 7,-0.19 C5.83,-0.19 1.17,-0.19 0,-0.19 C0,-0.19 0,-0.19 0,-0.19 " keyPoints="0;0.5;0.5;1;1" keySplines="0.6 0 0.4 1;0.6 0.6 0.4 0.4;0.6 0 0.4 1;0 0 0 0" calcMode="spline"/><animate repeatCount="indefinite" dur="3.6833333s" begin="0s" xlink:href="#_R_G_L_4_G_D_0_P_0" fill="freeze" attributeName="d" attributeType="XML" from="M-18.04 4.51 C-18.04,4.51 -26.73,4.46 -26.73,4.46 C-26.73,4.46 -30.17,9.3 -30.17,9.3 C-30.17,9.3 -30.16,30.71 -30.16,30.71 " to="M-18.04 4.51 C-18.04,4.51 -26.73,4.46 -26.73,4.46 C-26.73,4.46 -30.17,9.3 -30.17,9.3 C-30.17,9.3 -30.16,30.71 -30.16,30.71 " keyTimes="0;0.1266968;0.5067873;0.5067873;0.5972851;1" values="M-18.04 4.51 C-18.04,4.51 -26.73,4.46 -26.73,4.46 C-26.73,4.46 -30.17,9.3 -30.17,9.3 C-30.17,9.3 -30.16,30.71 -30.16,30.71 ;M-18.04 4.51 C-18.04,4.51 -29.44,4.48 -29.44,4.48 C-29.44,4.48 -31.62,12.01 -31.62,12.01 C-31.62,12.01 -15.55,13.11 -15.55,13.11 ;M-18.04 4.51 C-18.04,4.51 -29.44,4.48 -29.44,4.48 C-29.44,4.48 -31.62,12.01 -31.62,12.01 C-31.62,12.01 -15.55,13.11 -15.55,13.11 ;M-18.04 4.51 C-18.04,4.51 -29.44,4.48 -29.44,4.48 C-29.44,4.48 -31.62,12.01 -31.62,12.01 C-31.62,12.01 -15.55,13.11 -15.55,13.11 ;M-18.04 4.51 C-18.04,4.51 -26.73,4.46 -26.73,4.46 C-26.73,4.46 -30.17,9.3 -30.17,9.3 C-30.17,9.3 -30.16,30.71 -30.16,30.71 ;M-18.04 4.51 C-18.04,4.51 -26.73,4.46 -26.73,4.46 C-26.73,4.46 -30.17,9.3 -30.17,9.3 C-30.17,9.3 -30.16,30.71 -30.16,30.71 " keySplines="0.6 0 0.4 1;0 0 1 1;0 0 1 1;1 0 0.4 1;0 0 0 0" calcMode="spline"/><animateMotion repeatCount="indefinite" dur="3.6833333s" begin="0s" xlink:href="#_R_G_L_2_G" fill="freeze" keyTimes="0;0.1266968;0.5067873;0.5972851;1" path="M-29.78 31.31 C-27.46,28.21 -18.17,15.83 -15.85,12.74 C-15.85,12.74 -15.85,12.74 -15.85,12.74 C-18.17,15.83 -27.46,28.21 -29.78,31.31 C-29.78,31.31 -29.78,31.31 -29.78,31.31 " keyPoints="0;0.5;0.5;1;1" keySplines="0.6 0 0.4 1;0.6 0.6 0.4 0.4;0.6 0 0.4 1;0 0 0 0" calcMode="spline"/><animateTransform repeatCount="indefinite" dur="3.6833333s" begin="0s" xlink:href="#_R_G_L_2_G" fill="freeze" attributeName="transform" from="0" to="0" type="rotate" additive="sum" keyTimes="0;0.1266968;0.1493213;0.199095;0.2579186;0.3122172;0.39819;0.5067873;0.5067873;0.5972851;1" values="0;-185;-205;-148;-205;-148;-205;-205;-205;0;0" keySplines="0.6 0 0.4 1;0 0 0.4 1;0.6 0 0.4 1;0.6 0 0.4 1;0.6 0 0.4 1;0.6 0 0.4 1;0 0 1 1;0 0 1 1;1 0 0.4 1;0 0 0 0" calcMode="spline"/><animateTransform repeatCount="indefinite" dur="3.6833333s" begin="0s" xlink:href="#_R_G_L_2_G" fill="freeze" attributeName="transform" from="-27.5 -21.25" to="-27.5 -21.25" type="translate" additive="sum" keyTimes="0;1" values="-27.5 -21.25;-27.5 -21.25" keySplines="0 0 1 1" calcMode="spline"/><animate attributeType="XML" attributeName="opacity" dur="4s" from="0" to="1" xlink:href="#time_group"/></defs><g id="_R_G"><g id="_R_G_L_11_G" transform=" translate(341, 569) scale(5.17, 5.17) translate(0, -30.561)"><path id="_R_G_L_11_G_D_0_P_0" fill="#000000" fill-opacity="1" fill-rule="nonzero" d=" M-20.31 36.94 C-20.31,36.94 -23.09,36.94 -23.09,36.94 C-23.09,36.94 -26.17,39.68 -26.17,39.68 C-26.17,39.68 -26.17,45.6 -26.17,45.6 C-26.17,45.6 -23.09,48.33 -23.09,48.33 C-23.09,48.33 -21.35,48.33 -21.35,48.33 C-21.35,48.33 -21.35,48.33 -21.35,48.33 C-21.35,48.33 -14.14,48.33 -14.14,48.33 C-14.14,48.33 -11,45.6 -11,45.6 C-11,45.6 -11,39.68 -11,39.68 C-11,39.68 -14.14,36.94 -14.14,36.94 C-14.14,36.94 -20.31,36.94 -20.31,36.94 C-20.31,36.94 -20.31,36.94 -20.31,36.94z "/><path id="_R_G_L_11_G_D_1_P_0" fill="#000000" fill-opacity="1" fill-rule="nonzero" d=" M-19.62 36.95 C-19.62,36.95 -15.18,36.95 -15.18,36.95 C-15.18,36.95 -15.18,36.95 -15.18,36.95 C-15.18,36.95 -15.14,36.95 -15.14,36.95 C-15.14,36.95 -15.14,36.98 -15.14,36.98 C-15.14,36.98 -12.03,39.68 -12.03,39.68 C-12.03,39.68 -12.03,45.6 -12.03,45.6 C-12.03,45.6 -15.14,48.29 -15.14,48.29 C-15.14,48.29 -15.14,48.33 -15.14,48.33 C-15.14,48.33 -20.33,48.33 -20.33,48.33 C-20.33,48.33 -23.41,45.6 -23.41,45.6 C-23.41,45.6 -23.41,39.68 -23.41,39.68 C-23.41,39.68 -20.33,36.95 -20.33,36.95 C-20.33,36.95 -19.62,36.95 -19.62,36.95 C-19.62,36.95 -19.62,36.95 -19.62,36.95z "/><path id="_R_G_L_11_G_D_2_P_0" fill="#535353" fill-opacity="1" fill-rule="nonzero" d=" M-18.93 38.54 C-18.93,38.54 -15.18,38.54 -15.18,38.54 C-15.18,38.54 -12.91,40.51 -12.91,40.51 C-12.91,40.51 -12.91,44.77 -12.91,44.77 C-12.91,44.77 -15.18,46.73 -15.18,46.73 C-15.18,46.73 -15.92,46.73 -15.92,46.73 C-15.92,46.73 -15.92,46.74 -15.92,46.74 C-15.92,46.74 -18.85,46.74 -18.85,46.74 C-18.85,46.74 -18.86,46.73 -18.86,46.73 C-18.86,46.73 -18.93,46.73 -18.93,46.73 C-18.93,46.73 -18.93,46.67 -18.93,46.67 C-18.93,46.67 -21.07,44.77 -21.07,44.77 C-21.07,44.77 -21.07,40.51 -21.07,40.51 C-21.07,40.51 -18.93,38.61 -18.93,38.61 C-18.93,38.61 -18.93,38.54 -18.93,38.54z "/><path id="_R_G_L_11_G_D_3_P_0" stroke="#000000" stroke-linecap="square" stroke-linejoin="square" fill="none" stroke-width="0.624" stroke-opacity="1" d=" M-18.38 45.49 C-18.38,45.49 -19.82,44.21 -19.82,44.21 C-19.82,44.21 -19.82,41.07 -19.82,41.07 C-19.82,41.07 -18.38,39.79 -18.38,39.79 C-18.38,39.79 -15.65,39.79 -15.65,39.79 C-15.65,39.79 -14.16,41.08 -14.16,41.08 C-14.16,41.08 -14.16,44.2 -14.16,44.2 C-14.16,44.2 -15.65,45.48 -15.65,45.48 C-15.65,45.48 -15.92,45.49 -15.92,45.49 C-15.92,45.49 -18.38,45.49 -18.38,45.49z "/><path id="_R_G_L_11_G_D_4_P_0" fill="#000000" fill-opacity="1" fill-rule="nonzero" d=" M-6.59 36.94 C-6.59,36.94 -9.37,36.94 -9.37,36.94 C-9.37,36.94 -12.45,39.68 -12.45,39.68 C-12.45,39.68 -12.45,45.6 -12.45,45.6 C-12.45,45.6 -9.37,48.33 -9.37,48.33 C-9.37,48.33 -7.62,48.33 -7.62,48.33 C-7.62,48.33 -7.62,48.33 -7.62,48.33 C-7.62,48.33 -0.42,48.33 -0.42,48.33 C-0.42,48.33 2.73,45.6 2.73,45.6 C2.73,45.6 2.73,39.68 2.73,39.68 C2.73,39.68 -0.42,36.94 -0.42,36.94 C-0.42,36.94 -6.59,36.94 -6.59,36.94 C-6.59,36.94 -6.59,36.94 -6.59,36.94z "/><path id="_R_G_L_11_G_D_5_P_0" fill="#000000" fill-opacity="1" fill-rule="nonzero" d=" M-5.9 36.95 C-5.9,36.95 -1.45,36.95 -1.45,36.95 C-1.45,36.95 -1.45,36.95 -1.45,36.95 C-1.45,36.95 -1.41,36.95 -1.41,36.95 C-1.41,36.95 -1.41,36.98 -1.41,36.98 C-1.41,36.98 1.69,39.68 1.69,39.68 C1.69,39.68 1.69,45.6 1.69,45.6 C1.69,45.6 -1.41,48.29 -1.41,48.29 C-1.41,48.29 -1.41,48.33 -1.41,48.33 C-1.41,48.33 -6.61,48.33 -6.61,48.33 C-6.61,48.33 -9.69,45.6 -9.69,45.6 C-9.69,45.6 -9.69,39.68 -9.69,39.68 C-9.69,39.68 -6.61,36.95 -6.61,36.95 C-6.61,36.95 -5.9,36.95 -5.9,36.95 C-5.9,36.95 -5.9,36.95 -5.9,36.95z "/><path id="_R_G_L_11_G_D_6_P_0" fill="#535353" fill-opacity="1" fill-rule="nonzero" d=" M-5.21 38.54 C-5.21,38.54 -1.46,38.54 -1.46,38.54 C-1.46,38.54 0.81,40.51 0.81,40.51 C0.81,40.51 0.81,44.77 0.81,44.77 C0.81,44.77 -1.46,46.73 -1.46,46.73 C-1.46,46.73 -2.2,46.73 -2.2,46.73 C-2.2,46.73 -2.2,46.74 -2.2,46.74 C-2.2,46.74 -5.13,46.74 -5.13,46.74 C-5.13,46.74 -5.13,46.73 -5.13,46.73 C-5.13,46.73 -5.21,46.73 -5.21,46.73 C-5.21,46.73 -5.21,46.67 -5.21,46.67 C-5.21,46.67 -7.35,44.77 -7.35,44.77 C-7.35,44.77 -7.35,40.51 -7.35,40.51 C-7.35,40.51 -5.21,38.61 -5.21,38.61 C-5.21,38.61 -5.21,38.54 -5.21,38.54z "/><path id="_R_G_L_11_G_D_7_P_0" stroke="#000000" stroke-linecap="square" stroke-linejoin="square" fill="none" stroke-width="0.624" stroke-opacity="1" d=" M-4.66 45.49 C-4.66,45.49 -6.1,44.21 -6.1,44.21 C-6.1,44.21 -6.1,41.07 -6.1,41.07 C-6.1,41.07 -4.66,39.79 -4.66,39.79 C-4.66,39.79 -1.92,39.79 -1.92,39.79 C-1.92,39.79 -0.44,41.08 -0.44,41.08 C-0.44,41.08 -0.44,44.2 -0.44,44.2 C-0.44,44.2 -1.92,45.48 -1.92,45.48 C-1.92,45.48 -2.2,45.49 -2.2,45.49 C-2.2,45.49 -4.66,45.49 -4.66,45.49z "/><path id="_R_G_L_11_G_D_8_P_0" fill="#000000" fill-opacity="1" fill-rule="nonzero" d=" M18.36 36.94 C18.36,36.94 15.58,36.94 15.58,36.94 C15.58,36.94 12.5,39.68 12.5,39.68 C12.5,39.68 12.5,45.6 12.5,45.6 C12.5,45.6 15.58,48.33 15.58,48.33 C15.58,48.33 17.33,48.33 17.33,48.33 C17.33,48.33 17.33,48.33 17.33,48.33 C17.33,48.33 24.53,48.33 24.53,48.33 C24.53,48.33 27.68,45.6 27.68,45.6 C27.68,45.6 27.68,39.68 27.68,39.68 C27.68,39.68 24.53,36.94 24.53,36.94 C24.53,36.94 18.36,36.94 18.36,36.94 C18.36,36.94 18.36,36.94 18.36,36.94z "/><path id="_R_G_L_11_G_D_9_P_0" fill="#000000" fill-opacity="1" fill-rule="nonzero" d=" M19.05 36.95 C19.05,36.95 23.5,36.95 23.5,36.95 C23.5,36.95 23.5,36.95 23.5,36.95 C23.5,36.95 23.54,36.95 23.54,36.95 C23.54,36.95 23.54,36.98 23.54,36.98 C23.54,36.98 26.64,39.68 26.64,39.68 C26.64,39.68 26.64,45.6 26.64,45.6 C26.64,45.6 23.54,48.29 23.54,48.29 C23.54,48.29 23.54,48.33 23.54,48.33 C23.54,48.33 18.34,48.33 18.34,48.33 C18.34,48.33 15.26,45.6 15.26,45.6 C15.26,45.6 15.26,39.68 15.26,39.68 C15.26,39.68 18.34,36.95 18.34,36.95 C18.34,36.95 19.05,36.95 19.05,36.95 C19.05,36.95 19.05,36.95 19.05,36.95z "/><path id="_R_G_L_11_G_D_10_P_0" fill="#535353" fill-opacity="1" fill-rule="nonzero" d=" M19.74 38.54 C19.74,38.54 23.5,38.54 23.5,38.54 C23.5,38.54 25.76,40.51 25.76,40.51 C25.76,40.51 25.76,44.77 25.76,44.77 C25.76,44.77 23.5,46.73 23.5,46.73 C23.5,46.73 22.75,46.73 22.75,46.73 C22.75,46.73 22.75,46.74 22.75,46.74 C22.75,46.74 19.82,46.74 19.82,46.74 C19.82,46.74 19.82,46.73 19.82,46.73 C19.82,46.73 19.74,46.73 19.74,46.73 C19.74,46.73 19.74,46.67 19.74,46.67 C19.74,46.67 17.6,44.77 17.6,44.77 C17.6,44.77 17.6,40.51 17.6,40.51 C17.6,40.51 19.74,38.61 19.74,38.61 C19.74,38.61 19.74,38.54 19.74,38.54z "/><path id="_R_G_L_11_G_D_11_P_0" stroke="#000000" stroke-linecap="square" stroke-linejoin="square" fill="none" stroke-width="0.624" stroke-opacity="1" d=" M20.29 45.49 C20.29,45.49 18.85,44.21 18.85,44.21 C18.85,44.21 18.85,41.07 18.85,41.07 C18.85,41.07 20.29,39.79 20.29,39.79 C20.29,39.79 23.03,39.79 23.03,39.79 C23.03,39.79 24.51,41.08 24.51,41.08 C24.51,41.08 24.51,44.2 24.51,44.2 C24.51,44.2 23.03,45.48 23.03,45.48 C23.03,45.48 22.75,45.49 22.75,45.49 C22.75,45.49 20.29,45.49 20.29,45.49z "/><path id="_R_G_L_11_G_D_12_P_0" fill="#000000" fill-opacity="1" fill-rule="nonzero" d=" M3.46 36.94 C3.46,36.94 0.68,36.94 0.68,36.94 C0.68,36.94 -2.4,39.68 -2.4,39.68 C-2.4,39.68 -2.4,45.6 -2.4,45.6 C-2.4,45.6 0.68,48.33 0.68,48.33 C0.68,48.33 2.43,48.33 2.43,48.33 C2.43,48.33 2.43,48.33 2.43,48.33 C2.43,48.33 9.63,48.33 9.63,48.33 C9.63,48.33 12.78,45.6 12.78,45.6 C12.78,45.6 12.78,39.68 12.78,39.68 C12.78,39.68 9.63,36.94 9.63,36.94 C9.63,36.94 3.46,36.94 3.46,36.94 C3.46,36.94 3.46,36.94 3.46,36.94z "/><path id="_R_G_L_11_G_D_13_P_0" fill="#000000" fill-opacity="1" fill-rule="nonzero" d=" M4.15 36.95 C4.15,36.95 8.6,36.95 8.6,36.95 C8.6,36.95 8.6,36.95 8.6,36.95 C8.6,36.95 8.64,36.95 8.64,36.95 C8.64,36.95 8.64,36.98 8.64,36.98 C8.64,36.98 11.74,39.68 11.74,39.68 C11.74,39.68 11.74,45.6 11.74,45.6 C11.74,45.6 8.64,48.29 8.64,48.29 C8.64,48.29 8.64,48.33 8.64,48.33 C8.64,48.33 3.44,48.33 3.44,48.33 C3.44,48.33 0.36,45.6 0.36,45.6 C0.36,45.6 0.36,39.68 0.36,39.68 C0.36,39.68 3.44,36.95 3.44,36.95 C3.44,36.95 4.15,36.95 4.15,36.95 C4.15,36.95 4.15,36.95 4.15,36.95z "/><path id="_R_G_L_11_G_D_14_P_0" fill="#535353" fill-opacity="1" fill-rule="nonzero" d=" M4.84 38.54 C4.84,38.54 8.6,38.54 8.6,38.54 C8.6,38.54 10.86,40.51 10.86,40.51 C10.86,40.51 10.86,44.77 10.86,44.77 C10.86,44.77 8.6,46.73 8.6,46.73 C8.6,46.73 7.85,46.73 7.85,46.73 C7.85,46.73 7.85,46.74 7.85,46.74 C7.85,46.74 4.92,46.74 4.92,46.74 C4.92,46.74 4.92,46.73 4.92,46.73 C4.92,46.73 4.84,46.73 4.84,46.73 C4.84,46.73 4.84,46.67 4.84,46.67 C4.84,46.67 2.7,44.77 2.7,44.77 C2.7,44.77 2.7,40.51 2.7,40.51 C2.7,40.51 4.84,38.61 4.84,38.61 C4.84,38.61 4.84,38.54 4.84,38.54z "/><path id="_R_G_L_11_G_D_15_P_0" stroke="#000000" stroke-linecap="square" stroke-linejoin="square" fill="none" stroke-width="0.624" stroke-opacity="1" d=" M5.39 45.49 C5.39,45.49 3.95,44.21 3.95,44.21 C3.95,44.21 3.95,41.07 3.95,41.07 C3.95,41.07 5.39,39.79 5.39,39.79 C5.39,39.79 8.13,39.79 8.13,39.79 C8.13,39.79 9.61,41.08 9.61,41.08 C9.61,41.08 9.61,44.2 9.61,44.2 C9.61,44.2 8.13,45.48 8.13,45.48 C8.13,45.48 7.85,45.49 7.85,45.49 C7.85,45.49 5.39,45.49 5.39,45.49z "/></g><g id="_R_G_L_10_G_N_5_T_0" transform=" translate(341, 413) scale(5.17, 5.17) translate(0, 0)"><g id="_R_G_L_10_G"><path id="_R_G_L_10_G_D_0_P_0" fill="#535353" fill-opacity="1" fill-rule="nonzero" d=" M-14.86 -0.76 C-14.86,-0.76 -14.86,-29.6 -14.86,-29.6 C-14.86,-29.6 -12.84,-31.47 -12.84,-31.47 C-12.84,-31.47 -11.12,-31.47 -11.12,-31.47 C-11.12,-31.47 -9.25,-29.6 -9.25,-29.6 C-9.25,-29.6 -9.25,3 -9.25,3 C-9.25,3 -9.03,4.93 -9.03,4.93 C-9.03,4.93 -15.13,4.67 -15.13,4.67 C-15.13,4.67 -14.86,-0.76 -14.86,-0.76z "/><path id="_R_G_L_10_G_D_1_P_0" stroke="#000000" stroke-linecap="square" stroke-linejoin="square" fill="none" stroke-width="0.624" stroke-opacity="1" d=" M-13.39 -16.39 C-13.39,-16.39 -13.39,-3.13 -13.39,-3.13 "/></g></g><g id="_R_G_L_9_G_N_5_T_0" transform=" translate(341, 413) scale(5.17, 5.17) translate(0, 0)"><g id="_R_G_L_9_G" transform=" translate(0, -0.193) translate(0, 0)"><path id="_R_G_L_9_G_D_0_P_0" stroke="#e1503c" stroke-linecap="square" stroke-linejoin="square" fill="none" stroke-width="1.871" stroke-opacity="1" d=" M3.92 -15.14 C3.92,-15.14 3.92,0.76 3.92,0.76 "/><path id="_R_G_L_9_G_D_1_P_0" stroke="#2c6fef" stroke-linecap="square" stroke-linejoin="square" fill="none" stroke-width="1.871" stroke-opacity="1" d=" M-0.13 -12.96 C-0.13,-12.96 -0.13,-9.95 -0.13,-9.95 C-0.13,-9.95 -5.75,-8.47 -5.75,-8.47 C-5.75,-8.47 -5.75,0.61 -5.75,0.61 "/></g></g><g id="_R_G_L_8_G_N_5_T_0" transform=" translate(341, 413) scale(5.17, 5.17) translate(0, 0)"><g id="_R_G_L_8_G" transform=" translate(11.992, -28.723) translate(-11.992, 28.53)"><path id="_R_G_L_8_G_D_0_P_0" fill="#8e8e8e" fill-opacity="1" fill-rule="nonzero" d=" M0.61 -48.14 C0.61,-48.14 0.34,-48.27 0.34,-48.27 C0.34,-48.27 0.07,-48.14 0.07,-48.14 C0.07,-48.14 -14.2,-41.27 -14.2,-41.27 C-14.2,-41.27 -14.47,-41.14 -14.47,-41.14 C-14.47,-41.14 -14.54,-40.85 -14.54,-40.85 C-14.54,-40.85 -18.06,-25.41 -18.06,-25.41 C-18.06,-25.41 -18.13,-25.12 -18.13,-25.12 C-18.13,-25.12 -17.94,-24.88 -17.94,-24.88 C-17.94,-24.88 -8.07,-12.51 -8.07,-12.51 C-8.07,-12.51 -7.88,-12.27 -7.88,-12.27 C-7.88,-12.27 -7.58,-12.27 -7.58,-12.27 C-7.58,-12.27 8.25,-12.27 8.25,-12.27 C8.25,-12.27 8.55,-12.27 8.55,-12.27 C8.55,-12.27 8.74,-12.51 8.74,-12.51 C8.74,-12.51 18.61,-24.88 18.61,-24.88 C18.61,-24.88 18.8,-25.12 18.8,-25.12 C18.8,-25.12 18.73,-25.41 18.73,-25.41 C18.73,-25.41 15.21,-40.85 15.21,-40.85 C15.21,-40.85 15.14,-41.14 15.14,-41.14 C15.14,-41.14 14.87,-41.27 14.87,-41.27 C14.87,-41.27 0.61,-48.14 0.61,-48.14z "/><path id="_R_G_L_8_G_D_1_P_0" stroke="#8e8e8e" stroke-linecap="square" stroke-linejoin="square" fill="none" stroke-width="1.248" stroke-opacity="1" d=" M0.61 -48.14 C0.61,-48.14 0.34,-48.27 0.34,-48.27 C0.34,-48.27 0.07,-48.14 0.07,-48.14 C0.07,-48.14 -14.2,-41.27 -14.2,-41.27 C-14.2,-41.27 -14.47,-41.14 -14.47,-41.14 C-14.47,-41.14 -14.54,-40.85 -14.54,-40.85 C-14.54,-40.85 -18.06,-25.41 -18.06,-25.41 C-18.06,-25.41 -18.13,-25.12 -18.13,-25.12 C-18.13,-25.12 -17.94,-24.88 -17.94,-24.88 C-17.94,-24.88 -8.07,-12.51 -8.07,-12.51 C-8.07,-12.51 -7.88,-12.27 -7.88,-12.27 C-7.88,-12.27 -7.58,-12.27 -7.58,-12.27 C-7.58,-12.27 8.25,-12.27 8.25,-12.27 C8.25,-12.27 8.55,-12.27 8.55,-12.27 C8.55,-12.27 8.74,-12.51 8.74,-12.51 C8.74,-12.51 18.61,-24.88 18.61,-24.88 C18.61,-24.88 18.8,-25.12 18.8,-25.12 C18.8,-25.12 18.73,-25.41 18.73,-25.41 C18.73,-25.41 15.21,-40.85 15.21,-40.85 C15.21,-40.85 15.14,-41.14 15.14,-41.14 C15.14,-41.14 14.87,-41.27 14.87,-41.27 C14.87,-41.27 0.61,-48.14 0.61,-48.14z "/></g></g><g id="_R_G_L_7_G_N_1_N_10_N_5_T_0" transform=" translate(341, 413) scale(5.17, 5.17) translate(0, 0)"><g id="_R_G_L_7_G_N_1_N_10_T_0" transform=" translate(11.992, -28.723) translate(-11.992, 28.53)"><g id="_R_G_L_7_G_N_1_T_0"><g id="_R_G_L_7_G" transform=" translate(-31, -75) scale(5.17, 5.17) translate(6.19, 28.433)"><path id="_R_G_L_7_G_D_0_P_0" fill="#000000" fill-opacity="1" fill-rule="nonzero" d=" M-5.16 -40.97 C-5.16,-40.97 -5.43,-41.1 -5.43,-41.1 C-5.43,-41.1 -5.7,-40.97 -5.7,-40.97 C-5.7,-40.97 -14.97,-36.51 -14.97,-36.51 C-14.97,-36.51 -15.24,-36.37 -15.24,-36.37 C-15.24,-36.37 -15.31,-36.08 -15.31,-36.08 C-15.31,-36.08 -17.6,-26.05 -17.6,-26.05 C-17.6,-26.05 -17.66,-25.76 -17.66,-25.76 C-17.66,-25.76 -17.48,-25.53 -17.48,-25.53 C-17.48,-25.53 -11.06,-17.49 -11.06,-17.49 C-11.06,-17.49 -10.88,-17.25 -10.88,-17.25 C-10.88,-17.25 -10.58,-17.25 -10.58,-17.25 C-10.58,-17.25 -0.29,-17.25 -0.29,-17.25 C-0.29,-17.25 0.01,-17.25 0.01,-17.25 C0.01,-17.25 0.2,-17.49 0.2,-17.49 C0.2,-17.49 6.61,-25.53 6.61,-25.53 C6.61,-25.53 6.8,-25.76 6.8,-25.76 C6.8,-25.76 6.73,-26.05 6.73,-26.05 C6.73,-26.05 4.44,-36.08 4.44,-36.08 C4.44,-36.08 4.37,-36.37 4.37,-36.37 C4.37,-36.37 4.1,-36.51 4.1,-36.51 C4.1,-36.51 -5.16,-40.97 -5.16,-40.97z "/><path id="_R_G_L_7_G_D_1_P_0" stroke="#8e8e8e" stroke-linecap="square" stroke-linejoin="square" fill="none" stroke-width="1.248" stroke-opacity="1" d=" M-5.16 -40.97 C-5.16,-40.97 -5.43,-41.1 -5.43,-41.1 C-5.43,-41.1 -5.7,-40.97 -5.7,-40.97 C-5.7,-40.97 -14.97,-36.51 -14.97,-36.51 C-14.97,-36.51 -15.24,-36.37 -15.24,-36.37 C-15.24,-36.37 -15.31,-36.08 -15.31,-36.08 C-15.31,-36.08 -17.6,-26.05 -17.6,-26.05 C-17.6,-26.05 -17.66,-25.76 -17.66,-25.76 C-17.66,-25.76 -17.48,-25.53 -17.48,-25.53 C-17.48,-25.53 -11.06,-17.49 -11.06,-17.49 C-11.06,-17.49 -10.88,-17.25 -10.88,-17.25 C-10.88,-17.25 -10.58,-17.25 -10.58,-17.25 C-10.58,-17.25 -0.29,-17.25 -0.29,-17.25 C-0.29,-17.25 0.01,-17.25 0.01,-17.25 C0.01,-17.25 0.2,-17.49 0.2,-17.49 C0.2,-17.49 6.61,-25.53 6.61,-25.53 C6.61,-25.53 6.8,-25.76 6.8,-25.76 C6.8,-25.76 6.73,-26.05 6.73,-26.05 C6.73,-26.05 4.44,-36.08 4.44,-36.08 C4.44,-36.08 4.37,-36.37 4.37,-36.37 C4.37,-36.37 4.1,-36.51 4.1,-36.51 C4.1,-36.51 -5.16,-40.97 -5.16,-40.97z "/></g></g></g></g><g id="_R_G_L_6_G_N_9_N_1_N_10_N_5_T_0" transform=" translate(341, 413) scale(5.17, 5.17) translate(0, 0)"><g id="_R_G_L_6_G_N_9_N_1_N_10_T_0" transform=" translate(11.992, -28.723) translate(-11.992, 28.53)"><g id="_R_G_L_6_G_N_9_N_1_T_0"><g id="_R_G_L_6_G_N_9_T_0" transform=" translate(-31, -75) scale(5.17, 5.17) translate(6.19, 28.433)"><g id="_R_G_L_6_G"><path id="_R_G_L_6_G_D_0_P_0" stroke="#179e7e" stroke-linecap="square" stroke-linejoin="square" fill="none" stroke-width="3" stroke-opacity="1" d=" M-11.09 -27.34 C-11.09,-27.34 -6.14,-27.34 -6.14,-27.34 C-6.14,-27.34 -1.03,-27.34 -1.03,-27.34 "/></g></g></g></g></g><g id="_R_G_L_5_G_N_5_T_0" transform=" translate(341, 413) scale(5.17, 5.17) translate(0, 0)"><g id="_R_G_L_5_G"><path id="_R_G_L_5_G_D_0_P_0" fill="#535353" fill-opacity="1" fill-rule="nonzero" d=" M8.45 -0.81 C8.45,-0.81 8.45,-29.64 8.45,-29.64 C8.45,-29.64 10.47,-31.52 10.47,-31.52 C10.47,-31.52 12.19,-31.52 12.19,-31.52 C12.19,-31.52 14.06,-29.64 14.06,-29.64 C14.06,-29.64 14.06,2.96 14.06,2.96 C14.06,2.96 0.15,8.66 0.15,8.66 C0.15,8.66 -1.98,3.47 -1.98,3.47 C-1.98,3.47 8.45,-0.81 8.45,-0.81z "/><path id="_R_G_L_5_G_D_1_P_0" stroke="#000000" stroke-linecap="square" stroke-linejoin="square" fill="none" stroke-width="0.624" stroke-opacity="1" d=" M10 -29.49 C10,-29.49 10,-2.98 10,-2.98 "/><path id="_R_G_L_5_G_D_2_P_0" fill="#000000" fill-opacity="1" fill-rule="nonzero" d=" M11.56 -29.18 C11.56,-29.18 12.5,-29.18 12.5,-29.18 C12.5,-29.18 12.5,-28.24 12.5,-28.24 C12.5,-28.24 11.56,-28.24 11.56,-28.24 C11.56,-28.24 11.56,-29.18 11.56,-29.18z "/></g></g><g id="_R_G_L_4_G_N_5_T_0" transform=" translate(341, 413) scale(5.17, 5.17) translate(0, 0)"><g id="_R_G_L_4_G" transform=" translate(-21.47, 3.868) translate(16.634, -4.449)"><path id="_R_G_L_4_G_D_0_P_0" stroke="#8e8e8e" stroke-linecap="square" stroke-linejoin="square" fill="none" stroke-width="4.99" stroke-opacity="1" d=" M-18.04 4.51 C-18.04,4.51 -26.73,4.46 -26.73,4.46 C-26.73,4.46 -30.17,9.3 -30.17,9.3 C-30.17,9.3 -30.16,30.71 -30.16,30.71 "/><path id="_R_G_L_4_G_D_1_P_0" fill="#535353" fill-opacity="1" fill-rule="nonzero" d=" M-16.16 0.14 C-16.16,0.14 -16.16,9.18 -16.16,9.18 C-16.16,9.18 -21.21,9.18 -21.21,9.18 C-21.21,9.18 -23.34,7.09 -23.34,7.09 C-23.34,7.09 -23.34,1.99 -23.34,1.99 C-23.34,1.99 -21.46,0.14 -21.46,0.14 C-21.46,0.14 -16.16,0.14 -16.16,0.14z "/></g></g><g id="_R_G_L_3_G" transform=" translate(341, 413) scale(5.17, 5.17) translate(0, 0)"><path id="_R_G_L_3_G_D_0_P_0" fill="#535353" fill-opacity="1" fill-rule="nonzero" d=" M-23.06 6.38 C-23.06,6.38 24.66,6.38 24.66,6.38 C24.66,6.38 24.66,15.42 24.66,15.42 C24.66,15.42 -23.06,15.42 -23.06,15.42 C-23.06,15.42 -23.06,6.38 -23.06,6.38z "/><path id="_R_G_L_3_G_D_1_P_0" fill="#8e8e8e" fill-opacity="1" fill-rule="nonzero" d=" M-19.94 -2.98 C-19.94,-2.98 21.55,-2.98 21.55,-2.98 C21.55,-2.98 27.78,3.26 27.78,3.26 C27.78,3.26 27.78,8.56 27.78,8.56 C27.78,8.56 -26.17,8.56 -26.17,8.56 C-26.17,8.56 -26.17,3.26 -26.17,3.26 C-26.17,3.26 -19.94,-2.98 -19.94,-2.98z "/><path id="_R_G_L_3_G_D_2_P_0" fill="#8e8e8e" fill-opacity="1" fill-rule="nonzero" d=" M-26.17 11.37 C-26.17,11.37 27.78,11.37 27.78,11.37 C27.78,11.37 27.78,39.75 27.78,39.75 C27.78,39.75 -26.17,39.75 -26.17,39.75 C-26.17,39.75 -26.17,11.37 -26.17,11.37z "/><path id="_R_G_L_3_G_D_3_P_0" fill="#ffffff" fill-opacity="1" fill-rule="nonzero" d=" M10.78 14.49 C10.78,14.49 14.44,16.25 14.44,16.25 C14.44,16.25 15.34,20.2 15.34,20.2 C15.34,20.2 12.81,23.38 12.81,23.38 C12.81,23.38 8.75,23.38 8.75,23.38 C8.75,23.38 6.22,20.2 6.22,20.2 C6.22,20.2 7.13,16.25 7.13,16.25 C7.13,16.25 10.78,14.49 10.78,14.49z "/><path id="_R_G_L_3_G_D_4_P_0" fill="#000000" fill-opacity="1" fill-rule="nonzero" d=" M8.23 18.73 C8.23,18.73 10.78,16.68 10.78,16.68 C10.78,16.68 11.39,17.44 11.39,17.44 C11.39,17.44 9.72,18.78 9.72,18.78 C9.72,18.78 10.09,19.24 10.09,19.24 C10.09,19.24 11.73,17.91 11.73,17.91 C11.73,17.91 12.34,18.67 12.34,18.67 C12.34,18.67 10.7,20 10.7,20 C10.7,20 11.05,20.43 11.05,20.43 C11.05,20.43 12.78,19.03 12.78,19.03 C12.78,19.03 13.39,19.79 13.39,19.79 C13.39,19.79 10.78,21.89 10.78,21.89 C10.78,21.89 8.23,18.73 8.23,18.73z "/><path id="_R_G_L_3_G_D_5_P_0" stroke="#000000" stroke-linecap="square" stroke-linejoin="square" fill="none" stroke-width="0.624" stroke-opacity="1" d=" M11.25 39.59 C11.25,39.59 11.25,28.68 11.25,28.68 C11.25,28.68 20.76,28.68 20.76,28.68 C20.76,28.68 20.76,11.52 20.76,11.52 "/><path id="_R_G_L_3_G_D_6_P_0" stroke="#000000" stroke-linecap="square" stroke-linejoin="square" fill="none" stroke-width="0.624" stroke-opacity="1" d=" M-12.14 8.56 C-12.14,8.56 -12.14,2.95 -12.14,2.95 C-12.14,2.95 -7.15,-2.04 -7.15,-2.04 "/><path id="_R_G_L_3_G_D_7_P_0" stroke="#000000" stroke-linecap="square" stroke-linejoin="square" fill="none" stroke-width="0.624" stroke-opacity="1" d=" M-26.02 16.51 C-26.02,16.51 -16.82,16.51 -16.82,16.51 C-16.82,16.51 -16.82,33.35 -16.82,33.35 C-16.82,33.35 -26.02,33.35 -26.02,33.35 "/><path id="_R_G_L_3_G_D_8_P_0" stroke="#000000" stroke-linecap="square" stroke-linejoin="square" fill="none" stroke-width="0.624" stroke-opacity="1" d=" M-7.15 19.79 C-7.15,19.79 2.21,19.79 2.21,19.79 C2.21,19.79 2.21,27.9 2.21,27.9 C2.21,27.9 -7.15,27.9 -7.15,27.9 C-7.15,27.9 -7.15,19.79 -7.15,19.79z "/></g><g id="_R_G_L_2_G_N_6_N_5_T_0" transform=" translate(341, 413) scale(5.17, 5.17) translate(0, 0)"><g id="_R_G_L_2_G_N_6_T_0" transform=" translate(-21.47, 3.868) translate(16.634, -4.449)"><g id="_R_G_L_2_G"><path id="_R_G_L_2_G_D_0_P_0" stroke="#000000" stroke-linecap="square" stroke-linejoin="square" fill="none" stroke-width="2.495" stroke-opacity="1" d=" M22.32 30.64 C22.32,30.64 22.32,26.36 22.32,26.36 C22.32,26.36 25.8,22.89 25.8,22.89 C25.8,22.89 29.15,22.89 29.15,22.89 C29.15,22.89 32.63,26.36 32.63,26.36 C32.63,26.36 32.63,30.64 32.63,30.64 "/><path id="_R_G_L_2_G_D_1_P_0" fill="#535353" fill-opacity="1" fill-rule="nonzero" d=" M24.04 19.27 C24.04,19.27 25.39,17.92 25.39,17.92 C25.39,17.92 29.12,17.92 29.12,17.92 C29.12,17.92 30.65,19.45 30.65,19.45 C30.65,19.45 30.65,22.9 30.65,22.9 C30.65,22.9 29.12,24.43 29.12,24.43 C29.12,24.43 25.39,24.43 25.39,24.43 C25.39,24.43 24.04,23.08 24.04,23.08 C24.04,23.08 24.04,19.27 24.04,19.27z "/><path id="_R_G_L_2_G_D_2_P_0" stroke="#000000" stroke-linecap="square" stroke-linejoin="square" fill="none" stroke-width="0.624" stroke-opacity="1" d=" M25.68 21.16 C25.68,21.16 29.2,21.16 29.2,21.16 "/></g></g></g><g id="_R_G_L_1_G_N_5_T_0" transform=" translate(341, 413) scale(5.17, 5.17) translate(0, 0)"><g id="_R_G_L_1_G" transform=" translate(22.921, 4.062) translate(-15.957, -4.642)"><path id="_R_G_L_1_G_D_0_P_0" fill="#535353" fill-opacity="1" fill-rule="nonzero" d=" M16.08 0.14 C16.08,0.14 21.37,0.14 21.37,0.14 C21.37,0.14 23.25,1.99 23.25,1.99 C23.25,1.99 23.25,7.09 23.25,7.09 C23.25,7.09 21.12,9.18 21.12,9.18 C21.12,9.18 16.08,9.18 16.08,9.18 C16.08,9.18 16.08,0.14 16.08,0.14z  M20.14 0.14 C20.14,0.14 20.14,9.18 20.14,9.18 C20.14,9.18 15.09,9.18 15.09,9.18 C15.09,9.18 12.97,7.09 12.97,7.09 C12.97,7.09 12.97,1.99 12.97,1.99 C12.97,1.99 14.85,0.14 14.85,0.14 C14.85,0.14 20.14,0.14 20.14,0.14z "/><path id="_R_G_L_1_G_D_1_P_0" stroke="#8e8e8e" stroke-linecap="square" stroke-linejoin="square" fill="none" stroke-width="4.99" stroke-opacity="1" d=" M20.04 4.51 C20.04,4.51 24.04,4.51 24.04,4.51 C24.04,4.51 27.47,9.34 27.47,9.34 C27.47,9.34 27.47,29.3 27.47,29.3 "/></g></g><g id="_R_G_L_0_G_N_3_N_5_T_0" transform=" translate(341, 413) scale(5.17, 5.17) translate(0, 0)"><g id="_R_G_L_0_G_N_3_T_0" transform=" translate(22.921, 4.062) translate(-15.957, -4.642)"><g id="_R_G_L_0_G" transform=" translate(27.5, 31.308) translate(-27.5, -21.25)"><path id="_R_G_L_0_G_D_0_P_0" stroke="#000000" stroke-linecap="square" stroke-linejoin="square" fill="none" stroke-width="2.495" stroke-opacity="1" d=" M22.32 30.64 C22.32,30.64 22.32,26.36 22.32,26.36 C22.32,26.36 25.8,22.89 25.8,22.89 C25.8,22.89 29.15,22.89 29.15,22.89 C29.15,22.89 32.63,26.36 32.63,26.36 C32.63,26.36 32.63,30.64 32.63,30.64 "/><path id="_R_G_L_0_G_D_1_P_0" fill="#535353" fill-opacity="1" fill-rule="nonzero" d=" M24.04 19.27 C24.04,19.27 25.39,17.92 25.39,17.92 C25.39,17.92 29.12,17.92 29.12,17.92 C29.12,17.92 30.65,19.45 30.65,19.45 C30.65,19.45 30.65,22.9 30.65,22.9 C30.65,22.9 29.12,24.43 29.12,24.43 C29.12,24.43 25.39,24.43 25.39,24.43 C25.39,24.43 24.04,23.08 24.04,23.08 C24.04,23.08 24.04,19.27 24.04,19.27z "/><path id="_R_G_L_0_G_D_2_P_0" stroke="#000000" stroke-linecap="square" stroke-linejoin="square" fill="none" stroke-width="0.624" stroke-opacity="1" d=" M25.68 21.16 C25.68,21.16 29.2,21.16 29.2,21.16 "/></g></g></g></g><g id="time_group"/></svg>