<svg xmlns="http://www.w3.org/2000/svg" xmlns:xlink="http://www.w3.org/1999/xlink" preserveAspectRatio="xMidYMid meet" width="680" height="680" viewBox="0 0 680 680" style="width:100%;height:100%"><defs><animateTransform repeatCount="indefinite" dur="1.5s" begin="0s" xlink:href="#_R_G_L_5_G_N_5_T_0" fill="freeze" attributeName="transform" from="3" to="3" type="rotate" additive="sum" keyTimes="0;0.4944444;0.9888889;1" values="3;-3;3;3" keySplines="0.333 0 0.667 1;0.333 0 0.667 1;0 0 0 0" calcMode="spline"/><animateTransform repeatCount="indefinite" dur="1.5s" begin="0s" xlink:href="#_R_G_L_5_G_N_5_T_0" fill="freeze" attributeName="transform" from="1.9000000000000001 1.9000000000000001" to="1.9000000000000001 1.9000000000000001" type="scale" additive="sum" keyTimes="0;1" values="1.9000000000000001 1.9000000000000001;1.9000000000000001 1.9000000000000001" keySplines="0 0 1 1" calcMode="spline"/><animateTransform repeatCount="indefinite" dur="1.5s" begin="0s" xlink:href="#_R_G_L_5_G_N_5_T_0" fill="freeze" attributeName="transform" from="12.632 -90.526" to="12.632 -90.526" type="translate" additive="sum" keyTimes="0;1" values="12.632 -90.526;12.632 -90.526" keySplines="0 0 1 1" calcMode="spline"/><animateTransform repeatCount="indefinite" dur="1.5s" begin="0s" xlink:href="#_R_G_L_4_G" fill="freeze" attributeName="transform" from="3" to="3" type="rotate" additive="sum" keyTimes="0;0.4944444;0.9888889;1" values="3;-3;3;3" keySplines="0.333 0 0.667 1;0.333 0 0.667 1;0 0 0 0" calcMode="spline"/><animateTransform repeatCount="indefinite" dur="1.5s" begin="0s" xlink:href="#_R_G_L_4_G" fill="freeze" attributeName="transform" from="1.9000000000000001 1.9000000000000001" to="1.9000000000000001 1.9000000000000001" type="scale" additive="sum" keyTimes="0;1" values="1.9000000000000001 1.9000000000000001;1.9000000000000001 1.9000000000000001" keySplines="0 0 1 1" calcMode="spline"/><animateTransform repeatCount="indefinite" dur="1.5s" begin="0s" xlink:href="#_R_G_L_4_G" fill="freeze" attributeName="transform" from="12.632 -90.526" to="12.632 -90.526" type="translate" additive="sum" keyTimes="0;1" values="12.632 -90.526;12.632 -90.526" keySplines="0 0 1 1" calcMode="spline"/><animateTransform repeatCount="indefinite" dur="1.5s" begin="0s" xlink:href="#_R_G_L_3_G" fill="freeze" attributeName="transform" from="4.7" to="4.535" type="rotate" additive="sum" keyTimes="0;0.0444444;0.5555556;0.9888889;1" values="4.7;5;-8;4.535;4.535" keySplines="0.167 0.167 0.833 1;0.333 0 0.667 1;0.333 0 0.833 0.833;0 0 0 0" calcMode="spline"/><animateTransform repeatCount="indefinite" dur="1.5s" begin="0s" xlink:href="#_R_G_L_3_G" fill="freeze" attributeName="transform" from="-1.278 25.892" to="-1.278 25.892" type="translate" additive="sum" keyTimes="0;1" values="-1.278 25.892;-1.278 25.892" keySplines="0 0 1 1" calcMode="spline"/><animateTransform repeatCount="indefinite" dur="1.5s" begin="0s" xlink:href="#_R_G_L_3_G_N_6_N_5_T_0" fill="freeze" attributeName="transform" from="3" to="3" type="rotate" additive="sum" keyTimes="0;0.4944444;0.9888889;1" values="3;-3;3;3" keySplines="0.333 0 0.667 1;0.333 0 0.667 1;0 0 0 0" calcMode="spline"/><animateTransform repeatCount="indefinite" dur="1.5s" begin="0s" xlink:href="#_R_G_L_3_G_N_6_N_5_T_0" fill="freeze" attributeName="transform" from="1.9000000000000001 1.9000000000000001" to="1.9000000000000001 1.9000000000000001" type="scale" additive="sum" keyTimes="0;1" values="1.9000000000000001 1.9000000000000001;1.9000000000000001 1.9000000000000001" keySplines="0 0 1 1" calcMode="spline"/><animateTransform repeatCount="indefinite" dur="1.5s" begin="0s" xlink:href="#_R_G_L_3_G_N_6_N_5_T_0" fill="freeze" attributeName="transform" from="12.632 -90.526" to="12.632 -90.526" type="translate" additive="sum" keyTimes="0;1" values="12.632 -90.526;12.632 -90.526" keySplines="0 0 1 1" calcMode="spline"/><animate attributeType="XML" attributeName="opacity" dur="2s" from="0" to="1" xlink:href="#time_group"/></defs><g id="_R_G"><g id="_R_G_L_8_G_N_7_T_0" transform=" translate(348, 439) scale(1.9, 1.9) translate(0, 0)"><g id="_R_G_L_8_G" transform=" translate(-81.281, 82.962) scale(-2.98421, -2.98421) translate(-15.957, -4.642)"><path id="_R_G_L_8_G_D_0_P_0" stroke="#d0d0d0" stroke-linecap="square" stroke-linejoin="square" fill="none" stroke-width="4.99" stroke-opacity="1" d=" M17.96 4.51 C17.96,4.51 18.26,-0.31 18.26,-0.31 C18.26,-0.31 21.96,-4.22 21.96,-4.22 C21.96,-4.22 37.31,-4.07 37.31,-4.07 "/></g></g><g id="_R_G_L_7_G_N_9_N_7_T_0" transform=" translate(348, 439) scale(1.9, 1.9) translate(0, 0)"><g id="_R_G_L_7_G_N_9_T_0" transform=" translate(-81.281, 82.962) scale(-2.98421, -2.98421) translate(-15.957, -4.642)"><g id="_R_G_L_7_G" transform=" translate(38.042, -3.127) rotate(-44) translate(-27.5, -21.25)"><path id="_R_G_L_7_G_D_0_P_0" stroke="#000000" stroke-linecap="square" stroke-linejoin="square" fill="none" stroke-width="2.495" stroke-opacity="1" d=" M22.32 30.64 C22.32,30.64 22.32,26.36 22.32,26.36 C22.32,26.36 25.8,22.89 25.8,22.89 C25.8,22.89 29.15,22.89 29.15,22.89 C29.15,22.89 32.63,26.36 32.63,26.36 C32.63,26.36 32.63,30.64 32.63,30.64 "/><path id="_R_G_L_7_G_D_1_P_0" fill="#535353" fill-opacity="1" fill-rule="nonzero" d=" M24.04 19.27 C24.04,19.27 25.39,17.92 25.39,17.92 C25.39,17.92 29.12,17.92 29.12,17.92 C29.12,17.92 30.65,19.45 30.65,19.45 C30.65,19.45 30.65,22.9 30.65,22.9 C30.65,22.9 29.12,24.43 29.12,24.43 C29.12,24.43 25.39,24.43 25.39,24.43 C25.39,24.43 24.04,23.08 24.04,23.08 C24.04,23.08 24.04,19.27 24.04,19.27z "/><path id="_R_G_L_7_G_D_2_P_0" stroke="#000000" stroke-linecap="square" stroke-linejoin="square" fill="none" stroke-width="0.624" stroke-opacity="1" d=" M25.68 21.16 C25.68,21.16 29.2,21.16 29.2,21.16 "/></g></g></g><g id="_R_G_L_6_G" transform=" translate(348, 439) scale(1.9, 1.9) translate(0, 0)"><path id="_R_G_L_6_G_D_0_P_0" fill="#000000" fill-opacity="1" fill-rule="nonzero" d=" M-131.5 79.49 C-131.5,79.49 -131.5,102.32 -131.5,102.32 C-131.5,102.32 -116.2,117.62 -116.2,117.62 C-116.2,117.62 -44.74,117.62 -44.74,117.62 C-44.74,117.62 -29.44,102.32 -29.44,102.32 C-29.44,102.32 -29.44,41.8 -29.44,41.8 C-29.44,41.8 -44.74,26.5 -44.74,26.5 C-44.74,26.5 -80.13,26.5 -80.13,26.5 C-80.13,26.5 -131.5,79.49 -131.5,79.49z "/><path id="_R_G_L_6_G_D_1_P_0" fill="#000000" fill-opacity="1" fill-rule="nonzero" d=" M-96.22 79.49 C-96.22,79.49 -96.22,102.32 -96.22,102.32 C-96.22,102.32 -80.91,117.62 -80.91,117.62 C-80.91,117.62 -9.46,117.62 -9.46,117.62 C-9.46,117.62 5.85,102.32 5.85,102.32 C5.85,102.32 5.85,41.8 5.85,41.8 C5.85,41.8 -9.46,26.5 -9.46,26.5 C-9.46,26.5 -44.84,26.5 -44.84,26.5 C-44.84,26.5 -96.22,79.49 -96.22,79.49z "/><path id="_R_G_L_6_G_D_2_P_0" fill="#535353" fill-opacity="1" fill-rule="nonzero" d=" M-90.26 81.97 C-90.26,81.97 -90.26,99.2 -90.26,99.2 C-90.26,99.2 -77.15,112.31 -77.15,112.31 C-77.15,112.31 -13.31,112.31 -13.31,112.31 C-13.31,112.31 -0.2,99.2 -0.2,99.2 C-0.2,99.2 -0.2,44.3 -0.2,44.3 C-0.2,44.3 -11.78,32.73 -11.78,32.73 C-11.78,32.73 -43.53,32.73 -43.53,32.73 C-43.53,32.73 -90.26,81.97 -90.26,81.97z "/></g><g id="_R_G_L_5_G_N_5_T_0" transform=" translate(324, 611)"><g id="_R_G_L_5_G"><path id="_R_G_L_5_G_D_0_P_0" fill="#535353" fill-opacity="1" fill-rule="nonzero" d=" M-19.42 -31.5 C-19.42,-31.5 13.27,-31.5 13.27,-31.5 C13.27,-31.5 13.27,17.5 13.27,17.5 C13.27,17.5 -19.42,17.5 -19.42,17.5 C-19.42,17.5 -19.42,-31.5 -19.42,-31.5z "/><path id="_R_G_L_5_G_D_1_P_0" stroke="#000000" stroke-linecap="square" stroke-linejoin="square" fill="none" stroke-width="2" stroke-opacity="1" d=" M-19.42 -4.37 C-19.42,-4.37 13.27,-4.37 13.27,-4.37 "/><path id="_R_G_L_5_G_D_2_P_0" stroke="#000000" stroke-linecap="square" stroke-linejoin="square" fill="none" stroke-width="2" stroke-opacity="1" d=" M-19.42 -17.07 C-19.42,-17.07 13.27,-17.07 13.27,-17.07 "/></g></g><g id="_R_G_L_4_G" transform=" translate(324, 611)"><path id="_R_G_L_4_G_D_0_P_0" fill="#8e8e8e" fill-opacity="1" fill-rule="nonzero" d=" M-78.5 89.96 C-78.5,89.96 53.58,89.96 53.58,89.96 C53.58,89.96 53.58,53.27 53.58,53.27 C53.58,53.27 53.58,5.5 53.58,5.5 C53.58,5.5 39.09,5.5 39.09,5.5 C39.09,5.5 26.65,5.5 26.65,5.5 C26.65,5.5 -53.82,5.5 -53.82,5.5 C-53.82,5.5 -78.5,53.27 -78.5,53.27 C-78.5,53.27 -78.5,89.96 -78.5,89.96z "/><path id="_R_G_L_4_G_D_1_P_0" fill="#ffffff" fill-opacity="1" fill-rule="nonzero" d=" M-39.5 51.5 C-39.5,51.5 -27.77,57.15 -27.77,57.15 C-27.77,57.15 -24.88,69.84 -24.88,69.84 C-24.88,69.84 -32.99,80.02 -32.99,80.02 C-32.99,80.02 -46.01,80.02 -46.01,80.02 C-46.01,80.02 -54.12,69.84 -54.12,69.84 C-54.12,69.84 -51.23,57.15 -51.23,57.15 C-51.23,57.15 -39.5,51.5 -39.5,51.5z "/><path id="_R_G_L_4_G_D_2_P_0" fill="#000000" fill-opacity="1" fill-rule="nonzero" d=" M-47.68 65.1 C-47.68,65.1 -39.52,58.53 -39.52,58.53 C-39.52,58.53 -37.55,60.97 -37.55,60.97 C-37.55,60.97 -42.92,65.27 -42.92,65.27 C-42.92,65.27 -41.73,66.74 -41.73,66.74 C-41.73,66.74 -36.46,62.5 -36.46,62.5 C-36.46,62.5 -34.5,64.93 -34.5,64.93 C-34.5,64.93 -39.77,69.18 -39.77,69.18 C-39.77,69.18 -38.64,70.57 -38.64,70.57 C-38.64,70.57 -33.1,66.07 -33.1,66.07 C-33.1,66.07 -31.14,68.51 -31.14,68.51 C-31.14,68.51 -39.5,75.25 -39.5,75.25 C-39.5,75.25 -47.68,65.1 -47.68,65.1z "/><path id="_R_G_L_4_G_D_3_P_0" fill="#e1503c" fill-opacity="1" fill-rule="nonzero" d=" M-52.34 23.69 C-52.34,23.69 -45.47,10.92 -45.47,10.92 C-45.47,10.92 -29.4,10.92 -29.4,10.92 C-29.4,10.92 -12.72,10.92 -12.72,10.92 C-12.72,10.92 3.96,10.92 3.96,10.92 C3.96,10.92 18.96,10.92 18.96,10.92 C18.96,10.92 12.61,22.74 12.61,22.74 C12.61,22.74 5.74,35.51 5.74,35.51 C5.74,35.51 -10.34,35.51 -10.34,35.51 C-10.34,35.51 -27.01,35.51 -27.01,35.51 C-27.01,35.51 -43.69,35.51 -43.69,35.51 C-43.69,35.51 -58.69,35.51 -58.69,35.51 C-58.69,35.51 -52.34,23.69 -52.34,23.69z "/><path id="_R_G_L_4_G_D_4_P_0" stroke="#000000" stroke-linecap="square" stroke-linejoin="square" fill="none" stroke-width="2" stroke-opacity="1" d=" M-52.34 23.69 C-52.34,23.69 -45.47,10.92 -45.47,10.92 C-45.47,10.92 -29.4,10.92 -29.4,10.92 C-29.4,10.92 -12.72,10.92 -12.72,10.92 C-12.72,10.92 3.96,10.92 3.96,10.92 C3.96,10.92 18.96,10.92 18.96,10.92 C18.96,10.92 12.61,22.74 12.61,22.74 C12.61,22.74 5.74,35.51 5.74,35.51 C5.74,35.51 -10.34,35.51 -10.34,35.51 C-10.34,35.51 -27.01,35.51 -27.01,35.51 C-27.01,35.51 -43.69,35.51 -43.69,35.51 C-43.69,35.51 -58.69,35.51 -58.69,35.51 C-58.69,35.51 -52.34,23.69 -52.34,23.69z "/><path id="_R_G_L_4_G_D_5_P_0" fill="#8e8e8e" fill-opacity="1" fill-rule="nonzero" d=" M-44.5 89.5 C-44.5,89.5 31.5,89.5 31.5,89.5 C31.5,89.5 31.5,103.5 31.5,103.5 C31.5,103.5 -44.5,103.5 -44.5,103.5 C-44.5,103.5 -44.5,89.5 -44.5,89.5z "/><path id="_R_G_L_4_G_D_6_P_0" stroke="#000000" stroke-linecap="square" stroke-linejoin="square" fill="none" stroke-width="2" stroke-opacity="1" d=" M12.54 89.95 C12.54,89.95 12.54,53.8 12.54,53.8  M12.54 89.95 C12.54,89.95 28.85,89.95 28.85,89.95  M12.54 89.95 C12.54,89.95 -40.7,89.95 -40.7,89.95  M12.54 53.8 C12.54,53.8 32.72,10.3 32.72,10.3  M12.54 53.8 C12.54,53.8 -15.34,53.8 -15.34,53.8 C-15.34,53.8 -10.42,42.39 -10.42,42.39 C-10.42,42.39 -50.5,42.39 -50.5,42.39 C-50.5,42.39 -57.56,53.8 -57.56,53.8 C-57.56,53.8 -74.7,53.8 -74.7,53.8 "/></g><g id="_R_G_L_3_G_N_6_N_5_T_0" transform=" translate(324, 611)"><g id="_R_G_L_3_G_N_6_T_0"><g id="_R_G_L_3_G" transform=" translate(1.278, -25.892)"><path id="_R_G_L_3_G_D_0_P_0" fill="#000000" fill-opacity="1" fill-rule="nonzero" d=" M12.11 -78.27 C12.11,-78.27 -18.8,-78.21 -18.8,-78.21 C-18.8,-78.21 -25.12,-79.24 -25.12,-79.24 C-25.12,-79.24 -56.78,-77.98 -56.78,-77.98 C-56.78,-77.98 -74.75,-59.63 -74.75,-59.63 C-74.75,-59.63 -65.34,-30.35 -65.34,-30.35 C-65.34,-30.35 -23.83,-29.63 -23.83,-29.63 C-23.83,-29.63 -17.46,-29.66 -17.46,-29.66 C-17.46,-29.66 22.04,-28.22 22.04,-28.22 C22.04,-28.22 31.63,-58.24 31.63,-58.24 C31.63,-58.24 12.11,-78.27 12.11,-78.27z "/><path id="_R_G_L_3_G_D_1_P_0" fill="#8e8e8e" fill-opacity="1" fill-rule="nonzero" d=" M44.69 -83.11 C44.69,-83.11 14.96,-83.11 14.96,-83.11 C14.96,-83.11 9.69,-83.11 9.69,-83.11 C9.69,-83.11 -17.82,-83.11 -17.82,-83.11 C-17.82,-83.11 -24.31,-83.11 -24.31,-83.11 C-24.31,-83.11 -57.09,-83.11 -57.09,-83.11 C-57.09,-83.11 -78.31,-59.85 -78.31,-59.85 C-78.31,-59.85 -67.81,-26.11 -67.81,-26.11 C-67.81,-26.11 -24.31,-26.11 -24.31,-26.11 C-24.31,-26.11 -17.82,-26.11 -17.82,-26.11 C-17.82,-26.11 22.63,-26.11 22.63,-26.11 C22.63,-26.11 25.68,-26.11 25.68,-26.11 C25.68,-26.11 50.19,-26.11 50.19,-26.11 C50.19,-26.11 61.69,-59.11 61.69,-59.11 C61.69,-59.11 44.69,-83.11 44.69,-83.11z  M-24.82 -33.11 C-24.82,-33.11 -62.66,-33.11 -62.66,-33.11 C-62.66,-33.11 -70.44,-58.1 -70.44,-58.1 C-70.44,-58.1 -54,-76.11 -54,-76.11 C-54,-76.11 -24.82,-76.11 -24.82,-76.11 C-24.82,-76.11 -24.82,-33.11 -24.82,-33.11z  M20.53 -33.11 C20.53,-33.11 -17.32,-33.11 -17.32,-33.11 C-17.32,-33.11 -17.32,-76.11 -17.32,-76.11 C-17.32,-76.11 11.87,-76.11 11.87,-76.11 C11.87,-76.11 28.31,-58.1 28.31,-58.1 C28.31,-58.1 20.53,-33.11 20.53,-33.11z "/><path id="_R_G_L_3_G_D_2_P_0" fill="#e1503c" fill-opacity="1" fill-rule="nonzero" d=" M-0.74 -62.85 C-0.74,-62.85 -6.74,-62.85 -6.74,-62.85 C-6.74,-62.85 -6.74,-44.85 -6.74,-44.85 C-6.74,-44.85 -0.74,-44.85 -0.74,-44.85 C-0.74,-44.85 -0.74,-62.85 -0.74,-62.85z "/><path id="_R_G_L_3_G_D_3_P_0" fill="#e1503c" fill-opacity="1" fill-rule="nonzero" d=" M-41.53 -62.85 C-41.53,-62.85 -47.53,-62.85 -47.53,-62.85 C-47.53,-62.85 -47.53,-44.85 -47.53,-44.85 C-47.53,-44.85 -41.53,-44.85 -41.53,-44.85 C-41.53,-44.85 -41.53,-62.85 -41.53,-62.85z "/><path id="_R_G_L_3_G_D_4_P_0" stroke="#000000" stroke-linecap="square" stroke-linejoin="square" fill="none" stroke-width="2" stroke-opacity="1" d=" M19.68 -80.61 C19.68,-80.61 38.69,-60.61 38.69,-60.61 C38.69,-60.61 29.19,-29.11 29.19,-29.11 "/><path id="_R_G_L_3_G_D_5_P_0" fill="#535353" fill-opacity="1" fill-rule="nonzero" d=" M-16.5 -88.17 C-16.5,-88.17 -0.5,-88.17 -0.5,-88.17 C-0.5,-88.17 -0.5,-83.11 -0.5,-83.11 C-0.5,-83.11 -16.5,-83.11 -16.5,-83.11 C-16.5,-83.11 -16.5,-88.17 -16.5,-88.17z "/><path id="_R_G_L_3_G_D_6_P_0" stroke="#535353" stroke-linecap="square" stroke-linejoin="square" fill="none" stroke-width="4" stroke-opacity="1" d=" M-8.5 -86.14 C-8.5,-86.14 -8.5,-108.39 -8.5,-108.39 "/><path id="_R_G_L_3_G_D_7_P_0" fill="#e1503c" fill-opacity="1" fill-rule="nonzero" d=" M-13.5 -118.5 C-13.5,-118.5 -3.5,-118.5 -3.5,-118.5 C-3.5,-118.5 -3.5,-108.39 -3.5,-108.39 C-3.5,-108.39 -13.5,-108.39 -13.5,-108.39 C-13.5,-108.39 -13.5,-118.5 -13.5,-118.5z "/></g></g></g><g id="_R_G_L_2_G" transform=" translate(348, 439) scale(1.9, 1.9) translate(0, 0)"><path id="_R_G_L_2_G_D_0_P_0" fill="#000000" fill-opacity="1" fill-rule="nonzero" d=" M-13.25 79.49 C-13.25,79.49 -13.25,102.32 -13.25,102.32 C-13.25,102.32 2.05,117.62 2.05,117.62 C2.05,117.62 73.51,117.62 73.51,117.62 C73.51,117.62 88.81,102.32 88.81,102.32 C88.81,102.32 88.81,41.8 88.81,41.8 C88.81,41.8 73.51,26.5 73.51,26.5 C73.51,26.5 38.13,26.5 38.13,26.5 C38.13,26.5 -13.25,79.49 -13.25,79.49z "/><path id="_R_G_L_2_G_D_1_P_0" fill="#000000" fill-opacity="1" fill-rule="nonzero" d=" M22.04 79.49 C22.04,79.49 22.04,102.32 22.04,102.32 C22.04,102.32 37.34,117.62 37.34,117.62 C37.34,117.62 106.2,117.62 106.2,117.62 C106.2,117.62 121.5,102.32 121.5,102.32 C121.5,102.32 121.5,41.8 121.5,41.8 C121.5,41.8 106.2,26.5 106.2,26.5 C106.2,26.5 73.41,26.5 73.41,26.5 C73.41,26.5 22.04,79.49 22.04,79.49z "/><path id="_R_G_L_2_G_D_2_P_0" fill="#535353" fill-opacity="1" fill-rule="nonzero" d=" M27.99 81.97 C27.99,81.97 27.99,99.2 27.99,99.2 C27.99,99.2 41.1,112.31 41.1,112.31 C41.1,112.31 102.34,112.31 102.34,112.31 C102.34,112.31 115.45,99.2 115.45,99.2 C115.45,99.2 115.45,44.3 115.45,44.3 C115.45,44.3 103.88,32.73 103.88,32.73 C103.88,32.73 74.72,32.73 74.72,32.73 C74.72,32.73 27.99,81.97 27.99,81.97z "/><path id="_R_G_L_2_G_D_3_P_0" fill="#000000" fill-opacity="1" fill-rule="nonzero" d=" M93.14 47.46 C93.14,47.46 75.58,32.64 75.58,32.64 C75.58,32.64 103.95,32.64 103.95,32.64 C103.95,32.64 115.8,44.28 115.8,44.28 C115.8,44.28 115.8,99.09 115.8,99.09 C115.8,99.09 102.5,112.49 102.5,112.49 C102.5,112.49 75.58,112.49 75.58,112.49 C75.58,112.49 93.14,95.98 93.14,95.98 C93.14,95.98 93.14,47.46 93.14,47.46z "/><path id="_R_G_L_2_G_D_4_P_0" fill="#535353" fill-opacity="1" fill-rule="nonzero" d=" M78.01 42.12 C78.01,42.12 72.37,46.67 72.37,46.67 C72.37,46.67 72.37,96.94 72.37,96.94 C72.37,96.94 78.75,102.09 78.75,102.09 C78.75,102.09 102.24,102.09 102.24,102.09 C102.24,102.09 108.62,96.94 108.62,96.94 C108.62,96.94 108.62,46.67 108.62,46.67 C108.62,46.67 102.98,42.12 102.98,42.12 C102.98,42.12 78.01,42.12 78.01,42.12z "/><path id="_R_G_L_2_G_D_5_P_0" stroke="#000000" stroke-linecap="square" stroke-linejoin="square" fill="none" stroke-width="2" stroke-opacity="1" d=" M80.27 103.44 C80.27,103.44 72.37,103.44 72.37,103.44 C72.37,103.44 65.99,98.29 65.99,98.29 C65.99,98.29 65.99,48.14 65.99,48.14 C65.99,48.14 71.62,43.59 71.62,43.59 C71.62,43.59 80.27,43.59 80.27,43.59 "/><path id="_R_G_L_2_G_D_6_P_0" stroke="#000000" stroke-linecap="square" stroke-linejoin="square" fill="none" stroke-width="2" stroke-opacity="1" d=" M85.69 49.14 C85.69,49.14 90.47,45.74 90.47,45.74 C90.47,45.74 100.18,45.74 100.18,45.74 C100.18,45.74 104.39,49.14 104.39,49.14 C104.39,49.14 104.39,94.87 104.39,94.87 C104.39,94.87 100.18,98.28 100.18,98.28 C100.18,98.28 90.47,98.28 90.47,98.28 C90.47,98.28 85.69,94.87 85.69,94.87 C85.69,94.87 85.69,49.14 85.69,49.14z "/><path id="_R_G_L_2_G_D_7_P_0" fill="#535353" fill-opacity="1" fill-rule="nonzero" d=" M33.87 77.3 C33.87,77.3 28.23,82.93 28.23,82.93 C28.23,82.93 28.23,98.49 28.23,98.49 C28.23,98.49 34.62,104.87 34.62,104.87 C34.62,104.87 49.01,104.87 49.01,104.87 C49.01,104.87 55.39,98.49 55.39,98.49 C55.39,98.49 55.39,82.93 55.39,82.93 C55.39,82.93 49.75,77.3 49.75,77.3 C49.75,77.3 33.87,77.3 33.87,77.3z "/><path id="_R_G_L_2_G_D_8_P_0" stroke="#000000" stroke-linecap="square" stroke-linejoin="square" fill="none" stroke-width="2" stroke-opacity="1" d=" M32.46 85.48 C32.46,85.48 37.24,81.27 37.24,81.27 C37.24,81.27 46.94,81.27 46.94,81.27 C46.94,81.27 51.16,85.48 51.16,85.48 C51.16,85.48 51.16,96.68 51.16,96.68 C51.16,96.68 46.94,100.9 46.94,100.9 C46.94,100.9 37.24,100.9 37.24,100.9 C37.24,100.9 32.46,96.68 32.46,96.68 C32.46,96.68 32.46,85.48 32.46,85.48z "/></g><g id="_R_G_L_1_G_N_3_T_0" transform=" translate(348, 439) scale(1.9, 1.9) translate(0, 0)"><g id="_R_G_L_1_G" transform=" translate(80.789, 82.895) scale(2.98421, -2.98421) translate(-15.957, -4.642)"><path id="_R_G_L_1_G_D_0_P_0" stroke="#d0d0d0" stroke-linecap="square" stroke-linejoin="square" fill="none" stroke-width="4.99" stroke-opacity="1" d=" M20.43 4.51 C20.43,4.51 22.19,4.51 22.19,4.51 C22.19,4.51 24.61,-4.63 24.61,-4.63 C24.61,-4.63 33.25,-4.64 33.25,-4.64 "/></g></g><g id="_R_G_L_0_G_N_2_N_3_T_0" transform=" translate(348, 439) scale(1.9, 1.9) translate(0, 0)"><g id="_R_G_L_0_G_N_2_T_0" transform=" translate(80.789, 82.895) scale(2.98421, -2.98421) translate(-15.957, -4.642)"><g id="_R_G_L_0_G" transform=" translate(33.457, -3.352) rotate(-44) translate(-27.5, -21.25)"><path id="_R_G_L_0_G_D_0_P_0" stroke="#000000" stroke-linecap="square" stroke-linejoin="square" fill="none" stroke-width="2.495" stroke-opacity="1" d=" M22.32 30.64 C22.32,30.64 22.32,26.36 22.32,26.36 C22.32,26.36 25.8,22.89 25.8,22.89 C25.8,22.89 29.15,22.89 29.15,22.89 C29.15,22.89 32.63,26.36 32.63,26.36 C32.63,26.36 32.63,30.64 32.63,30.64 "/><path id="_R_G_L_0_G_D_1_P_0" fill="#535353" fill-opacity="1" fill-rule="nonzero" d=" M24.04 19.27 C24.04,19.27 25.39,17.92 25.39,17.92 C25.39,17.92 29.12,17.92 29.12,17.92 C29.12,17.92 30.65,19.45 30.65,19.45 C30.65,19.45 30.65,22.9 30.65,22.9 C30.65,22.9 29.12,24.43 29.12,24.43 C29.12,24.43 25.39,24.43 25.39,24.43 C25.39,24.43 24.04,23.08 24.04,23.08 C24.04,23.08 24.04,19.27 24.04,19.27z "/><path id="_R_G_L_0_G_D_2_P_0" stroke="#000000" stroke-linecap="square" stroke-linejoin="square" fill="none" stroke-width="0.624" stroke-opacity="1" d=" M25.68 21.16 C25.68,21.16 29.2,21.16 29.2,21.16 "/></g></g></g></g><g id="time_group"/></svg>