<svg xmlns="http://www.w3.org/2000/svg" xmlns:xlink="http://www.w3.org/1999/xlink" preserveAspectRatio="xMidYMid meet" width="680" height="680" viewBox="0 0 680 680" style="width:100%;height:100%"><defs><animate repeatCount="indefinite" dur="1s" begin="0s" xlink:href="#_R_G_L_3_G_D_0_P_0" fill="freeze" attributeName="d" attributeType="XML" from="M12.66 -104.36 C12.66,-104.36 12.66,-135.11 12.66,-135.11 C12.66,-135.11 35.55,-135.14 35.55,-135.14 C35.55,-135.14 35.55,-83.39 35.55,-83.39 " to="M12.66 -104.36 C12.66,-104.36 12.66,-135.11 12.66,-135.11 C12.66,-135.11 35.55,-135.14 35.55,-135.14 C35.55,-135.14 35.55,-83.39 35.55,-83.39 " keyTimes="0;0.5;1" values="M12.66 -104.36 C12.66,-104.36 12.66,-135.11 12.66,-135.11 C12.66,-135.11 35.55,-135.14 35.55,-135.14 C35.55,-135.14 35.55,-83.39 35.55,-83.39 ;M12.66 -93.41 C12.66,-93.41 12.66,-124.16 12.66,-124.16 C12.66,-124.16 35.55,-124.18 35.55,-124.18 C35.55,-124.18 35.55,-72.43 35.55,-72.43 ;M12.66 -104.36 C12.66,-104.36 12.66,-135.11 12.66,-135.11 C12.66,-135.11 35.55,-135.14 35.55,-135.14 C35.55,-135.14 35.55,-83.39 35.55,-83.39 " keySplines="0.6 0 0.667 1;0.333 0 0.4 1" calcMode="spline"/><animate repeatCount="indefinite" dur="1s" begin="0s" xlink:href="#_R_G_L_3_G_D_1_P_0" fill="freeze" attributeName="d" attributeType="XML" from="M-28.69 -93.67 C-28.69,-93.67 -28.69,-124.42 -28.69,-124.42 C-28.69,-124.42 -5.81,-124.44 -5.81,-124.44 C-5.81,-124.44 -5.81,-72.69 -5.81,-72.69 " to="M-28.69 -93.67 C-28.69,-93.67 -28.69,-124.42 -28.69,-124.42 C-28.69,-124.42 -5.81,-124.44 -5.81,-124.44 C-5.81,-124.44 -5.81,-72.69 -5.81,-72.69 " keyTimes="0;0.5;1" values="M-28.69 -93.67 C-28.69,-93.67 -28.69,-124.42 -28.69,-124.42 C-28.69,-124.42 -5.81,-124.44 -5.81,-124.44 C-5.81,-124.44 -5.81,-72.69 -5.81,-72.69 ;M-28.69 -104.4 C-28.69,-104.4 -28.69,-135.15 -28.69,-135.15 C-28.69,-135.15 -5.81,-135.17 -5.81,-135.17 C-5.81,-135.17 -5.81,-83.42 -5.81,-83.42 ;M-28.69 -93.67 C-28.69,-93.67 -28.69,-124.42 -28.69,-124.42 C-28.69,-124.42 -5.81,-124.44 -5.81,-124.44 C-5.81,-124.44 -5.81,-72.69 -5.81,-72.69 " keySplines="0.333 0 0.4 1;0.6 0 0.667 1" calcMode="spline"/><animate attributeType="XML" attributeName="opacity" dur="1s" from="0" to="1" xlink:href="#time_group"/></defs><g id="_R_G"><g id="_R_G_L_9_G" transform=" translate(335, 432) scale(5.17, 5.17) translate(0, 0)"><path id="_R_G_L_9_G_D_0_P_0" stroke="#d0d0d0" stroke-linecap="square" stroke-linejoin="square" fill="none" stroke-width="4.99" stroke-opacity="1" d=" M-18.04 4.51 C-18.04,4.51 -24.12,4.51 -24.12,4.51 C-24.12,4.51 -27.55,9.34 -27.55,9.34 C-27.55,9.34 -27.55,19.63 -27.55,19.63 "/><path id="_R_G_L_9_G_D_1_P_0" fill="#535353" fill-opacity="1" fill-rule="nonzero" d=" M-16.16 0.14 C-16.16,0.14 -16.16,9.18 -16.16,9.18 C-16.16,9.18 -21.21,9.18 -21.21,9.18 C-21.21,9.18 -23.34,7.09 -23.34,7.09 C-23.34,7.09 -23.34,1.99 -23.34,1.99 C-23.34,1.99 -21.46,0.14 -21.46,0.14 C-21.46,0.14 -16.16,0.14 -16.16,0.14z "/></g><g id="_R_G_L_8_G_N_4_T_0" transform=" translate(340, 447.264) scale(1.62, 1.62) translate(0, 0)"><g id="_R_G_L_8_G"><path id="_R_G_L_8_G_D_0_P_0" fill="#000000" fill-opacity="1" fill-rule="nonzero" d=" M-32.69 122.1 C-32.69,122.1 -32.69,132.42 -32.69,132.42 C-32.69,132.42 -102.57,132.42 -102.57,132.42 C-102.57,132.42 -102.57,122.1 -102.57,122.1 C-102.57,122.1 -72.62,98 -72.62,98 C-72.62,98 -52.13,98 -52.13,98 C-52.13,98 -32.69,122.1 -32.69,122.1z "/><path id="_R_G_L_8_G_D_1_P_0" fill="#000000" fill-opacity="1" fill-rule="nonzero" d=" M-12.03 122.1 C-12.03,122.1 -12.03,132.42 -12.03,132.42 C-12.03,132.42 -81.91,132.42 -81.91,132.42 C-81.91,132.42 -81.91,122.1 -81.91,122.1 C-81.91,122.1 -51.96,98 -51.96,98 C-51.96,98 -31.47,98 -31.47,98 C-31.47,98 -12.03,122.1 -12.03,122.1z "/></g></g><g id="_R_G_L_7_G_N_4_T_0" transform=" translate(340, 447.264) scale(1.62, 1.62) translate(0, 0)"><g id="_R_G_L_7_G" transform=" translate(0, -1.204) translate(0, 0)"><path id="_R_G_L_7_G_D_0_P_0" fill="#535353" fill-opacity="1" fill-rule="nonzero" d=" M-11.57 -63 C-11.57,-63 27.43,-63 27.43,-63 C27.43,-63 27.43,-14 27.43,-14 C27.43,-14 -11.57,-14 -11.57,-14 C-11.57,-14 -11.57,-63 -11.57,-63z "/><path id="_R_G_L_7_G_D_1_P_0" stroke="#000000" stroke-linecap="square" stroke-linejoin="square" fill="none" stroke-width="2" stroke-opacity="1" d=" M-11.57 -35.87 C-11.57,-35.87 27.43,-35.87 27.43,-35.87 "/><path id="_R_G_L_7_G_D_2_P_0" stroke="#000000" stroke-linecap="square" stroke-linejoin="square" fill="none" stroke-width="2" stroke-opacity="1" d=" M-11.57 -48.57 C-11.57,-48.57 27.43,-48.57 27.43,-48.57 "/></g></g><g id="_R_G_L_6_G" transform=" translate(340, 444.289) scale(1.62, 1.62) translate(0, 0)"><path id="_R_G_L_6_G_D_0_P_0" stroke="#000000" stroke-linecap="square" stroke-linejoin="square" fill="none" stroke-width="2" stroke-opacity="1" d=" M-11.57 -23.17 C-11.57,-23.17 27.43,-23.17 27.43,-23.17 "/><path id="_R_G_L_6_G_D_1_P_0" fill="#8e8e8e" fill-opacity="1" fill-rule="nonzero" d=" M-48.07 -27 C-48.07,-27 64.43,-27 64.43,-27 C64.43,-27 64.43,3 64.43,3 C64.43,3 64.43,120.5 64.43,120.5 C64.43,120.5 -67.57,120.5 -67.57,120.5 C-67.57,120.5 -67.57,3 -67.57,3 C-67.57,3 -48.07,-27 -48.07,-27z "/><path id="_R_G_L_6_G_D_2_P_0" stroke="#000000" stroke-linecap="square" stroke-linejoin="square" fill="none" stroke-width="2" stroke-opacity="1" d=" M9.26 25 C9.26,25 -47.13,25 -47.13,25 C-47.13,25 -47.13,102 -47.13,102 C-47.13,102 9.26,102 9.26,102 C9.26,102 9.26,25 9.26,25z "/><path id="_R_G_L_6_G_D_3_P_0" fill="#8e8e8e" fill-opacity="1" fill-rule="nonzero" d=" M-43.41 45.14 C-43.41,45.14 -50.57,45.14 -50.57,45.14 C-50.57,45.14 -50.57,83.41 -50.57,83.41 C-50.57,83.41 -43.41,83.41 -43.41,83.41 C-43.41,83.41 -43.41,45.14 -43.41,45.14z "/><path id="_R_G_L_6_G_D_4_P_0" stroke="#000000" stroke-linecap="square" stroke-linejoin="square" fill="none" stroke-width="2" stroke-opacity="1" d=" M-43.41 45.14 C-43.41,45.14 -50.57,45.14 -50.57,45.14 C-50.57,45.14 -50.57,83.41 -50.57,83.41 C-50.57,83.41 -43.41,83.41 -43.41,83.41 C-43.41,83.41 -43.41,45.14 -43.41,45.14z "/><path id="_R_G_L_6_G_D_5_P_0" stroke="#000000" stroke-linecap="square" stroke-linejoin="square" fill="none" stroke-width="2" stroke-opacity="1" d=" M-43.55 57.08 C-43.55,57.08 -50.43,57.08 -50.43,57.08 "/><path id="_R_G_L_6_G_D_6_P_0" stroke="#000000" stroke-linecap="square" stroke-linejoin="square" fill="none" stroke-width="2" stroke-opacity="1" d=" M-43.55 71.02 C-43.55,71.02 -50.43,71.02 -50.43,71.02 "/><path id="_R_G_L_6_G_D_7_P_0" fill="#ffffff" fill-opacity="1" fill-rule="nonzero" d=" M34.43 16 C34.43,16 46.16,21.65 46.16,21.65 C46.16,21.65 49.05,34.34 49.05,34.34 C49.05,34.34 40.94,44.52 40.94,44.52 C40.94,44.52 27.92,44.52 27.92,44.52 C27.92,44.52 19.81,34.34 19.81,34.34 C19.81,34.34 22.7,21.65 22.7,21.65 C22.7,21.65 34.43,16 34.43,16z "/><path id="_R_G_L_6_G_D_8_P_0" fill="#000000" fill-opacity="1" fill-rule="nonzero" d=" M26.25 29.6 C26.25,29.6 34.41,23.03 34.41,23.03 C34.41,23.03 36.37,25.47 36.37,25.47 C36.37,25.47 31.01,29.77 31.01,29.77 C31.01,29.77 32.2,31.24 32.2,31.24 C32.2,31.24 37.47,27 37.47,27 C37.47,27 39.43,29.43 39.43,29.43 C39.43,29.43 34.16,33.68 34.16,33.68 C34.16,33.68 35.28,35.07 35.28,35.07 C35.28,35.07 40.83,30.57 40.83,30.57 C40.83,30.57 42.79,33.01 42.79,33.01 C42.79,33.01 34.43,39.75 34.43,39.75 C34.43,39.75 26.25,29.6 26.25,29.6z "/><path id="_R_G_L_6_G_D_9_P_0" stroke="#000000" stroke-linecap="square" stroke-linejoin="square" fill="none" stroke-width="2" stroke-opacity="1" d=" M47.93 -24.5 C47.93,-24.5 30.43,5.5 30.43,5.5  M30.43 5.5 C30.43,5.5 -66.07,5.5 -66.07,5.5  M30.43 5.5 C30.43,5.5 30.43,103 30.43,103 "/><path id="_R_G_L_6_G_D_10_P_0" fill="#e1503c" fill-opacity="1" fill-rule="nonzero" d=" M-43.6 -10.94 C-43.6,-10.94 -36.75,-21 -36.75,-21 C-36.75,-21 -20.6,-21 -20.6,-21 C-20.6,-21 -3.92,-21 -3.92,-21 C-3.92,-21 12.75,-21 12.75,-21 C12.75,-21 27.54,-21 27.54,-21 C27.54,-21 21.46,-12.06 21.46,-12.06 C21.46,-12.06 14.61,-2 14.61,-2 C14.61,-2 -1.54,-2 -1.54,-2 C-1.54,-2 -18.22,-2 -18.22,-2 C-18.22,-2 -34.9,-2 -34.9,-2 C-34.9,-2 -49.68,-2 -49.68,-2 C-49.68,-2 -43.6,-10.94 -43.6,-10.94z "/><path id="_R_G_L_6_G_D_11_P_0" stroke="#000000" stroke-linecap="square" stroke-linejoin="square" fill="none" stroke-width="2" stroke-opacity="1" d=" M-43.6 -10.94 C-43.6,-10.94 -36.75,-21 -36.75,-21 C-36.75,-21 -20.6,-21 -20.6,-21 C-20.6,-21 -3.92,-21 -3.92,-21 C-3.92,-21 12.75,-21 12.75,-21 C12.75,-21 27.54,-21 27.54,-21 C27.54,-21 21.46,-12.06 21.46,-12.06 C21.46,-12.06 14.61,-2 14.61,-2 C14.61,-2 -1.54,-2 -1.54,-2 C-1.54,-2 -18.22,-2 -18.22,-2 C-18.22,-2 -34.9,-2 -34.9,-2 C-34.9,-2 -49.68,-2 -49.68,-2 C-49.68,-2 -43.6,-10.94 -43.6,-10.94z "/></g><g id="_R_G_L_5_G" transform=" translate(340, 447.264) scale(1.62, 1.62) translate(0, 0)"><path id="_R_G_L_5_G_D_0_P_0" fill="#000000" fill-opacity="1" fill-rule="nonzero" d=" M81.31 122.1 C81.31,122.1 81.31,132.42 81.31,132.42 C81.31,132.42 11.43,132.42 11.43,132.42 C11.43,132.42 11.43,122.1 11.43,122.1 C11.43,122.1 41.38,98 41.38,98 C41.38,98 61.87,98 61.87,98 C61.87,98 81.31,122.1 81.31,122.1z "/><path id="_R_G_L_5_G_D_1_P_0" fill="#000000" fill-opacity="1" fill-rule="nonzero" d=" M101.98 122.1 C101.98,122.1 101.98,132.42 101.98,132.42 C101.98,132.42 32.1,132.42 32.1,132.42 C32.1,132.42 32.1,122.1 32.1,122.1 C32.1,122.1 62.05,98 62.05,98 C62.05,98 82.54,98 82.54,98 C82.54,98 101.98,122.1 101.98,122.1z "/><path id="_R_G_L_5_G_D_2_P_0" fill="#535353" fill-opacity="1" fill-rule="nonzero" d=" M92.13 121.59 C92.13,121.59 92.24,126.69 92.24,126.69 C92.24,126.69 45.98,126.69 45.98,126.69 C45.98,126.69 45.88,121.59 45.88,121.59 C45.88,121.59 65.7,105.65 65.7,105.65 C65.7,105.65 79.27,105.65 79.27,105.65 C79.27,105.65 92.13,121.59 92.13,121.59z "/><path id="_R_G_L_5_G_D_3_P_0" fill="#8e8e8e" fill-opacity="1" fill-rule="nonzero" d=" M72.08 105.65 C72.08,105.65 65.72,105.65 65.72,105.65 C65.72,105.65 45.36,121.59 45.36,121.59 C45.36,121.59 45.36,126.69 45.36,126.69 C45.36,126.69 67.39,126.69 67.39,126.69 C67.39,126.69 76.77,126.69 76.77,126.69 C76.77,126.69 82.62,118.9 82.62,118.9 C82.62,118.9 80.54,109.73 80.54,109.73 C80.54,109.73 72.08,105.65 72.08,105.65z "/><path id="_R_G_L_5_G_D_4_P_0" stroke="#000000" stroke-linecap="square" stroke-linejoin="square" fill="none" stroke-width="1.5" stroke-opacity="1" d=" M71.44 106.93 C71.44,106.93 62.98,111.01 62.98,111.01 C62.98,111.01 61.9,119.68 61.9,119.68 C61.9,119.68 66.99,125.41 66.99,125.41 "/></g><g id="_R_G_L_4_G_N_10_T_0" transform=" translate(335, 432) scale(5.17, 5.17) translate(0, 0)"><g id="_R_G_L_4_G" transform=" translate(-28.188, 20.425) translate(-27.5, -21.25)"><path id="_R_G_L_4_G_D_0_P_0" stroke="#000000" stroke-linecap="square" stroke-linejoin="square" fill="none" stroke-width="2.495" stroke-opacity="1" d=" M22.32 30.64 C22.32,30.64 22.32,26.36 22.32,26.36 C22.32,26.36 25.8,22.89 25.8,22.89 C25.8,22.89 29.15,22.89 29.15,22.89 C29.15,22.89 32.63,26.36 32.63,26.36 C32.63,26.36 32.63,30.64 32.63,30.64 "/><path id="_R_G_L_4_G_D_1_P_0" fill="#535353" fill-opacity="1" fill-rule="nonzero" d=" M24.04 19.27 C24.04,19.27 25.39,17.92 25.39,17.92 C25.39,17.92 29.12,17.92 29.12,17.92 C29.12,17.92 30.65,19.45 30.65,19.45 C30.65,19.45 30.65,22.9 30.65,22.9 C30.65,22.9 29.12,24.43 29.12,24.43 C29.12,24.43 25.39,24.43 25.39,24.43 C25.39,24.43 24.04,23.08 24.04,23.08 C24.04,23.08 24.04,19.27 24.04,19.27z "/><path id="_R_G_L_4_G_D_2_P_0" stroke="#000000" stroke-linecap="square" stroke-linejoin="square" fill="none" stroke-width="0.624" stroke-opacity="1" d=" M25.68 21.16 C25.68,21.16 29.2,21.16 29.2,21.16 "/></g></g><g id="_R_G_L_3_G" transform=" translate(340, 447.264) scale(1.62, 1.62) translate(0, 0)"><path id="_R_G_L_3_G_D_0_P_0" stroke="#2c6fef" stroke-linecap="square" stroke-linejoin="square" fill="none" stroke-width="7" stroke-opacity="1" d=" M12.66 -104.36 C12.66,-104.36 12.66,-135.11 12.66,-135.11 C12.66,-135.11 35.55,-135.14 35.55,-135.14 C35.55,-135.14 35.55,-83.39 35.55,-83.39 "/><path id="_R_G_L_3_G_D_1_P_0" stroke="#e1503c" stroke-linecap="square" stroke-linejoin="square" fill="none" stroke-width="7" stroke-opacity="1" d=" M-28.69 -93.67 C-28.69,-93.67 -28.69,-124.42 -28.69,-124.42 C-28.69,-124.42 -5.81,-124.44 -5.81,-124.44 C-5.81,-124.44 -5.81,-72.69 -5.81,-72.69 "/><path id="_R_G_L_3_G_D_2_P_0" fill="#8e8e8e" fill-opacity="1" fill-rule="nonzero" d=" M81.39 -58.25 C81.39,-58.25 -76,-58.25 -76,-58.25 C-76,-58.25 -76,-97.04 -76,-97.04 C-76,-97.04 -57.77,-115.27 -57.77,-115.27 C-57.77,-115.27 62.34,-115.27 62.34,-115.27 C62.34,-115.27 81.39,-97.04 81.39,-97.04 C81.39,-97.04 81.39,-58.25 81.39,-58.25z "/><path id="_R_G_L_3_G_D_3_P_0" fill="#000000" fill-opacity="1" fill-rule="nonzero" d=" M-20.85 -108.27 C-20.85,-108.27 -20.85,-65.25 -20.85,-65.25 C-20.85,-65.25 25.75,-65.25 25.75,-65.25 C25.75,-65.25 25.75,-94.05 25.75,-94.05 C25.75,-94.05 10.88,-108.27 10.88,-108.27 C10.88,-108.27 -20.85,-108.27 -20.85,-108.27z "/><path id="_R_G_L_3_G_D_4_P_0" fill="#000000" fill-opacity="1" fill-rule="nonzero" d=" M-28.58 -108.27 C-28.58,-108.27 -54.88,-108.27 -54.88,-108.27 C-54.88,-108.27 -69,-94.14 -69,-94.14 C-69,-94.14 -69,-65.25 -69,-65.25 C-69,-65.25 -28.58,-65.25 -28.58,-65.25 C-28.58,-65.25 -28.58,-108.27 -28.58,-108.27z "/><path id="_R_G_L_3_G_D_5_P_0" stroke="#000000" stroke-linecap="square" stroke-linejoin="square" fill="none" stroke-width="2" stroke-opacity="1" d=" M23.3 -110.9 C23.3,-110.9 37.49,-96.72 37.49,-96.72 C37.49,-96.72 37.49,-60.7 37.49,-60.7 "/><path id="_R_G_L_3_G_D_6_P_0" fill="#535353" fill-opacity="1" fill-rule="nonzero" d=" M-36.72 -120.72 C-36.72,-120.72 -21.44,-120.72 -21.44,-120.72 C-21.44,-120.72 -21.44,-115.27 -21.44,-115.27 C-21.44,-115.27 -36.72,-115.27 -36.72,-115.27 C-36.72,-115.27 -36.72,-120.72 -36.72,-120.72z "/><path id="_R_G_L_3_G_D_7_P_0" fill="#535353" fill-opacity="1" fill-rule="nonzero" d=" M5.84 -120.72 C5.84,-120.72 21.12,-120.72 21.12,-120.72 C21.12,-120.72 21.12,-115.27 21.12,-115.27 C21.12,-115.27 5.84,-115.27 5.84,-115.27 C5.84,-115.27 5.84,-120.72 5.84,-120.72z "/></g><g id="_R_G_L_2_G_N_4_T_0" transform=" translate(340, 447.264) scale(1.62, 1.62) translate(0, 0)"><g id="_R_G_L_2_G"><path id="_R_G_L_2_G_D_0_P_0" fill="#e1503c" fill-opacity="1" fill-rule="nonzero" d=" M-1.42 -95 C-1.42,-95 -7.42,-95 -7.42,-95 C-7.42,-95 -7.42,-77 -7.42,-77 C-7.42,-77 -1.42,-77 -1.42,-77 C-1.42,-77 -1.42,-95 -1.42,-95z  M-42.22 -95 C-42.22,-95 -48.22,-95 -48.22,-95 C-48.22,-95 -48.22,-77 -48.22,-77 C-48.22,-77 -42.22,-77 -42.22,-77 C-42.22,-77 -42.22,-95 -42.22,-95z "/></g></g><g id="_R_G_L_1_G" transform=" translate(427.5, 456) scale(5.17, 5.17) translate(-15.957, -4.642)"><path id="_R_G_L_1_G_D_0_P_0" fill="#535353" fill-opacity="1" fill-rule="nonzero" d=" M16.08 0.14 C16.08,0.14 21.37,0.14 21.37,0.14 C21.37,0.14 23.25,1.99 23.25,1.99 C23.25,1.99 23.25,7.09 23.25,7.09 C23.25,7.09 21.12,9.18 21.12,9.18 C21.12,9.18 16.08,9.18 16.08,9.18 C16.08,9.18 16.08,0.14 16.08,0.14z  M20.14 0.14 C20.14,0.14 20.14,9.18 20.14,9.18 C20.14,9.18 15.09,9.18 15.09,9.18 C15.09,9.18 12.97,7.09 12.97,7.09 C12.97,7.09 12.97,1.99 12.97,1.99 C12.97,1.99 14.85,0.14 14.85,0.14 C14.85,0.14 20.14,0.14 20.14,0.14z "/><path id="_R_G_L_1_G_D_1_P_0" stroke="#d0d0d0" stroke-linecap="square" stroke-linejoin="square" fill="none" stroke-width="4.99" stroke-opacity="1" d=" M19.26 4.51 C19.26,4.51 24.04,4.51 24.04,4.51 C24.04,4.51 27.47,9.34 27.47,9.34 C27.47,9.34 27.47,19.63 27.47,19.63 "/></g><g id="_R_G_L_0_G_N_2_T_0" transform=" translate(427.5, 456) scale(5.17, 5.17) translate(-15.957, -4.642)"><g id="_R_G_L_0_G" transform=" translate(27.813, 20.634) translate(-27.5, -21.25)"><path id="_R_G_L_0_G_D_0_P_0" stroke="#000000" stroke-linecap="square" stroke-linejoin="square" fill="none" stroke-width="2.495" stroke-opacity="1" d=" M22.32 30.64 C22.32,30.64 22.32,26.36 22.32,26.36 C22.32,26.36 25.8,22.89 25.8,22.89 C25.8,22.89 29.15,22.89 29.15,22.89 C29.15,22.89 32.63,26.36 32.63,26.36 C32.63,26.36 32.63,30.64 32.63,30.64 "/><path id="_R_G_L_0_G_D_1_P_0" fill="#535353" fill-opacity="1" fill-rule="nonzero" d=" M24.04 19.27 C24.04,19.27 25.39,17.92 25.39,17.92 C25.39,17.92 29.12,17.92 29.12,17.92 C29.12,17.92 30.65,19.45 30.65,19.45 C30.65,19.45 30.65,22.9 30.65,22.9 C30.65,22.9 29.12,24.43 29.12,24.43 C29.12,24.43 25.39,24.43 25.39,24.43 C25.39,24.43 24.04,23.08 24.04,23.08 C24.04,23.08 24.04,19.27 24.04,19.27z "/><path id="_R_G_L_0_G_D_2_P_0" stroke="#000000" stroke-linecap="square" stroke-linejoin="square" fill="none" stroke-width="0.624" stroke-opacity="1" d=" M25.68 21.16 C25.68,21.16 29.2,21.16 29.2,21.16 "/></g></g></g><g id="time_group"/></svg>