<svg viewBox="0 0 32 32" focusable="false" class="chakra-icon css-1csxonm" xmlns="http://www.w3.org/2000/svg"><g clip-path="url(#clip0_4749_30249)"><path d="M25.6 25.6L2.55999 32L6.39999 6.39998H10.88L25.6 21.12V25.6Z" fill="var(--chakra-colors-red-500)"></path><path fill-rule="evenodd" clip-rule="evenodd" d="M15.5826 28.3826L9.98706 29.9369L3.79783 23.7477L4.73042 17.5304L15.5826 28.3826ZM16.9992 27.9891L4.96653 15.9564L6.39999 6.39998H10.88L25.6 21.12V25.6L16.9992 27.9891ZM3.56172 25.3217L8.57039 30.3304L2.55999 32L3.56172 25.3217Z" fill="var(--chakra-colors-yellow-500)"></path><path d="M6.39999 10.24L6.39999 6.39998H10.88L25.6 21.12V25.6H21.76L6.39999 10.24Z" fill="black"></path><path d="M14.9333 4.26659L12.8 3.19998L14.9334 2.13332L16.0001 0L17.0667 2.13326L19.2 3.19998L17.0667 4.26665L16.0001 6.4L14.9333 4.26659Z" fill="var(--chakra-colors-pink-500)"></path><path d="M27.7332 4.26659L25.6 3.19998L27.7333 2.13332L28.8 0L29.8666 2.13326L32 3.19998L29.8667 4.26665L28.8 6.4L27.7332 4.26659Z" fill="var(--chakra-colors-yellow-500)"></path><path d="M24.96 12.16L23.04 10.24L14.72 18.56L16.64 20.48L24.96 12.16Z" fill="var(--chakra-colors-pink-500)"></path><path d="M31.68 15.04L29.76 13.12L22.0801 20.8L24.0001 22.72L31.68 15.04Z" fill="var(--chakra-colors-blue-500)"></path><path d="M24 6.40004L22.0799 4.47998L17.92 8.63992L19.84 10.56L24 6.40004Z" fill="var(--chakra-colors-red-500)"></path><path d="M5.12009 3.20002L3.20005 1.27996L1.28003 3.19998L3.20007 5.12004L5.12009 3.20002Z" fill="var(--chakra-colors-yellow-500)"></path><path d="M30.7201 30.08L28.8001 28.1599L26.8801 30.08L28.8001 32L30.7201 30.08Z" fill="var(--chakra-colors-yellow-500)"></path><path d="M12.753 5.16711L14.6259 7.04L11.7929 9.87296L13.44 11.5201L10.5602 14.4L8.64014 12.4799L10.8329 10.2871L9.23291 8.68709L12.753 5.16711Z" fill="var(--chakra-colors-red-500)"></path></g><defs><clipPath id="clip0_4749_30249"><rect width="32" height="32" fill="white"></rect></clipPath></defs></svg>